<svg xmlns="http://www.w3.org/2000/svg" width="700" height="352" fill="none"><path fill="#fff" d="M0 6a6 6 0 0 1 6-6h688a6 6 0 0 1 6 6v340a6 6 0 0 1-6 6H6a6 6 0 0 1-6-6V6Z"/><path fill="#050505" d="M25.438 49V35.91h4.794c.93 0 1.698.153 2.308.46.61.302 1.065.713 1.368 1.233.302.516.453 1.097.453 1.745 0 .546-.1 1.006-.3 1.38-.2.371-.469.67-.805.896a3.549 3.549 0 0 1-1.1.485v.128c.435.021.859.162 1.272.422.418.256.763.62 1.036 1.093s.409 1.048.409 1.726a3.47 3.47 0 0 1-.473 1.803c-.311.528-.793.948-1.445 1.259-.652.307-1.485.46-2.499.46h-5.018Zm1.975-1.694h2.851c.946 0 1.624-.183 2.033-.55.409-.366.614-.824.614-1.374a2.16 2.16 0 0 0-.314-1.138 2.238 2.238 0 0 0-.895-.824c-.383-.205-.84-.307-1.368-.307h-2.92v4.193Zm0-5.734h2.647a2.72 2.72 0 0 0 1.195-.255c.358-.17.641-.41.85-.716a1.9 1.9 0 0 0 .32-1.1c0-.54-.19-.995-.57-1.361-.378-.367-.96-.55-1.744-.55h-2.698v3.982Zm15.869 3.356v-5.746h1.917V49H43.32v-1.7h-.102a3.064 3.064 0 0 1-1.087 1.31c-.494.345-1.11.518-1.847.518-.63 0-1.19-.139-1.675-.416-.482-.28-.86-.696-1.138-1.246-.272-.55-.409-1.23-.409-2.04v-6.244h1.911v6.015c0 .669.186 1.201.556 1.598.371.396.853.594 1.445.594.358 0 .714-.09 1.068-.268.358-.18.654-.45.888-.812.239-.362.356-.822.352-1.38Zm8.16 4.264c-.792 0-1.5-.203-2.121-.608-.618-.409-1.104-.99-1.458-1.745-.35-.758-.524-1.668-.524-2.729 0-1.061.177-1.969.53-2.723.358-.754.849-1.332 1.47-1.732.623-.4 1.328-.601 2.116-.601.61 0 1.1.102 1.47.307.376.2.665.434.87.703.209.268.37.505.486.71h.115v-4.865h1.911V49H54.44v-1.528h-.16a5.05 5.05 0 0 1-.498.716c-.213.269-.507.503-.882.703-.375.2-.86.3-1.457.3Zm.422-1.63c.55 0 1.015-.145 1.394-.435.383-.294.673-.7.87-1.22.2-.52.3-1.126.3-1.816 0-.682-.098-1.279-.294-1.79-.196-.511-.484-.91-.863-1.195-.38-.286-.848-.428-1.407-.428-.575 0-1.054.149-1.438.447-.383.298-.673.705-.869 1.22-.192.517-.288 1.098-.288 1.746 0 .656.098 1.246.294 1.77.196.525.486.94.87 1.247.388.303.865.454 1.431.454Zm11.287 5.324c-.78 0-1.45-.102-2.013-.306-.558-.205-1.014-.476-1.368-.812a3.409 3.409 0 0 1-.793-1.106l1.643-.678c.115.188.269.386.46.595.196.213.46.394.793.543.337.15.769.224 1.297.224.725 0 1.324-.177 1.797-.53.473-.35.71-.908.71-1.675v-1.93h-.122a4.362 4.362 0 0 1-.499.696c-.213.256-.507.477-.882.665-.375.187-.863.281-1.464.281-.775 0-1.474-.181-2.096-.543-.618-.367-1.108-.906-1.47-1.617-.358-.716-.538-1.596-.538-2.64s.177-1.94.531-2.685c.358-.746.848-1.317 1.47-1.713.622-.4 1.328-.601 2.116-.601.61 0 1.102.102 1.477.307.375.2.666.434.875.703.213.268.377.505.492.71h.141v-1.592h1.873v10.035c0 .844-.196 1.537-.588 2.078-.392.54-.923.941-1.592 1.201-.664.26-1.414.39-2.25.39Zm-.019-5.618c.55 0 1.014-.128 1.394-.384.383-.26.673-.63.869-1.112.2-.486.3-1.067.3-1.745 0-.66-.098-1.242-.294-1.745-.196-.503-.483-.895-.863-1.176-.379-.286-.848-.428-1.406-.428-.575 0-1.055.149-1.438.447-.384.294-.673.695-.87 1.202a4.775 4.775 0 0 0-.287 1.7c0 .643.098 1.208.294 1.694.196.486.486.865.87 1.138.387.272.864.409 1.431.409Zm11.244 1.93c-.968 0-1.8-.206-2.5-.62a4.206 4.206 0 0 1-1.61-1.758c-.375-.758-.563-1.647-.563-2.665 0-1.006.188-1.892.563-2.66.379-.766.907-1.365 1.585-1.795.682-.43 1.478-.646 2.39-.646.555 0 1.091.092 1.611.275.52.183.987.47 1.4.863.413.392.74.901.978 1.527.239.623.358 1.379.358 2.27v.677h-7.805v-1.432h5.932c0-.503-.102-.948-.307-1.336a2.32 2.32 0 0 0-.862-.926c-.367-.226-.797-.34-1.292-.34-.537 0-1.005.133-1.406.397-.396.26-.703.601-.92 1.023a2.95 2.95 0 0 0-.32 1.361v1.119c0 .656.115 1.214.345 1.675.234.46.56.812.978 1.054.418.239.906.358 1.464.358.362 0 .692-.05.99-.153a2.14 2.14 0 0 0 .774-.473c.217-.209.384-.467.499-.774l1.809.326c-.145.533-.405 1-.78 1.4a3.78 3.78 0 0 1-1.4.927c-.558.218-1.195.326-1.911.326Zm10.916-10.016v1.534h-5.363v-1.534h5.363Zm-3.925-2.352h1.911v9.287c0 .37.056.65.166.838a.868.868 0 0 0 .429.377c.179.064.373.096.581.096.154 0 .288-.011.403-.032l.269-.052.345 1.58a3.392 3.392 0 0 1-.473.127c-.205.047-.46.073-.767.077a3.364 3.364 0 0 1-1.407-.269 2.412 2.412 0 0 1-1.054-.869c-.269-.392-.403-.884-.403-1.477V36.83Zm21.829 3.336h-1.994a3.052 3.052 0 0 0-1.196-1.95 3.3 3.3 0 0 0-1.016-.51 3.967 3.967 0 0 0-1.183-.173c-.754 0-1.43.19-2.026.569-.592.379-1.061.935-1.406 1.668-.341.733-.511 1.628-.511 2.684 0 1.066.17 1.965.51 2.698.346.733.817 1.287 1.413 1.662a3.705 3.705 0 0 0 2.014.562c.413 0 .805-.055 1.176-.166a3.387 3.387 0 0 0 1.016-.505 3.08 3.08 0 0 0 1.209-1.924l1.994.007a5.347 5.347 0 0 1-.62 1.777 4.915 4.915 0 0 1-1.17 1.393 5.288 5.288 0 0 1-1.624.901 6.003 6.003 0 0 1-1.994.32c-1.133 0-2.143-.269-3.03-.805-.886-.542-1.585-1.315-2.096-2.32-.507-1.006-.76-2.206-.76-3.6 0-1.397.255-2.597.766-3.598.511-1.006 1.21-1.777 2.097-2.314.886-.541 1.894-.812 3.023-.812.695 0 1.343.1 1.943.3a5.127 5.127 0 0 1 1.63.87c.482.38.88.844 1.196 1.393.315.546.528 1.17.639 1.873Zm5.067 9.051a4.005 4.005 0 0 1-1.687-.345 2.844 2.844 0 0 1-1.196-1.016c-.289-.443-.434-.987-.434-1.63 0-.554.106-1.01.319-1.368a2.36 2.36 0 0 1 .863-.85 4.5 4.5 0 0 1 1.215-.473 11.85 11.85 0 0 1 1.368-.243l1.431-.166c.367-.047.633-.122.799-.224.167-.102.25-.269.25-.499v-.044c0-.559-.158-.991-.473-1.298-.311-.307-.776-.46-1.394-.46-.643 0-1.15.143-1.521.428-.367.281-.62.595-.761.94l-1.796-.41c.213-.596.524-1.078.933-1.444.414-.37.889-.64 1.426-.805a5.561 5.561 0 0 1 1.694-.256c.392 0 .807.047 1.246.14.443.09.857.256 1.24.5.388.242.705.59.953 1.041.247.447.37 1.03.37 1.745V49h-1.866v-1.342h-.077a2.7 2.7 0 0 1-.556.728 2.959 2.959 0 0 1-.952.595c-.388.157-.853.236-1.394.236Zm.416-1.534c.528 0 .98-.104 1.355-.313.379-.209.667-.481.863-.818.2-.341.3-.705.3-1.093v-1.266c-.068.068-.2.132-.396.192a6.163 6.163 0 0 1-.659.147 80.04 80.04 0 0 1-.722.109l-.588.076a4.735 4.735 0 0 0-1.016.237c-.303.11-.546.27-.729.48-.179.204-.268.477-.268.817 0 .473.174.831.524 1.074.349.239.794.358 1.336.358Zm11.558-8.501v1.534h-5.363v-1.534h5.363Zm-3.925-2.352h1.912v9.287c0 .37.055.65.166.838a.866.866 0 0 0 .428.377c.179.064.373.096.582.096.153 0 .287-.011.402-.032l.269-.052.345 1.58a3.205 3.205 0 0 1-.473.127c-.205.047-.46.073-.767.077a3.36 3.36 0 0 1-1.406-.269 2.409 2.409 0 0 1-1.055-.869c-.268-.392-.403-.884-.403-1.477V36.83Zm10.165 12.368c-.967 0-1.8-.206-2.499-.62a4.202 4.202 0 0 1-1.611-1.758c-.375-.758-.562-1.647-.562-2.665 0-1.006.187-1.892.562-2.66.379-.766.908-1.365 1.585-1.795.682-.43 1.479-.646 2.391-.646.554 0 1.091.092 1.611.275.52.183.986.47 1.4.863.413.392.739.901.978 1.527.238.623.358 1.379.358 2.27v.677h-7.805v-1.432h5.932c0-.503-.103-.948-.307-1.336a2.321 2.321 0 0 0-.863-.926c-.366-.226-.797-.34-1.291-.34-.537 0-1.006.133-1.406.397-.397.26-.704.601-.921 1.023a2.953 2.953 0 0 0-.319 1.361v1.119c0 .656.115 1.214.345 1.675.234.46.56.812.978 1.054.417.239.905.358 1.463.358.363 0 .693-.05.991-.153.299-.107.556-.264.774-.473a2.06 2.06 0 0 0 .498-.774l1.809.326c-.145.533-.405 1-.78 1.4a3.77 3.77 0 0 1-1.4.927c-.558.218-1.195.326-1.911.326Zm10.45 3.688c-.78 0-1.451-.102-2.014-.306-.558-.205-1.014-.476-1.368-.812a3.407 3.407 0 0 1-.792-1.106l1.642-.678c.115.188.269.386.461.595.196.213.46.394.792.543.337.15.769.224 1.298.224.724 0 1.323-.177 1.796-.53.473-.35.71-.908.71-1.675v-1.93h-.122a4.317 4.317 0 0 1-.499.696c-.213.256-.507.477-.882.665-.375.187-.863.281-1.463.281-.776 0-1.475-.181-2.097-.543-.618-.367-1.108-.906-1.47-1.617-.358-.716-.537-1.596-.537-2.64s.177-1.94.53-2.685c.358-.746.848-1.317 1.471-1.713.622-.4 1.327-.601 2.115-.601.61 0 1.102.102 1.477.307.375.2.667.434.876.703.213.268.377.505.492.71h.14v-1.592h1.873v10.035c0 .844-.196 1.537-.588 2.078-.392.54-.922.941-1.591 1.201-.665.26-1.415.39-2.25.39Zm-.02-5.618c.55 0 1.015-.128 1.394-.384.383-.26.673-.63.869-1.112.201-.486.301-1.067.301-1.745 0-.66-.098-1.242-.294-1.745-.196-.503-.484-.895-.863-1.176-.38-.286-.848-.428-1.407-.428-.575 0-1.054.149-1.438.447-.383.294-.673.695-.869 1.202a4.77 4.77 0 0 0-.288 1.7c0 .643.098 1.208.294 1.694.196.486.486.865.87 1.138.387.272.865.409 1.431.409Zm11.148 1.93c-.92 0-1.724-.21-2.41-.633a4.272 4.272 0 0 1-1.598-1.77c-.379-.759-.568-1.645-.568-2.66 0-1.018.189-1.908.568-2.671.38-.763.912-1.355 1.598-1.777.686-.422 1.49-.633 2.41-.633.921 0 1.724.21 2.41.633a4.257 4.257 0 0 1 1.598 1.777c.379.763.569 1.653.569 2.672 0 1.014-.19 1.9-.569 2.659a4.265 4.265 0 0 1-1.598 1.77c-.686.422-1.489.633-2.41.633Zm.007-1.604c.596 0 1.091-.158 1.483-.473.392-.316.681-.735.869-1.26a5.002 5.002 0 0 0 .288-1.732 4.99 4.99 0 0 0-.288-1.726c-.188-.528-.477-.952-.869-1.272-.392-.32-.887-.479-1.483-.479-.601 0-1.1.16-1.496.48-.392.319-.684.743-.876 1.271a5.104 5.104 0 0 0-.281 1.726c0 .63.094 1.208.281 1.733.192.524.484.943.876 1.259.396.315.895.473 1.496.473ZM154.765 49v-9.818h1.848v1.56h.102c.179-.529.494-.944.946-1.247.456-.307.971-.46 1.547-.46a8.214 8.214 0 0 1 .812.045v1.828a3.451 3.451 0 0 0-.41-.07 3.894 3.894 0 0 0-.588-.045c-.451 0-.854.096-1.208.287a2.143 2.143 0 0 0-1.138 1.924V49h-1.911Zm8.415 3.682c-.285 0-.545-.024-.779-.07a2.454 2.454 0 0 1-.525-.141l.461-1.566c.349.094.66.134.933.121.273-.013.513-.115.722-.307.213-.191.401-.505.563-.94l.236-.651-3.592-9.946h2.045l2.487 7.62h.102l2.487-7.62h2.051l-4.046 11.128a4.424 4.424 0 0 1-.716 1.298 2.777 2.777 0 0 1-1.035.805c-.401.18-.865.269-1.394.269ZM177.085 49V35.91h4.794c.929 0 1.698.153 2.307.46.61.302 1.066.713 1.368 1.233a3.38 3.38 0 0 1 .454 1.745c0 .546-.1 1.006-.3 1.38a2.48 2.48 0 0 1-.806.896 3.548 3.548 0 0 1-1.099.485v.128a2.61 2.61 0 0 1 1.272.422c.417.256.763.62 1.035 1.093.273.473.409 1.048.409 1.726 0 .669-.157 1.27-.473 1.803-.311.528-.792.948-1.444 1.259-.652.307-1.485.46-2.5.46h-5.017Zm1.975-1.694h2.851c.946 0 1.623-.183 2.032-.55a1.77 1.77 0 0 0 .614-1.374c0-.413-.104-.792-.313-1.138a2.238 2.238 0 0 0-.895-.824c-.384-.205-.84-.307-1.368-.307h-2.921v4.193Zm0-5.734h2.646c.443 0 .842-.085 1.195-.255.358-.17.642-.41.851-.716a1.9 1.9 0 0 0 .319-1.1c0-.54-.189-.995-.569-1.361-.379-.367-.961-.55-1.745-.55h-2.697v3.982ZM188.709 49v-9.818h1.847v1.56h.102c.179-.529.495-.944.946-1.247.456-.307.972-.46 1.547-.46a8.214 8.214 0 0 1 .812.045v1.828a3.424 3.424 0 0 0-.409-.07 3.894 3.894 0 0 0-.588-.045 2.49 2.49 0 0 0-1.208.287 2.13 2.13 0 0 0-.831.787 2.123 2.123 0 0 0-.307 1.137V49h-1.911Zm10.788.198c-.968 0-1.801-.206-2.499-.62a4.202 4.202 0 0 1-1.611-1.758c-.375-.758-.563-1.647-.563-2.665 0-1.006.188-1.892.563-2.66.379-.766.907-1.365 1.585-1.795.682-.43 1.479-.646 2.391-.646.554 0 1.09.092 1.61.275.52.183.987.47 1.4.863.414.392.74.901.978 1.527.239.623.358 1.379.358 2.27v.677h-7.805v-1.432h5.932c0-.503-.102-.948-.307-1.336a2.319 2.319 0 0 0-.862-.926c-.367-.226-.797-.34-1.292-.34-.537 0-1.005.133-1.406.397-.396.26-.703.601-.92 1.023a2.95 2.95 0 0 0-.32 1.361v1.119c0 .656.115 1.214.345 1.675.235.46.561.812.978 1.054.418.239.906.358 1.464.358.362 0 .692-.05.991-.153a2.047 2.047 0 0 0 1.272-1.246l1.809.325c-.145.533-.405 1-.78 1.4a3.778 3.778 0 0 1-1.4.927c-.558.218-1.195.326-1.911.326Zm9.19.02a4.013 4.013 0 0 1-1.688-.346 2.847 2.847 0 0 1-1.195-1.016c-.29-.443-.435-.987-.435-1.63 0-.554.107-1.01.32-1.368a2.36 2.36 0 0 1 .863-.85 4.5 4.5 0 0 1 1.215-.473c.447-.107.903-.188 1.367-.243l1.432-.166c.367-.047.633-.122.799-.224.166-.102.25-.269.25-.499v-.044c0-.559-.158-.991-.473-1.298-.312-.307-.776-.46-1.394-.46-.643 0-1.151.143-1.521.428-.367.281-.62.595-.761.94l-1.796-.41c.213-.596.524-1.078.933-1.444.414-.37.889-.64 1.426-.805a5.56 5.56 0 0 1 1.693-.256c.393 0 .808.047 1.247.14.443.09.856.256 1.24.5.388.242.705.59.952 1.041.248.447.371 1.03.371 1.745V49h-1.866v-1.342h-.077c-.124.247-.309.49-.556.728a2.953 2.953 0 0 1-.953.595c-.387.157-.852.236-1.393.236Zm.415-1.535c.529 0 .981-.104 1.356-.313a2.19 2.19 0 0 0 .862-.818c.201-.341.301-.705.301-1.093v-1.266c-.068.068-.2.132-.396.192a6.219 6.219 0 0 1-.659.147 80.04 80.04 0 0 1-.722.109l-.588.076c-.371.047-.71.126-1.016.237-.303.11-.546.27-.729.48-.179.204-.269.477-.269.817 0 .473.175.831.525 1.074.349.239.794.358 1.335.358Zm8.734-2.013-.013-2.333h.332l3.912-4.155h2.288l-4.461 4.73h-.301l-1.757 1.758ZM216.078 49V35.91h1.911V49h-1.911Zm6.2 0-3.516-4.666 1.317-1.336L224.624 49h-2.346Zm7.09.192c-.792 0-1.5-.203-2.122-.608-.618-.409-1.103-.99-1.457-1.745-.35-.758-.524-1.668-.524-2.729 0-1.061.177-1.969.53-2.723.358-.754.848-1.332 1.47-1.732.623-.4 1.328-.601 2.116-.601.61 0 1.1.102 1.47.307.375.2.665.434.87.703.209.268.37.505.485.71h.116v-4.865h1.911V49h-1.867v-1.528h-.16a5.073 5.073 0 0 1-.498.716c-.213.269-.507.503-.882.703-.375.2-.861.3-1.458.3Zm.422-1.63c.55 0 1.015-.145 1.394-.435.383-.294.673-.7.869-1.22.2-.52.301-1.126.301-1.816 0-.682-.098-1.279-.295-1.79-.196-.511-.483-.91-.862-1.195-.38-.286-.848-.428-1.407-.428-.575 0-1.054.149-1.438.447-.383.298-.673.705-.869 1.22-.192.517-.288 1.098-.288 1.746 0 .656.098 1.246.294 1.77.196.525.486.94.869 1.247.388.303.866.454 1.432.454Zm11.306 1.636c-.92 0-1.723-.21-2.41-.633a4.272 4.272 0 0 1-1.598-1.77c-.379-.759-.568-1.645-.568-2.66 0-1.018.189-1.908.568-2.671.38-.763.912-1.355 1.598-1.777.687-.422 1.49-.633 2.41-.633.921 0 1.724.21 2.41.633a4.257 4.257 0 0 1 1.598 1.777c.379.763.569 1.653.569 2.672 0 1.014-.19 1.9-.569 2.659a4.265 4.265 0 0 1-1.598 1.77c-.686.422-1.489.633-2.41.633Zm.007-1.604c.596 0 1.091-.158 1.483-.473.392-.316.681-.735.869-1.26a5.002 5.002 0 0 0 .288-1.732 4.99 4.99 0 0 0-.288-1.726c-.188-.528-.477-.952-.869-1.272-.392-.32-.887-.479-1.483-.479-.601 0-1.1.16-1.496.48-.392.319-.684.743-.876 1.271a5.104 5.104 0 0 0-.281 1.726c0 .63.094 1.208.281 1.733.192.524.484.943.876 1.259.396.315.895.473 1.496.473ZM249.636 49l-2.889-9.818h1.975l1.924 7.21h.096l1.93-7.21h1.975l1.918 7.178h.096l1.911-7.178h1.975L257.664 49h-1.949l-1.994-7.089h-.147L251.579 49h-1.943Zm14.636-5.83V49h-1.911v-9.818h1.834v1.598h.122c.226-.52.579-.938 1.061-1.253.486-.315 1.097-.473 1.835-.473.669 0 1.255.14 1.757.422.503.277.893.69 1.17 1.24.277.55.416 1.23.416 2.039V49h-1.912v-6.015c0-.712-.185-1.268-.556-1.668-.37-.405-.88-.608-1.527-.608a2.39 2.39 0 0 0-1.183.288 2.073 2.073 0 0 0-.812.844c-.196.366-.294.81-.294 1.33ZM665.125 42a1.122 1.122 0 0 1-.694 1.04 1.126 1.126 0 1 1 .694-1.04ZM664 36.75a1.124 1.124 0 0 0 .219-2.228A1.126 1.126 0 1 0 664 36.75Zm0 10.5a1.124 1.124 0 0 0-.219 2.228A1.126 1.126 0 1 0 664 47.25Z"/><mask id="a" fill="#fff"><path d="M24 84h652v36H24V84Z"/></mask><path fill="#fff" d="M24 84h652v36H24V84Z"/><path fill="#F2F2F2" d="M676 119H24v2h652v-2Z" mask="url(#a)"/><path fill="#666" d="M30.733 101h-.88a1.837 1.837 0 0 0-.743-1.15 1.991 1.991 0 0 0-.607-.299 2.424 2.424 0 0 0-.696-.1c-.44 0-.84.112-1.197.335-.355.222-.638.55-.849.983-.208.433-.312.965-.312 1.595 0 .629.104 1.161.312 1.594.211.433.494.761.85.984.357.222.755.334 1.196.334.241 0 .473-.034.696-.1.222-.066.425-.164.607-.295a1.857 1.857 0 0 0 .742-1.154h.881a2.928 2.928 0 0 1-.362.998 2.72 2.72 0 0 1-1.53 1.215 3.285 3.285 0 0 1-1.034.159c-.62 0-1.172-.151-1.655-.454-.483-.303-.863-.734-1.14-1.293-.277-.558-.415-1.221-.415-1.988 0-.767.138-1.43.415-1.989.277-.559.657-.99 1.14-1.293.483-.303 1.035-.454 1.655-.454.367 0 .711.053 1.033.16.325.106.617.262.877.468a2.7 2.7 0 0 1 .654.746c.175.291.296.624.362.998Zm1.721 5h-.923l2.67-7.273h.91L37.78 106h-.923l-2.173-6.122h-.057L32.454 106Zm.341-2.841h3.722v.781h-3.722v-.781Zm4.871-3.65v-.782h5.455v.781h-2.287V106h-.88v-6.492h-2.288ZM44.48 106v-7.273h4.39v.781h-3.51v2.458h3.281v.781H45.36v2.472h3.565V106H44.48Zm10.948-5a2.58 2.58 0 0 0-.308-.643 1.976 1.976 0 0 0-.451-.49 1.893 1.893 0 0 0-.59-.309 2.35 2.35 0 0 0-.724-.106c-.431 0-.823.111-1.176.334-.353.222-.633.55-.842.983-.208.433-.312.965-.312 1.595 0 .629.105 1.161.316 1.594.21.433.496.761.856.984.36.222.765.334 1.214.334a2.21 2.21 0 0 0 1.101-.267c.32-.18.568-.433.746-.76.18-.329.27-.716.27-1.161l.27.057H53.61v-.781h2.77v.781c0 .599-.128 1.12-.383 1.562a2.649 2.649 0 0 1-1.051 1.03c-.446.242-.957.362-1.535.362-.644 0-1.21-.151-1.697-.454a3.062 3.062 0 0 1-1.136-1.293c-.27-.558-.405-1.221-.405-1.988 0-.576.077-1.093.23-1.552a3.46 3.46 0 0 1 .661-1.18c.284-.324.62-.572 1.009-.745.388-.173.815-.26 1.282-.26.383 0 .74.059 1.072.175a2.88 2.88 0 0 1 1.548 1.236c.175.288.296.609.362.962h-.909Zm8.597 1.364c0 .767-.139 1.43-.416 1.988-.277.559-.657.99-1.14 1.293-.483.303-1.034.454-1.654.454-.62 0-1.172-.151-1.655-.454-.483-.303-.863-.734-1.14-1.293-.277-.558-.416-1.221-.416-1.988 0-.767.139-1.43.416-1.989.277-.559.657-.99 1.14-1.293.483-.303 1.034-.454 1.655-.454.62 0 1.172.151 1.654.454.483.303.863.734 1.14 1.293.277.559.416 1.222.416 1.989Zm-.852 0c0-.63-.106-1.162-.317-1.595-.208-.433-.49-.761-.848-.984a2.2 2.2 0 0 0-1.193-.333c-.44 0-.84.111-1.197.334-.355.222-.638.55-.849.983-.208.433-.312.965-.312 1.595 0 .629.104 1.161.312 1.594.21.433.494.761.849.984.357.222.756.334 1.197.334.44 0 .838-.112 1.193-.334.357-.223.64-.551.848-.984.211-.433.317-.965.317-1.594ZM65.506 106v-7.273h2.457c.568 0 1.035.097 1.4.291.364.192.634.456.809.792.175.337.263.719.263 1.147a2.4 2.4 0 0 1-.263 1.14 1.854 1.854 0 0 1-.806.782c-.362.187-.825.28-1.389.28H65.99v-.795h1.96c.388 0 .7-.057.937-.171a1.07 1.07 0 0 0 .519-.483c.109-.21.163-.461.163-.753 0-.291-.054-.545-.163-.763a1.114 1.114 0 0 0-.522-.504c-.24-.121-.555-.181-.948-.181h-1.549V106h-.88Zm3.423-3.267 1.79 3.267h-1.023l-1.761-3.267h.994Zm2.104-4.006h1.008l2.018 3.395h.085l2.017-3.395h1.008l-2.627 4.276V106h-.881v-2.997l-2.628-4.276ZM194.881 106v-7.273h2.542c.507 0 .925.088 1.254.263.329.173.574.406.735.7.161.29.241.614.241.969 0 .313-.055.571-.166.774a1.295 1.295 0 0 1-.434.483c-.177.119-.37.206-.579.263v.071c.223.014.447.092.672.234.225.142.413.346.564.611.152.265.228.59.228.973 0 .365-.083.693-.249.984-.166.291-.427.522-.785.692-.357.171-.823.256-1.395.256h-2.628Zm.88-.781h1.748c.575 0 .983-.112 1.225-.334a1.07 1.07 0 0 0 .365-.817c0-.246-.062-.473-.188-.682a1.366 1.366 0 0 0-.536-.504 1.681 1.681 0 0 0-.824-.192h-1.79v2.529Zm0-3.296h1.634c.265 0 .504-.052.717-.156.216-.104.386-.251.512-.44.127-.19.191-.412.191-.668 0-.32-.111-.591-.333-.813-.223-.225-.576-.338-1.059-.338h-1.662v2.415Zm10.396-3.196h.881v4.816c0 .497-.117.941-.352 1.331a2.454 2.454 0 0 1-.983.92c-.424.223-.921.334-1.492.334-.57 0-1.067-.111-1.491-.334a2.478 2.478 0 0 1-.987-.92 2.554 2.554 0 0 1-.348-1.331v-4.816h.88v4.745c0 .355.078.671.235.948.156.274.378.491.667.65.291.156.639.234 1.044.234s.753-.078 1.044-.234c.292-.159.514-.376.668-.65.156-.277.234-.593.234-.948v-4.745Zm4.884 7.273h-2.244v-7.273h2.343c.706 0 1.31.146 1.812.437.501.289.886.704 1.154 1.247.267.539.401 1.186.401 1.938 0 .758-.135 1.41-.405 1.957a2.88 2.88 0 0 1-1.179 1.257c-.516.291-1.143.437-1.882.437Zm-1.364-.781h1.307c.602 0 1.1-.116 1.495-.348.396-.232.69-.563.884-.991.195-.429.292-.939.292-1.531 0-.587-.096-1.092-.288-1.516a2.122 2.122 0 0 0-.859-.98c-.382-.23-.856-.344-1.424-.344h-1.407v5.71ZM220.956 101a2.57 2.57 0 0 0-.309-.643 1.99 1.99 0 0 0-.451-.49 1.889 1.889 0 0 0-.59-.309 2.345 2.345 0 0 0-.724-.106 2.16 2.16 0 0 0-1.176.334c-.352.222-.633.55-.841.983-.208.433-.313.965-.313 1.595 0 .629.106 1.161.316 1.594.211.433.496.761.856.984.36.222.765.334 1.215.334.416 0 .783-.089 1.101-.267.319-.18.568-.433.745-.76.18-.329.27-.716.27-1.161l.27.057h-2.187v-.781h2.769v.781c0 .599-.127 1.12-.383 1.562a2.65 2.65 0 0 1-1.051 1.03c-.445.242-.957.362-1.534.362-.644 0-1.21-.151-1.698-.454a3.062 3.062 0 0 1-1.136-1.293c-.27-.558-.405-1.221-.405-1.988 0-.576.077-1.093.231-1.552.156-.462.376-.855.66-1.18a2.9 2.9 0 0 1 1.009-.745c.388-.173.816-.26 1.282-.26.383 0 .741.059 1.072.175a2.887 2.887 0 0 1 1.549 1.236c.175.288.296.609.362.962h-.909Zm2.46 5v-7.273h4.389v.781h-3.508v2.458h3.281v.781h-3.281v2.472h3.565V106h-4.446Zm5.579-6.492v-.78h5.454v.78h-2.287V106h-.88v-6.492h-2.287Zm69.863 1.037a1.114 1.114 0 0 0-.519-.838c-.303-.198-.674-.298-1.115-.298-.322 0-.603.052-.845.156a1.35 1.35 0 0 0-.561.43 1.032 1.032 0 0 0-.199.621.88.88 0 0 0 .139.501c.095.137.215.252.362.345.147.09.301.164.462.223.161.057.309.103.444.139l.738.199c.19.049.4.118.632.206.235.087.458.207.671.358.216.15.393.341.533.576.14.234.21.522.21.863 0 .393-.103.748-.309 1.065-.204.317-.502.569-.895.756-.391.187-.865.281-1.424.281-.521 0-.972-.084-1.353-.252a2.16 2.16 0 0 1-.895-.703 2.017 2.017 0 0 1-.366-1.048h.909c.024.275.116.502.277.682.164.177.37.31.618.398.251.085.521.127.81.127.336 0 .638-.054.905-.163.268-.111.48-.265.636-.462.156-.198.234-.43.234-.696 0-.241-.067-.438-.202-.589a1.474 1.474 0 0 0-.533-.369 5.563 5.563 0 0 0-.713-.249l-.895-.256c-.569-.163-1.018-.396-1.35-.699-.331-.303-.497-.7-.497-1.19 0-.407.11-.762.33-1.065.223-.306.521-.542.895-.71.377-.17.797-.256 1.261-.256.469 0 .885.084 1.25.252.364.166.653.393.866.682.216.289.329.617.341.983h-.852Zm2.4 5.455v-7.273h2.457c.571 0 1.037.103 1.399.31.365.203.635.479.81.827.175.348.263.736.263 1.164 0 .429-.088.818-.263 1.169-.173.35-.441.629-.803.838-.362.206-.826.309-1.392.309h-1.761v-.782h1.733c.39 0 .704-.067.941-.202s.408-.317.515-.547c.109-.232.163-.493.163-.785a1.8 1.8 0 0 0-.163-.781 1.172 1.172 0 0 0-.519-.54c-.239-.132-.556-.198-.951-.198h-1.549V106h-.88Zm6.347 0v-7.273h4.389v.781h-3.508v2.458h3.281v.781h-3.281v2.472h3.565V106h-4.446Zm11.744-7.273V106h-.852l-3.963-5.71h-.071V106h-.881v-7.273h.852l3.977 5.725h.071v-5.725h.867Zm1.364.781v-.78h5.455v.78h-2.287V106H323v-6.492h-2.287ZM394.881 106v-7.273h2.457c.571 0 1.037.103 1.399.31.365.203.635.479.81.827.175.348.263.736.263 1.164 0 .429-.088.818-.263 1.169-.173.35-.44.629-.803.838-.362.206-.826.309-1.392.309h-1.761v-.782h1.733c.39 0 .704-.067.941-.202s.408-.317.515-.547c.109-.232.163-.493.163-.785a1.8 1.8 0 0 0-.163-.781 1.172 1.172 0 0 0-.519-.54c-.239-.132-.556-.198-.951-.198h-1.549V106h-.88Zm6.347 0v-7.273h2.458c.568 0 1.034.097 1.399.291.364.192.634.456.81.792.175.337.262.719.262 1.147 0 .429-.087.809-.262 1.14a1.856 1.856 0 0 1-.807.782c-.362.187-.825.28-1.388.28h-1.989v-.795h1.961c.388 0 .7-.057.937-.171.239-.113.412-.274.518-.483.109-.21.164-.461.164-.753 0-.291-.055-.545-.164-.763a1.106 1.106 0 0 0-.522-.504c-.239-.121-.555-.181-.948-.181h-1.548V106h-.881Zm3.424-3.267 1.789 3.267h-1.022l-1.762-3.267h.995Zm9.109-.369c0 .767-.138 1.43-.415 1.988-.277.559-.657.99-1.14 1.293-.483.303-1.035.454-1.655.454-.62 0-1.172-.151-1.655-.454-.483-.303-.863-.734-1.14-1.293-.277-.558-.415-1.221-.415-1.988 0-.767.138-1.43.415-1.989.277-.559.657-.99 1.14-1.293.483-.303 1.035-.454 1.655-.454.62 0 1.172.151 1.655.454.483.303.863.734 1.14 1.293.277.559.415 1.222.415 1.989Zm-.852 0c0-.63-.105-1.162-.316-1.595-.208-.433-.491-.761-.849-.984a2.201 2.201 0 0 0-1.193-.333c-.44 0-.839.111-1.197.334-.355.222-.638.55-.848.983-.209.433-.313.965-.313 1.595 0 .629.104 1.161.313 1.594.21.433.493.761.848.984.358.222.757.334 1.197.334.44 0 .838-.112 1.193-.334.358-.223.641-.551.849-.984.211-.433.316-.965.316-1.594Zm7.305-1.364a2.641 2.641 0 0 0-.309-.643 1.99 1.99 0 0 0-.451-.49 1.9 1.9 0 0 0-.59-.309 2.345 2.345 0 0 0-.724-.106 2.16 2.16 0 0 0-1.176.334c-.352.222-.633.55-.841.983-.209.433-.313.965-.313 1.595 0 .629.106 1.161.316 1.594.211.433.496.761.856.984.36.222.765.334 1.215.334a2.21 2.21 0 0 0 1.1-.267c.32-.18.569-.433.746-.76.18-.329.27-.716.27-1.161l.27.057h-2.188v-.781h2.77v.781c0 .599-.128 1.12-.383 1.562a2.656 2.656 0 0 1-1.051 1.03c-.445.242-.957.362-1.534.362-.644 0-1.21-.151-1.698-.454a3.062 3.062 0 0 1-1.136-1.293c-.27-.558-.405-1.221-.405-1.988 0-.576.077-1.093.231-1.552.156-.462.376-.855.66-1.18a2.892 2.892 0 0 1 1.009-.745c.388-.173.815-.26 1.282-.26.383 0 .741.059 1.072.175a2.887 2.887 0 0 1 1.548 1.236c.176.288.296.609.363.962h-.909Zm2.46 5v-7.273h2.457c.568 0 1.035.097 1.399.291.365.192.635.456.81.792.175.337.263.719.263 1.147 0 .429-.088.809-.263 1.14a1.854 1.854 0 0 1-.806.782c-.362.187-.825.28-1.389.28h-1.988v-.795h1.96c.388 0 .701-.057.937-.171.239-.113.412-.274.519-.483.109-.21.163-.461.163-.753 0-.291-.054-.545-.163-.763a1.115 1.115 0 0 0-.522-.504c-.239-.121-.555-.181-.948-.181h-1.549V106h-.88Zm3.423-3.267 1.79 3.267h-1.023l-1.761-3.267h.994ZM429.07 106v-7.273h4.389v.781h-3.508v2.458h3.281v.781h-3.281v2.472h3.565V106h-4.446Zm9.954-5.455a1.116 1.116 0 0 0-.518-.838c-.304-.198-.675-.298-1.116-.298-.322 0-.603.052-.845.156a1.35 1.35 0 0 0-.561.43 1.032 1.032 0 0 0-.199.621.88.88 0 0 0 .139.501c.095.137.215.252.362.345.147.09.301.164.462.223.161.057.309.103.444.139l.738.199c.19.049.4.118.632.206.235.087.458.207.671.358.216.15.393.341.533.576.14.234.21.522.21.863 0 .393-.103.748-.309 1.065-.204.317-.502.569-.895.756-.391.187-.865.281-1.424.281-.521 0-.972-.084-1.353-.252a2.16 2.16 0 0 1-.895-.703 2.017 2.017 0 0 1-.366-1.048h.909c.024.275.116.502.277.682.164.177.37.31.618.398.251.085.521.127.81.127.336 0 .638-.054.905-.163.268-.111.48-.265.636-.462.156-.198.234-.43.234-.696 0-.241-.067-.438-.202-.589a1.474 1.474 0 0 0-.533-.369 5.563 5.563 0 0 0-.713-.249l-.895-.256c-.569-.163-1.018-.396-1.35-.699-.331-.303-.497-.7-.497-1.19 0-.407.11-.762.33-1.065.223-.306.521-.542.895-.71.377-.17.797-.256 1.261-.256.469 0 .885.084 1.25.252.364.166.653.393.866.682.216.289.329.617.341.983h-.852Zm6.377 0a1.117 1.117 0 0 0-.519-.838c-.303-.198-.674-.298-1.115-.298-.322 0-.603.052-.845.156a1.35 1.35 0 0 0-.561.43 1.032 1.032 0 0 0-.199.621.88.88 0 0 0 .139.501c.094.137.215.252.362.345.147.09.301.164.462.223.161.057.309.103.444.139l.738.199c.19.049.4.118.632.206.235.087.458.207.671.358.216.15.393.341.533.576.14.234.21.522.21.863 0 .393-.103.748-.309 1.065-.204.317-.502.569-.895.756-.391.187-.866.281-1.424.281-.521 0-.972-.084-1.353-.252a2.16 2.16 0 0 1-.895-.703 2.008 2.008 0 0 1-.366-1.048h.909c.024.275.116.502.277.682.164.177.37.31.618.398.251.085.521.127.81.127.336 0 .638-.054.905-.163.268-.111.48-.265.636-.462.156-.198.234-.43.234-.696 0-.241-.067-.438-.202-.589a1.474 1.474 0 0 0-.533-.369 5.525 5.525 0 0 0-.714-.249l-.894-.256c-.569-.163-1.018-.396-1.35-.699-.331-.303-.497-.7-.497-1.19 0-.407.11-.762.33-1.065.223-.306.521-.542.895-.71.377-.17.797-.256 1.261-.256.469 0 .885.084 1.25.252.364.166.653.393.866.682.216.289.329.617.341.983h-.852Z"/><mask id="b" fill="#fff"><path d="M24 120h652v58H24v-58Z"/></mask><path fill="#fff" d="M24 120h652v58H24v-58Z"/><path fill="#F2F2F2" d="M676 177H24v2h652v-2Z" mask="url(#b)"/><rect width="34" height="34" x="24" y="132" fill="#E6F2FF" rx="17"/><path fill="#0083FD" d="M48.182 144.139a.567.567 0 0 0-.432-.201H36.407l-.427-2.351a.56.56 0 0 0-.554-.462h-1.739a.56.56 0 0 0-.562.563.56.56 0 0 0 .563.562h1.265l1.797 9.864c.053.293.182.566.375.793a1.968 1.968 0 1 0 3.122.593h3.194a1.971 1.971 0 0 0 2.162 2.775 1.972 1.972 0 0 0 1.547-1.547 1.971 1.971 0 0 0-1.931-2.353H38.41a.56.56 0 0 1-.553-.462l-.223-1.225h8.156a1.69 1.69 0 0 0 1.66-1.386l.855-4.701a.566.566 0 0 0-.123-.462Zm-8.87 10.205a.845.845 0 1 1-1.69 0 .845.845 0 0 1 1.69 0Zm6.75 0a.845.845 0 1 1-1.69 0 .845.845 0 0 1 1.69 0Zm.282-5.243a.56.56 0 0 1-.556.461H37.43l-.818-4.5h10.464l-.732 4.039Z"/><path fill="#050505" d="M74.193 147.5a3.59 3.59 0 0 0-.432-.9 2.789 2.789 0 0 0-.632-.686 2.64 2.64 0 0 0-.825-.432c-.308-.1-.646-.15-1.014-.15a3.02 3.02 0 0 0-1.646.468c-.494.311-.886.77-1.178 1.377-.292.606-.438 1.35-.438 2.232 0 .882.148 1.626.443 2.232.295.607.694 1.066 1.198 1.377.504.312 1.07.468 1.7.468.584 0 1.097-.124 1.541-.373a2.647 2.647 0 0 0 1.044-1.064c.252-.461.378-1.003.378-1.626l.378.08h-3.062v-1.094h3.878v1.094c0 .838-.18 1.568-.537 2.187a3.705 3.705 0 0 1-1.472 1.442c-.623.338-1.339.507-2.148.507-.901 0-1.693-.212-2.376-.636-.68-.424-1.21-1.028-1.591-1.81-.378-.782-.567-1.71-.567-2.784 0-.805.108-1.53.323-2.172a4.807 4.807 0 0 1 .925-1.651 4.045 4.045 0 0 1 1.412-1.044 4.363 4.363 0 0 1 1.795-.363c.537 0 1.037.081 1.501.244.468.159.883.386 1.248.681.368.291.674.641.92 1.049a4 4 0 0 1 .507 1.347h-1.273Zm3.285 7v-7.636h1.134v1.153h.08c.138-.378.39-.684.755-.92a2.227 2.227 0 0 1 1.233-.353c.086 0 .194.002.323.005a5.3 5.3 0 0 1 .293.015v1.193a3.65 3.65 0 0 0-.273-.044 2.606 2.606 0 0 0-.443-.035c-.37 0-.702.078-.994.234a1.758 1.758 0 0 0-.686.636 1.714 1.714 0 0 0-.249.92v4.832h-1.173Zm8.079.159c-.69 0-1.294-.164-1.815-.492a3.342 3.342 0 0 1-1.213-1.377c-.288-.59-.432-1.28-.432-2.068 0-.796.144-1.49.432-2.084a3.344 3.344 0 0 1 1.213-1.382c.52-.328 1.126-.492 1.815-.492.69 0 1.293.164 1.81.492.52.329.924.789 1.213 1.382.291.594.437 1.288.437 2.084 0 .788-.146 1.478-.437 2.068a3.296 3.296 0 0 1-1.213 1.377c-.517.328-1.12.492-1.81.492Zm0-1.054c.524 0 .954-.134 1.293-.403.338-.268.588-.621.75-1.059a4.05 4.05 0 0 0 .244-1.421c0-.511-.081-.986-.244-1.427a2.405 2.405 0 0 0-.75-1.069c-.338-.272-.77-.408-1.293-.408-.524 0-.954.136-1.293.408a2.405 2.405 0 0 0-.75 1.069 4.095 4.095 0 0 0-.244 1.427c0 .51.081.984.244 1.421.162.438.412.791.75 1.059.339.269.77.403 1.293.403Zm8.353 1.054c-.715 0-1.332-.169-1.849-.507a3.306 3.306 0 0 1-1.193-1.397c-.278-.593-.418-1.271-.418-2.033 0-.776.143-1.46.428-2.054a3.384 3.384 0 0 1 1.203-1.397c.517-.338 1.12-.507 1.81-.507.537 0 1.02.1 1.451.298.431.199.784.478 1.06.836.274.358.445.775.511 1.253H95.74a1.822 1.822 0 0 0-.596-.925c-.306-.272-.716-.408-1.234-.408a2.06 2.06 0 0 0-1.203.358c-.341.235-.608.569-.8.999-.189.428-.283.93-.283 1.507 0 .59.092 1.104.278 1.541.189.438.454.777.795 1.019.345.242.75.363 1.213.363.305 0 .582-.053.83-.159a1.71 1.71 0 0 0 .632-.457c.172-.199.295-.438.368-.716h1.173a2.72 2.72 0 0 1-.492 1.218 2.75 2.75 0 0 1-1.029.855c-.424.209-.918.313-1.481.313Zm7.92 0c-.736 0-1.37-.162-1.904-.487a3.272 3.272 0 0 1-1.228-1.372c-.285-.59-.427-1.276-.427-2.059 0-.782.142-1.471.427-2.068.289-.6.69-1.067 1.203-1.402.517-.338 1.121-.507 1.81-.507.398 0 .79.066 1.178.199.388.133.741.348 1.059.646.318.295.572.686.761 1.174.189.487.283 1.087.283 1.799v.498h-5.886v-1.015h4.693c0-.431-.086-.815-.259-1.153a1.948 1.948 0 0 0-.725-.8c-.312-.196-.68-.294-1.104-.294-.467 0-.872.116-1.213.348a2.292 2.292 0 0 0-.78.895 2.628 2.628 0 0 0-.274 1.183v.676c0 .577.1 1.066.298 1.467.202.398.482.701.84.91.358.205.774.308 1.248.308.308 0 .587-.043.835-.129.252-.09.469-.222.652-.398.182-.179.323-.401.422-.666l1.134.318c-.119.385-.32.723-.602 1.014a2.905 2.905 0 0 1-1.044.676c-.414.16-.88.239-1.397.239Zm4.947-.159v-7.636h1.134v1.153h.079c.139-.378.391-.684.756-.92a2.224 2.224 0 0 1 1.233-.353c.086 0 .194.002.323.005.129.004.227.009.293.015v1.193a3.702 3.702 0 0 0-.273-.044 2.608 2.608 0 0 0-.443-.035c-.371 0-.702.078-.994.234a1.712 1.712 0 0 0-.935 1.556v4.832h-1.173Zm5.209 0v-7.636h1.173v7.636h-1.173Zm.597-8.909a.834.834 0 0 1-.592-.234.753.753 0 0 1-.244-.562.75.75 0 0 1 .244-.561.834.834 0 0 1 .592-.234c.228 0 .424.078.586.234a.741.741 0 0 1 .249.561.744.744 0 0 1-.249.562.815.815 0 0 1-.586.234Zm5.927 9.068c-.736 0-1.371-.162-1.904-.487a3.273 3.273 0 0 1-1.228-1.372c-.285-.59-.428-1.276-.428-2.059 0-.782.143-1.471.428-2.068.288-.6.689-1.067 1.203-1.402.517-.338 1.12-.507 1.81-.507.397 0 .79.066 1.178.199.388.133.741.348 1.059.646.318.295.572.686.76 1.174.189.487.284 1.087.284 1.799v.498h-5.886v-1.015h4.693c0-.431-.086-.815-.259-1.153a1.943 1.943 0 0 0-.726-.8c-.311-.196-.679-.294-1.103-.294-.468 0-.872.116-1.213.348a2.282 2.282 0 0 0-.781.895 2.632 2.632 0 0 0-.273 1.183v.676c0 .577.099 1.066.298 1.467.202.398.482.701.84.91.358.205.774.308 1.248.308.308 0 .587-.043.835-.129.252-.09.469-.222.651-.398.183-.179.324-.401.423-.666l1.134.318a2.51 2.51 0 0 1-.602 1.014c-.282.289-.63.514-1.044.676-.414.16-.88.239-1.397.239Zm10.356-6.085-1.054.298a1.93 1.93 0 0 0-.294-.512 1.42 1.42 0 0 0-.517-.418c-.218-.109-.498-.164-.84-.164-.467 0-.857.108-1.168.324-.308.212-.462.482-.462.81 0 .292.106.522.318.691.212.169.543.31.994.423l1.134.278c.682.166 1.191.419 1.526.761.335.338.502.774.502 1.307 0 .438-.126.829-.378 1.173-.248.345-.596.617-1.044.816-.447.199-.968.298-1.561.298-.779 0-1.424-.169-1.934-.507-.51-.338-.834-.832-.969-1.482l1.113-.278c.106.411.307.719.602.925.298.205.688.308 1.168.308.547 0 .981-.116 1.303-.348.324-.235.487-.517.487-.845a.887.887 0 0 0-.279-.666c-.185-.183-.47-.319-.855-.408l-1.272-.298c-.7-.166-1.213-.423-1.542-.771-.324-.351-.487-.79-.487-1.317 0-.431.121-.812.363-1.144.245-.331.579-.591.999-.78a3.511 3.511 0 0 1 1.442-.284c.756 0 1.349.166 1.78.497.434.332.742.769.925 1.313Zm69.191 7.199v-12.728h.815v12.728h-.815Zm2.744-8.909a1.562 1.562 0 0 0-.726-1.174c-.424-.278-.944-.417-1.561-.417-.451 0-.845.073-1.183.218a1.894 1.894 0 0 0-.786.602 1.445 1.445 0 0 0-.278.87c0 .272.065.506.194.701.133.192.302.353.507.482.206.126.421.231.646.314.226.079.433.144.622.193l1.034.279c.265.069.56.166.885.288.328.123.641.29.939.502.302.209.551.478.746.806.196.328.294.731.294 1.208 0 .55-.145 1.047-.433 1.491-.285.444-.703.797-1.253 1.059-.547.262-1.211.393-1.993.393-.73 0-1.361-.118-1.895-.353-.53-.235-.948-.563-1.252-.984a2.809 2.809 0 0 1-.513-1.467h1.273c.033.384.163.703.388.955a2.1 2.1 0 0 0 .865.556c.351.12.729.179 1.134.179.47 0 .893-.076 1.267-.228.375-.156.671-.372.89-.647.219-.278.328-.603.328-.974 0-.338-.094-.613-.283-.825a2.078 2.078 0 0 0-.746-.517 7.687 7.687 0 0 0-.999-.348l-1.253-.358c-.795-.229-1.425-.556-1.889-.98-.464-.424-.696-.979-.696-1.665 0-.57.154-1.068.462-1.492a3.073 3.073 0 0 1 1.253-.994 4.224 4.224 0 0 1 1.765-.358c.656 0 1.24.118 1.75.353.51.232.915.55 1.213.955.302.404.461.863.477 1.377h-1.193Zm6.363 7.775a3.493 3.493 0 0 1-1.576-.348 2.927 2.927 0 0 1-1.124-.954 2.595 2.595 0 0 1-.462-1.382h1.193c.046.46.255.841.626 1.143.375.298.822.447 1.343.447.417 0 .788-.097 1.113-.293.328-.195.585-.464.771-.805a2.39 2.39 0 0 0 .283-1.169c0-.444-.098-.84-.293-1.188a2.153 2.153 0 0 0-.796-.83 2.245 2.245 0 0 0-1.158-.308 3.148 3.148 0 0 0-.96.144 2.65 2.65 0 0 0-.81.373l-1.153-.139.616-5.012h5.29v1.094h-4.256l-.358 3.003h.06c.209-.166.471-.303.785-.413a2.99 2.99 0 0 1 .985-.164c.623 0 1.178.149 1.665.448.491.294.875.699 1.154 1.213.281.513.422 1.1.422 1.76 0 .649-.146 1.229-.437 1.74a3.204 3.204 0 0 1-1.193 1.203c-.507.291-1.084.437-1.73.437Zm8.656 0c-.749 0-1.387-.204-1.914-.611-.527-.411-.929-1.006-1.208-1.785-.278-.782-.417-1.727-.417-2.834 0-1.1.139-2.04.417-2.819.282-.782.686-1.379 1.213-1.79.531-.414 1.167-.621 1.909-.621.743 0 1.377.207 1.904.621.531.411.935 1.008 1.214 1.79.281.779.422 1.719.422 2.819 0 1.107-.139 2.052-.418 2.834-.278.779-.681 1.374-1.208 1.785-.527.407-1.165.611-1.914.611Zm0-1.094c.743 0 1.319-.358 1.73-1.073.411-.716.617-1.737.617-3.063 0-.882-.095-1.632-.283-2.252-.186-.62-.455-1.092-.806-1.417a1.776 1.776 0 0 0-1.258-.487c-.735 0-1.311.363-1.725 1.089-.414.722-.621 1.745-.621 3.067 0 .882.093 1.631.278 2.247.186.617.453 1.086.801 1.407.351.322.773.482 1.267.482Zm8.75 1.094c-.749 0-1.387-.204-1.914-.611-.527-.411-.929-1.006-1.208-1.785-.278-.782-.417-1.727-.417-2.834 0-1.1.139-2.04.417-2.819.282-.782.686-1.379 1.213-1.79.531-.414 1.167-.621 1.909-.621.743 0 1.377.207 1.904.621.531.411.935 1.008 1.214 1.79.281.779.422 1.719.422 2.819 0 1.107-.139 2.052-.418 2.834-.278.779-.681 1.374-1.208 1.785-.527.407-1.165.611-1.914.611Zm0-1.094c.743 0 1.319-.358 1.73-1.073.411-.716.617-1.737.617-3.063 0-.882-.095-1.632-.283-2.252-.186-.62-.455-1.092-.806-1.417a1.776 1.776 0 0 0-1.258-.487c-.735 0-1.311.363-1.725 1.089-.414.722-.621 1.745-.621 3.067 0 .882.093 1.631.278 2.247.186.617.453 1.086.801 1.407.351.322.773.482 1.267.482Zm73.487 2.228v-12.728h.815v12.728h-.815Zm2.744-8.909a1.562 1.562 0 0 0-.726-1.174c-.424-.278-.944-.417-1.561-.417-.451 0-.845.073-1.183.218a1.894 1.894 0 0 0-.786.602 1.445 1.445 0 0 0-.278.87c0 .272.065.506.194.701.133.192.302.353.507.482.206.126.421.231.646.314.226.079.433.144.622.193l1.034.279c.265.069.56.166.885.288.328.123.641.29.939.502.302.209.551.478.746.806.196.328.294.731.294 1.208 0 .55-.145 1.047-.433 1.491-.285.444-.703.797-1.253 1.059-.547.262-1.211.393-1.993.393-.73 0-1.361-.118-1.895-.353-.53-.235-.948-.563-1.252-.984a2.809 2.809 0 0 1-.513-1.467h1.273c.033.384.163.703.388.955a2.1 2.1 0 0 0 .865.556c.351.12.729.179 1.134.179.47 0 .893-.076 1.267-.228.375-.156.671-.372.89-.647.219-.278.328-.603.328-.974 0-.338-.094-.613-.283-.825a2.078 2.078 0 0 0-.746-.517 7.687 7.687 0 0 0-.999-.348l-1.253-.358c-.795-.229-1.425-.556-1.889-.98-.464-.424-.696-.979-.696-1.665 0-.57.154-1.068.462-1.492a3.073 3.073 0 0 1 1.253-.994 4.224 4.224 0 0 1 1.765-.358c.656 0 1.24.118 1.75.353.51.232.915.55 1.213.955.302.404.461.863.477 1.377h-1.193Zm6.621 7.775c-.656 0-1.241-.112-1.755-.338a3.007 3.007 0 0 1-1.218-.939 2.528 2.528 0 0 1-.487-1.407h1.253c.026.328.139.611.338.85.199.235.459.417.78.547.322.129.678.193 1.069.193.438 0 .825-.076 1.164-.228.338-.153.603-.365.795-.637.192-.271.288-.586.288-.944a1.77 1.77 0 0 0-.278-.99 1.85 1.85 0 0 0-.815-.676c-.358-.162-.796-.243-1.313-.243h-.815v-1.094h.815a2.44 2.44 0 0 0 1.064-.219 1.71 1.71 0 0 0 .721-.616 1.65 1.65 0 0 0 .263-.935c0-.345-.076-.645-.228-.9a1.562 1.562 0 0 0-.647-.596 2.085 2.085 0 0 0-.974-.214c-.351 0-.683.064-.994.194-.309.126-.561.31-.756.552a1.429 1.429 0 0 0-.318.865h-1.193c.019-.534.18-1.001.482-1.402.301-.405.696-.72 1.183-.945a3.83 3.83 0 0 1 1.616-.338c.63 0 1.17.128 1.621.383.45.252.797.585 1.039.999.242.414.363.862.363 1.342 0 .574-.151 1.063-.453 1.467a2.294 2.294 0 0 1-1.218.84v.08c.643.106 1.145.379 1.506.82.362.438.542.979.542 1.626 0 .553-.15 1.05-.452 1.491a3.068 3.068 0 0 1-1.223 1.034c-.517.252-1.105.378-1.765.378Zm5.792-.139 4.554-9.009v-.079h-5.25v-1.094h6.523v1.154l-4.534 9.028h-1.293Zm10.725.139a3.496 3.496 0 0 1-1.576-.348 2.935 2.935 0 0 1-1.124-.954 2.612 2.612 0 0 1-.462-1.382h1.193c.047.46.255.841.627 1.143.374.298.822.447 1.342.447.418 0 .789-.097 1.114-.293.328-.195.585-.464.77-.805.189-.345.284-.734.284-1.169 0-.444-.098-.84-.294-1.188a2.15 2.15 0 0 0-.795-.83 2.246 2.246 0 0 0-1.159-.308 3.142 3.142 0 0 0-.959.144c-.328.096-.598.22-.811.373l-1.153-.139.617-5.012h5.289v1.094h-4.255l-.358 3.003h.059c.209-.166.471-.303.786-.413.315-.109.643-.164.984-.164.623 0 1.179.149 1.666.448.49.294.875.699 1.153 1.213.282.513.423 1.1.423 1.76 0 .649-.146 1.229-.438 1.74a3.197 3.197 0 0 1-1.193 1.203c-.507.291-1.084.437-1.73.437Z"/><rect width="200" height="8" x="394" y="145" fill="#EDF9EC" rx="4"/><rect width="150" height="8" x="394" y="145" fill="#42AB3B" rx="4"/><path fill="#050505" d="m610.372 154.5 4.554-9.009v-.079h-5.25v-1.094h6.523v1.154l-4.534 9.028h-1.293Zm10.725.139a3.496 3.496 0 0 1-1.576-.348 2.924 2.924 0 0 1-1.123-.954 2.604 2.604 0 0 1-.463-1.382h1.193c.047.46.256.841.627 1.143.374.298.822.447 1.342.447.418 0 .789-.097 1.114-.293.328-.195.585-.464.77-.805.189-.345.284-.734.284-1.169 0-.444-.098-.84-.294-1.188a2.15 2.15 0 0 0-.795-.83 2.245 2.245 0 0 0-1.158-.308 3.143 3.143 0 0 0-.96.144 2.65 2.65 0 0 0-.81.373l-1.154-.139.617-5.012h5.29v1.094h-4.256l-.358 3.003h.06c.208-.166.47-.303.785-.413.315-.109.643-.164.984-.164.624 0 1.179.149 1.666.448.49.294.875.699 1.153 1.213.282.513.423 1.1.423 1.76 0 .649-.146 1.229-.438 1.74a3.197 3.197 0 0 1-1.193 1.203c-.507.291-1.084.437-1.73.437Zm10.526-2.048v-.537c0-.371.076-.711.229-1.019.156-.312.381-.56.676-.746.298-.189.66-.283 1.084-.283.431 0 .792.094 1.084.283.291.186.512.434.661.746.149.308.224.648.224 1.019v.537c0 .371-.077.713-.229 1.024a1.807 1.807 0 0 1-.666.746c-.292.185-.65.278-1.074.278-.431 0-.794-.093-1.089-.278a1.84 1.84 0 0 1-.671-.746 2.29 2.29 0 0 1-.229-1.024Zm1.014-.537v.537c0 .308.073.585.219.83.146.242.398.363.756.363.348 0 .593-.121.736-.363a1.6 1.6 0 0 0 .218-.83v-.537c0-.308-.069-.583-.208-.825-.14-.246-.388-.368-.746-.368-.348 0-.598.122-.751.368a1.542 1.542 0 0 0-.224.825Zm-6.085-5.29v-.537c0-.371.076-.711.229-1.019.156-.311.381-.56.676-.746.298-.189.66-.283 1.084-.283.431 0 .792.094 1.084.283.291.186.512.435.661.746.149.308.224.648.224 1.019v.537c0 .371-.077.713-.229 1.024a1.8 1.8 0 0 1-.666.746c-.292.186-.65.278-1.074.278-.431 0-.794-.092-1.089-.278a1.834 1.834 0 0 1-.671-.746 2.29 2.29 0 0 1-.229-1.024Zm1.014-.537v.537c0 .308.073.585.219.83.146.242.398.363.756.363.348 0 .593-.121.736-.363a1.6 1.6 0 0 0 .218-.83v-.537c0-.308-.069-.583-.208-.825-.14-.245-.388-.368-.746-.368-.348 0-.598.123-.751.368a1.542 1.542 0 0 0-.224.825Zm-.636 8.273 7-10.182h1.134l-7 10.182h-1.134Zm21.676-10.182h1.233v6.742c0 .696-.164 1.317-.492 1.864a3.448 3.448 0 0 1-1.377 1.288c-.593.311-1.289.467-2.088.467-.799 0-1.495-.156-2.088-.467a3.474 3.474 0 0 1-1.382-1.288c-.325-.547-.488-1.168-.488-1.864v-6.742h1.233v6.642c0 .497.11.94.328 1.328.219.384.531.687.935.909.408.219.895.329 1.462.329s1.054-.11 1.461-.329c.408-.222.72-.525.935-.909.219-.388.328-.831.328-1.328v-6.642Zm8.945 4.256-1.054.298a1.954 1.954 0 0 0-.293-.512 1.43 1.43 0 0 0-.517-.418c-.219-.109-.499-.164-.84-.164-.468 0-.857.108-1.169.324-.308.212-.462.482-.462.81 0 .292.106.522.318.691.212.169.544.31.995.423l1.133.278c.683.166 1.192.419 1.526.761.335.338.503.774.503 1.307 0 .438-.126.829-.378 1.173-.249.345-.597.617-1.044.816-.448.199-.968.298-1.561.298-.779 0-1.424-.169-1.934-.507-.511-.338-.834-.832-.97-1.482l1.114-.278c.106.411.306.719.601.925.299.205.688.308 1.169.308.547 0 .981-.116 1.302-.348.325-.235.487-.517.487-.845a.886.886 0 0 0-.278-.666c-.186-.183-.471-.319-.855-.408l-1.273-.298c-.699-.166-1.213-.423-1.541-.771-.325-.351-.487-.79-.487-1.317 0-.431.121-.812.363-1.144a2.47 2.47 0 0 1 .999-.78 3.508 3.508 0 0 1 1.442-.284c.755 0 1.349.166 1.78.497.434.332.742.769.924 1.313Zm5.107 6.085c-.735 0-1.37-.162-1.904-.487a3.28 3.28 0 0 1-1.228-1.372c-.285-.59-.427-1.276-.427-2.059 0-.782.142-1.471.427-2.068.289-.6.69-1.067 1.203-1.402.517-.338 1.121-.507 1.81-.507.398 0 .791.066 1.178.199.388.133.741.348 1.059.646.318.295.572.686.761 1.174.189.487.283 1.087.283 1.799v.498h-5.886v-1.015h4.693c0-.431-.086-.815-.258-1.153a1.943 1.943 0 0 0-.726-.8c-.312-.196-.68-.294-1.104-.294-.467 0-.872.116-1.213.348a2.298 2.298 0 0 0-.781.895 2.632 2.632 0 0 0-.273 1.183v.676c0 .577.099 1.066.298 1.467.202.398.483.701.841.91.357.205.773.308 1.247.308.309 0 .587-.043.836-.129.252-.09.469-.222.651-.398.182-.179.323-.401.422-.666l1.134.318c-.119.385-.32.723-.602 1.014a2.905 2.905 0 0 1-1.044.676c-.414.16-.88.239-1.397.239Zm7.831 0c-.637 0-1.199-.161-1.686-.482-.487-.325-.868-.782-1.143-1.372-.275-.594-.413-1.295-.413-2.103 0-.802.138-1.498.413-2.088.275-.59.658-1.046 1.148-1.368.491-.321 1.058-.482 1.701-.482.497 0 .889.083 1.178.249.291.162.514.348.666.557.156.205.277.374.363.507h.099v-3.759h1.174V154.5h-1.134v-1.173h-.139a7.523 7.523 0 0 1-.368.527 2.182 2.182 0 0 1-.681.561c-.295.163-.688.244-1.178.244Zm.159-1.054c.47 0 .868-.123 1.193-.368.325-.248.572-.591.741-1.029.169-.441.253-.949.253-1.526 0-.57-.083-1.069-.248-1.497-.166-.431-.411-.765-.736-1.004-.325-.242-.726-.363-1.203-.363-.497 0-.912.128-1.243.383a2.296 2.296 0 0 0-.741 1.029 4.102 4.102 0 0 0-.244 1.452c0 .543.083 1.037.249 1.481.169.441.418.792.746 1.054.331.259.742.388 1.233.388Z"/><mask id="c" fill="#fff"><path d="M24 178h652v58H24v-58Z"/></mask><path fill="#fff" d="M24 178h652v58H24v-58Z"/><path fill="#F2F2F2" d="M676 235H24v2h652v-2Z" mask="url(#c)"/><rect width="34" height="34" x="24" y="190" fill="#F8ECF8" rx="17"/><path fill="#B742BD" d="M47.188 200.812H34.812a1.125 1.125 0 0 0-1.124 1.126v10.124a1.125 1.125 0 0 0 1.124 1.126h12.376a1.125 1.125 0 0 0 1.124-1.126v-10.124a1.125 1.125 0 0 0-1.124-1.126Zm-12.376 3.376h5.626v5.624h-5.626v-5.624Zm6.75-1.126v-1.124h2.25v1.124h-2.25Zm-1.124 0h-2.25v-1.124h2.25v1.124Zm0 7.876v1.124h-2.25v-1.124h2.25Zm1.124 0h2.25v1.124h-2.25v-1.124Zm0-1.126v-5.624h5.626v5.624h-5.626Zm5.626-6.75h-2.25v-1.124h2.25v1.124Zm-10.126-1.124v1.124h-2.25v-1.124h2.25Zm-2.25 9h2.25v1.124h-2.25v-1.124Zm12.376 1.124h-2.25v-1.124h2.25v1.124Z"/><path fill="#050505" d="M67.233 212.5v-10.182h6.145v1.094h-4.912v3.44h4.594v1.094h-4.594v3.46h4.991v1.094h-6.224Zm9.381-4.594v4.594h-1.173v-7.636h1.134v1.193h.099c.179-.388.45-.7.815-.935.365-.238.836-.358 1.412-.358.517 0 .97.106 1.358.318.387.209.689.527.904.955.216.424.324.961.324 1.611v4.852h-1.174v-4.773c0-.6-.156-1.067-.467-1.402-.312-.338-.74-.507-1.283-.507-.374 0-.71.081-1.004.244a1.738 1.738 0 0 0-.691.711c-.17.311-.254.689-.254 1.133Zm10.337-3.042v.994h-3.957v-.994h3.957Zm-2.803-1.83h1.173v7.278c0 .332.048.581.144.746.1.163.225.272.378.328.156.053.32.08.492.08.13 0 .235-.007.318-.02l.2-.04.238 1.054c-.08.03-.19.06-.333.09a2.466 2.466 0 0 1-.542.049c-.332 0-.656-.071-.975-.213a1.938 1.938 0 0 1-.785-.652c-.206-.291-.309-.659-.309-1.103v-7.597Zm7.688 9.625c-.736 0-1.37-.162-1.904-.487a3.273 3.273 0 0 1-1.228-1.372c-.285-.59-.427-1.276-.427-2.059 0-.782.142-1.471.427-2.068.288-.6.69-1.067 1.203-1.402.517-.338 1.12-.507 1.81-.507.398 0 .79.066 1.178.199.388.133.74.348 1.059.646.318.295.572.686.76 1.174.19.487.284 1.087.284 1.799v.498h-5.886v-1.015h4.693a2.5 2.5 0 0 0-.259-1.153 1.943 1.943 0 0 0-.726-.8c-.311-.196-.679-.294-1.103-.294-.468 0-.872.116-1.213.348a2.291 2.291 0 0 0-.78.895 2.628 2.628 0 0 0-.274 1.183v.676c0 .577.1 1.066.298 1.467.202.398.482.701.84.91.358.205.774.308 1.248.308.308 0 .587-.043.835-.129a1.79 1.79 0 0 0 .652-.398c.182-.179.323-.401.422-.666l1.134.318a2.51 2.51 0 0 1-.602 1.014c-.282.289-.63.514-1.044.676-.414.16-.88.239-1.397.239Zm4.947-.159v-7.636h1.133v1.153h.08a1.84 1.84 0 0 1 .756-.92 2.227 2.227 0 0 1 1.233-.353c.086 0 .193.002.323.005.129.004.227.009.293.015v1.193a3.702 3.702 0 0 0-.273-.044 2.616 2.616 0 0 0-.443-.035c-.371 0-.703.078-.994.234a1.758 1.758 0 0 0-.686.636 1.714 1.714 0 0 0-.249.92v4.832h-1.173Zm9.008-7.636v.994h-3.957v-.994h3.957Zm-2.804-1.83h1.174v7.278c0 .332.048.581.144.746a.739.739 0 0 0 .378.328c.155.053.32.08.492.08.129 0 .235-.007.318-.02l.199-.04.239 1.054c-.08.03-.191.06-.334.09a2.459 2.459 0 0 1-.541.049c-.332 0-.657-.071-.975-.213a1.931 1.931 0 0 1-.785-.652c-.206-.291-.309-.659-.309-1.103v-7.597Zm6.816 9.645c-.483 0-.923-.091-1.317-.273a2.269 2.269 0 0 1-.94-.801c-.232-.351-.348-.775-.348-1.273 0-.437.087-.792.259-1.064.172-.275.403-.49.691-.646.288-.156.606-.272.954-.348.352-.079.705-.142 1.059-.189.464-.059.841-.104 1.129-.134.292-.033.504-.088.636-.164.136-.076.204-.209.204-.398v-.04c0-.49-.134-.871-.403-1.143-.265-.272-.667-.408-1.208-.408-.56 0-.999.123-1.317.368-.318.245-.542.507-.671.786l-1.114-.398c.199-.464.464-.825.796-1.084a2.977 2.977 0 0 1 1.093-.547 4.547 4.547 0 0 1 1.174-.159c.245 0 .527.03.845.09.321.056.631.174.929.353.302.179.552.449.751.81.199.361.298.845.298 1.452v5.031h-1.173v-1.034h-.06a2.059 2.059 0 0 1-.397.532c-.186.189-.433.35-.741.482-.308.133-.684.199-1.129.199Zm.179-1.054c.464 0 .856-.091 1.174-.273.321-.183.563-.418.726-.706.165-.289.248-.592.248-.91v-1.074c-.05.06-.159.114-.328.164a5.534 5.534 0 0 1-.577.124c-.215.033-.426.063-.631.09-.202.023-.366.043-.492.059-.305.04-.59.105-.855.194a1.475 1.475 0 0 0-.637.393c-.159.172-.238.408-.238.706 0 .408.15.716.452.925.305.205.691.308 1.158.308Zm5.463.875v-7.636h1.173v7.636h-1.173Zm.597-8.909a.834.834 0 0 1-.592-.234.753.753 0 0 1-.244-.562.75.75 0 0 1 .244-.561.834.834 0 0 1 .592-.234c.228 0 .424.078.586.234a.741.741 0 0 1 .249.561.744.744 0 0 1-.249.562.815.815 0 0 1-.586.234Zm3.899 4.315v4.594h-1.174v-7.636h1.134v1.193H120c.179-.388.451-.7.816-.935.364-.238.835-.358 1.411-.358.517 0 .97.106 1.358.318.387.209.689.527.905.955.215.424.323.961.323 1.611v4.852h-1.174v-4.773c0-.6-.155-1.067-.467-1.402-.312-.338-.739-.507-1.283-.507-.374 0-.709.081-1.004.244a1.736 1.736 0 0 0-.691.711c-.169.311-.253.689-.253 1.133Zm7.016 4.594v-7.636h1.133v1.193h.1c.159-.408.416-.724.77-.95.355-.228.781-.343 1.278-.343.504 0 .923.115 1.258.343.338.226.601.542.79.95h.08a2.22 2.22 0 0 1 .88-.94c.391-.235.86-.353 1.407-.353.682 0 1.241.214 1.675.642.434.424.651 1.085.651 1.983v5.111h-1.173v-5.111c0-.563-.154-.966-.462-1.208a1.71 1.71 0 0 0-1.089-.363c-.537 0-.953.163-1.248.487-.295.322-.442.73-.442 1.223v4.972h-1.194v-5.23c0-.434-.14-.784-.422-1.049-.282-.269-.645-.403-1.089-.403-.305 0-.59.081-.855.244a1.833 1.833 0 0 0-.636.676 1.997 1.997 0 0 0-.239.989v4.773h-1.173Zm15.369.159c-.735 0-1.37-.162-1.904-.487a3.28 3.28 0 0 1-1.228-1.372c-.285-.59-.427-1.276-.427-2.059 0-.782.142-1.471.427-2.068.289-.6.69-1.067 1.203-1.402.517-.338 1.121-.507 1.81-.507.398 0 .791.066 1.178.199.388.133.741.348 1.059.646.318.295.572.686.761 1.174.189.487.283 1.087.283 1.799v.498h-5.886v-1.015h4.693c0-.431-.086-.815-.258-1.153a1.943 1.943 0 0 0-.726-.8c-.312-.196-.68-.294-1.104-.294-.467 0-.872.116-1.213.348a2.298 2.298 0 0 0-.781.895 2.632 2.632 0 0 0-.273 1.183v.676c0 .577.099 1.066.298 1.467.202.398.483.701.84.91.358.205.774.308 1.248.308.309 0 .587-.043.836-.129.251-.09.469-.222.651-.398.182-.179.323-.401.422-.666l1.134.318c-.119.385-.32.723-.602 1.014a2.905 2.905 0 0 1-1.044.676c-.414.16-.88.239-1.397.239Zm6.12-4.753v4.594h-1.173v-7.636h1.134v1.193h.099c.179-.388.451-.7.815-.935.365-.238.836-.358 1.412-.358.517 0 .97.106 1.358.318.387.209.689.527.904.955.216.424.324.961.324 1.611v4.852h-1.174v-4.773c0-.6-.156-1.067-.467-1.402-.312-.338-.739-.507-1.283-.507-.374 0-.709.081-1.004.244a1.736 1.736 0 0 0-.691.711c-.169.311-.254.689-.254 1.133Zm10.338-3.042v.994h-3.958v-.994h3.958Zm-2.804-1.83h1.173v7.278c0 .332.048.581.144.746a.739.739 0 0 0 .378.328c.156.053.32.08.492.08.129 0 .235-.007.318-.02l.199-.04.239 1.054a2.469 2.469 0 0 1-.875.139c-.332 0-.656-.071-.975-.213a1.938 1.938 0 0 1-.785-.652c-.206-.291-.308-.659-.308-1.103v-7.597Zm42.077 10.739v-12.728h.815v12.728h-.815Zm2.744-8.909a1.562 1.562 0 0 0-.726-1.174c-.424-.278-.944-.417-1.561-.417-.451 0-.845.073-1.183.218a1.894 1.894 0 0 0-.786.602 1.445 1.445 0 0 0-.278.87c0 .272.065.506.194.701.133.192.302.353.507.482.206.126.421.231.646.314.226.079.433.144.622.193l1.034.279c.265.069.56.166.885.288.328.123.641.29.939.502.302.209.551.478.746.806.196.328.294.731.294 1.208 0 .55-.145 1.047-.433 1.491-.285.444-.703.797-1.253 1.059-.547.262-1.211.393-1.993.393-.73 0-1.361-.118-1.895-.353-.53-.235-.948-.563-1.252-.984a2.809 2.809 0 0 1-.513-1.467h1.273c.033.384.163.703.388.955a2.1 2.1 0 0 0 .865.556c.351.12.729.179 1.134.179.47 0 .893-.076 1.267-.228.375-.156.671-.372.89-.647.219-.278.328-.603.328-.974 0-.338-.094-.613-.283-.825a2.078 2.078 0 0 0-.746-.517 7.687 7.687 0 0 0-.999-.348l-1.253-.358c-.795-.229-1.425-.556-1.889-.98-.464-.424-.696-.979-.696-1.665 0-.57.154-1.068.462-1.492a3.073 3.073 0 0 1 1.253-.994 4.224 4.224 0 0 1 1.765-.358c.656 0 1.24.118 1.75.353.51.232.915.55 1.213.955.302.404.461.863.477 1.377h-1.193Zm3.181 7.636v-.895l3.361-3.679c.394-.431.719-.805.974-1.123.255-.322.444-.624.567-.905.126-.285.189-.584.189-.895 0-.358-.087-.668-.259-.93a1.67 1.67 0 0 0-.696-.606 2.248 2.248 0 0 0-.994-.214c-.391 0-.733.081-1.024.243-.289.16-.512.383-.672.672a2.109 2.109 0 0 0-.233 1.014h-1.174c0-.597.138-1.12.413-1.571.275-.451.65-.802 1.124-1.054a3.384 3.384 0 0 1 1.606-.378c.596 0 1.125.126 1.585.378.461.252.822.591 1.084 1.019.262.428.393.903.393 1.427 0 .374-.068.741-.204 1.099-.132.354-.364.75-.696 1.188-.328.434-.784.964-1.367 1.591l-2.287 2.446v.079h4.733v1.094h-6.423Zm11.797.139c-.749 0-1.387-.204-1.914-.611-.527-.411-.929-1.006-1.208-1.785-.278-.782-.417-1.727-.417-2.834 0-1.1.139-2.04.417-2.819.282-.782.686-1.379 1.213-1.79.531-.414 1.167-.621 1.909-.621.743 0 1.377.207 1.904.621.531.411.935 1.008 1.213 1.79.282.779.423 1.719.423 2.819 0 1.107-.139 2.052-.418 2.834-.278.779-.681 1.374-1.208 1.785-.527.407-1.165.611-1.914.611Zm0-1.094c.743 0 1.319-.358 1.73-1.073.411-.716.617-1.737.617-3.063 0-.882-.095-1.632-.283-2.252-.186-.62-.455-1.092-.806-1.417a1.776 1.776 0 0 0-1.258-.487c-.735 0-1.311.363-1.725 1.089-.414.722-.621 1.745-.621 3.067 0 .882.093 1.631.278 2.247.186.617.453 1.086.801 1.407.351.322.773.482 1.267.482Zm8.75 1.094c-.749 0-1.387-.204-1.914-.611-.527-.411-.929-1.006-1.208-1.785-.278-.782-.417-1.727-.417-2.834 0-1.1.139-2.04.417-2.819.282-.782.686-1.379 1.213-1.79.531-.414 1.167-.621 1.909-.621.743 0 1.377.207 1.904.621.531.411.935 1.008 1.213 1.79.282.779.423 1.719.423 2.819 0 1.107-.139 2.052-.418 2.834-.278.779-.681 1.374-1.208 1.785-.527.407-1.165.611-1.914.611Zm0-1.094c.743 0 1.319-.358 1.73-1.073.411-.716.617-1.737.617-3.063 0-.882-.095-1.632-.283-2.252-.186-.62-.455-1.092-.806-1.417a1.776 1.776 0 0 0-1.258-.487c-.735 0-1.311.363-1.725 1.089-.414.722-.621 1.745-.621 3.067 0 .882.093 1.631.278 2.247.186.617.453 1.086.801 1.407.351.322.773.482 1.267.482Zm73.528 2.228v-12.728h.815v12.728h-.815Zm2.744-8.909a1.562 1.562 0 0 0-.726-1.174c-.424-.278-.944-.417-1.561-.417-.451 0-.845.073-1.183.218a1.894 1.894 0 0 0-.786.602 1.445 1.445 0 0 0-.278.87c0 .272.065.506.194.701.133.192.302.353.507.482.206.126.421.231.646.314.226.079.433.144.622.193l1.034.279c.265.069.56.166.885.288.328.123.641.29.939.502.302.209.551.478.746.806.196.328.294.731.294 1.208 0 .55-.145 1.047-.433 1.491-.285.444-.703.797-1.253 1.059-.547.262-1.211.393-1.993.393-.73 0-1.361-.118-1.895-.353-.53-.235-.948-.563-1.252-.984a2.809 2.809 0 0 1-.513-1.467h1.273c.033.384.163.703.388.955a2.1 2.1 0 0 0 .865.556c.351.12.729.179 1.134.179.47 0 .893-.076 1.267-.228.375-.156.671-.372.89-.647.219-.278.328-.603.328-.974 0-.338-.094-.613-.283-.825a2.078 2.078 0 0 0-.746-.517 7.687 7.687 0 0 0-.999-.348l-1.253-.358c-.795-.229-1.425-.556-1.889-.98-.464-.424-.696-.979-.696-1.665 0-.57.154-1.068.462-1.492a3.073 3.073 0 0 1 1.253-.994 4.224 4.224 0 0 1 1.765-.358c.656 0 1.24.118 1.75.353.51.232.915.55 1.213.955.302.404.461.863.477 1.377h-1.193Zm6.76-2.546V212.5h-1.233v-8.889h-.059l-2.486 1.65v-1.252l2.545-1.691h1.233Zm2.929 10.182v-.895l3.36-3.679c.395-.431.72-.805.975-1.123.255-.322.444-.624.567-.905.125-.285.188-.584.188-.895 0-.358-.086-.668-.258-.93a1.67 1.67 0 0 0-.696-.606 2.251 2.251 0 0 0-.994-.214c-.392 0-.733.081-1.025.243-.288.16-.512.383-.671.672a2.097 2.097 0 0 0-.233 1.014h-1.174c0-.597.138-1.12.413-1.571.275-.451.65-.802 1.124-1.054a3.382 3.382 0 0 1 1.605-.378c.597 0 1.126.126 1.586.378.461.252.822.591 1.084 1.019.262.428.393.903.393 1.427 0 .374-.068.741-.204 1.099-.133.354-.365.75-.696 1.188-.328.434-.784.964-1.367 1.591l-2.287 2.446v.079h4.733v1.094h-6.423Zm11.797.139c-.749 0-1.387-.204-1.914-.611-.527-.411-.93-1.006-1.208-1.785-.278-.782-.418-1.727-.418-2.834 0-1.1.14-2.04.418-2.819.282-.782.686-1.379 1.213-1.79.53-.414 1.167-.621 1.909-.621.743 0 1.377.207 1.904.621.531.411.935 1.008 1.213 1.79.282.779.423 1.719.423 2.819 0 1.107-.139 2.052-.418 2.834-.278.779-.681 1.374-1.208 1.785-.527.407-1.165.611-1.914.611Zm0-1.094c.743 0 1.319-.358 1.73-1.073.411-.716.617-1.737.617-3.063 0-.882-.095-1.632-.284-2.252-.185-.62-.454-1.092-.805-1.417a1.776 1.776 0 0 0-1.258-.487c-.736 0-1.311.363-1.725 1.089-.414.722-.621 1.745-.621 3.067 0 .882.092 1.631.278 2.247.186.617.452 1.086.8 1.407.352.322.774.482 1.268.482Z"/><rect width="200" height="8" x="394" y="203" fill="#E6F2FF" rx="4"/><rect width="120" height="8" x="394" y="203" fill="#0083FD" rx="4"/><path fill="#050505" d="M612.435 212.639a3.801 3.801 0 0 1-1.253-.238 3.012 3.012 0 0 1-1.144-.771c-.344-.365-.621-.857-.83-1.477-.209-.623-.313-1.405-.313-2.346 0-.902.084-1.7.253-2.396.169-.7.415-1.288.736-1.765.322-.481.71-.846 1.164-1.094a3.177 3.177 0 0 1 1.546-.373c.57 0 1.077.114 1.521.343.448.225.812.54 1.094.945.282.404.464.87.547 1.397h-1.213a2.252 2.252 0 0 0-.657-1.139c-.324-.301-.755-.452-1.292-.452-.789 0-1.411.343-1.865 1.029-.45.686-.677 1.649-.681 2.888h.08a3 3 0 0 1 1.516-1.188 2.98 2.98 0 0 1 .99-.164c.583 0 1.116.146 1.6.438.484.288.872.687 1.164 1.198.291.507.437 1.088.437 1.745 0 .629-.141 1.206-.422 1.73a3.22 3.22 0 0 1-1.189 1.243c-.507.305-1.103.454-1.789.447Zm0-1.094a2.06 2.06 0 0 0 1.123-.313c.335-.209.598-.489.791-.84.195-.351.293-.742.293-1.173 0-.421-.094-.804-.283-1.149a2.17 2.17 0 0 0-.771-.83 2.043 2.043 0 0 0-1.114-.308 2.07 2.07 0 0 0-.88.189c-.271.122-.51.291-.715.507a2.424 2.424 0 0 0-.478.741 2.355 2.355 0 0 0 .895 2.853c.335.216.714.323 1.139.323Zm8.676 1.094c-.749 0-1.387-.204-1.914-.611-.527-.411-.929-1.006-1.208-1.785-.278-.782-.417-1.727-.417-2.834 0-1.1.139-2.04.417-2.819.282-.782.686-1.379 1.213-1.79.531-.414 1.167-.621 1.909-.621.743 0 1.377.207 1.904.621.531.411.935 1.008 1.214 1.79.281.779.422 1.719.422 2.819 0 1.107-.139 2.052-.418 2.834-.278.779-.681 1.374-1.208 1.785-.527.407-1.165.611-1.914.611Zm0-1.094c.743 0 1.319-.358 1.73-1.073.411-.716.617-1.737.617-3.063 0-.882-.095-1.632-.283-2.252-.186-.62-.455-1.092-.806-1.417a1.776 1.776 0 0 0-1.258-.487c-.735 0-1.311.363-1.725 1.089-.414.722-.621 1.745-.621 3.067 0 .882.093 1.631.278 2.247.186.617.453 1.086.801 1.407.351.322.773.482 1.267.482Zm10.62-.954v-.537c0-.371.076-.711.228-1.019.156-.312.381-.56.676-.746.299-.189.66-.283 1.084-.283.431 0 .792.094 1.084.283.292.186.512.434.661.746.149.308.224.648.224 1.019v.537c0 .371-.076.713-.229 1.024a1.807 1.807 0 0 1-.666.746c-.292.185-.649.278-1.074.278-.431 0-.794-.093-1.088-.278a1.85 1.85 0 0 1-.672-.746 2.302 2.302 0 0 1-.228-1.024Zm1.014-.537v.537c0 .308.073.585.219.83.145.242.397.363.755.363.348 0 .594-.121.736-.363a1.59 1.59 0 0 0 .219-.83v-.537c0-.308-.07-.583-.209-.825-.139-.246-.388-.368-.746-.368-.348 0-.598.122-.75.368-.15.242-.224.517-.224.825Zm-6.085-5.29v-.537c0-.371.076-.711.228-1.019.156-.311.381-.56.676-.746.299-.189.66-.283 1.084-.283.431 0 .792.094 1.084.283.292.186.512.435.661.746.149.308.224.648.224 1.019v.537c0 .371-.076.713-.229 1.024a1.8 1.8 0 0 1-.666.746c-.292.186-.649.278-1.074.278-.431 0-.794-.092-1.089-.278a1.848 1.848 0 0 1-.671-.746 2.302 2.302 0 0 1-.228-1.024Zm1.014-.537v.537c0 .308.073.585.219.83.145.242.397.363.755.363.348 0 .594-.121.736-.363a1.59 1.59 0 0 0 .219-.83v-.537c0-.308-.07-.583-.209-.825-.139-.245-.388-.368-.746-.368-.348 0-.598.123-.75.368-.15.242-.224.517-.224.825Zm-.637 8.273 7-10.182h1.134l-7 10.182h-1.134Zm21.677-10.182h1.233v6.742c0 .696-.165 1.317-.493 1.864a3.435 3.435 0 0 1-1.377 1.288c-.593.311-1.289.467-2.088.467-.799 0-1.495-.156-2.088-.467a3.481 3.481 0 0 1-1.382-1.288c-.325-.547-.487-1.168-.487-1.864v-6.742h1.233v6.642c0 .497.109.94.328 1.328.219.384.53.687.935.909.407.219.894.329 1.461.329.567 0 1.054-.11 1.462-.329.407-.222.719-.525.934-.909.219-.388.329-.831.329-1.328v-6.642Zm8.945 4.256-1.054.298a1.959 1.959 0 0 0-.294-.512 1.43 1.43 0 0 0-.517-.418c-.218-.109-.498-.164-.84-.164-.467 0-.857.108-1.168.324-.308.212-.462.482-.462.81 0 .292.106.522.318.691.212.169.543.31.994.423l1.134.278c.682.166 1.191.419 1.526.761.335.338.502.774.502 1.307 0 .438-.126.829-.378 1.173-.248.345-.596.617-1.044.816-.447.199-.968.298-1.561.298-.779 0-1.424-.169-1.934-.507-.51-.338-.834-.832-.969-1.482l1.113-.278c.106.411.307.719.602.925.298.205.688.308 1.168.308.547 0 .981-.116 1.303-.348.324-.235.487-.517.487-.845a.887.887 0 0 0-.279-.666c-.185-.183-.47-.319-.855-.408l-1.272-.298c-.7-.166-1.213-.423-1.542-.771-.324-.351-.487-.79-.487-1.317 0-.431.121-.812.363-1.144.245-.331.579-.591.999-.78a3.511 3.511 0 0 1 1.442-.284c.756 0 1.349.166 1.78.497.434.332.742.769.925 1.313Zm5.107 6.085c-.736 0-1.371-.162-1.904-.487a3.266 3.266 0 0 1-1.228-1.372c-.285-.59-.428-1.276-.428-2.059 0-.782.143-1.471.428-2.068.288-.6.689-1.067 1.203-1.402.517-.338 1.12-.507 1.809-.507.398 0 .791.066 1.179.199s.741.348 1.059.646c.318.295.571.686.76 1.174.189.487.284 1.087.284 1.799v.498h-5.887v-1.015h4.694c0-.431-.087-.815-.259-1.153a1.943 1.943 0 0 0-.726-.8c-.311-.196-.679-.294-1.104-.294-.467 0-.871.116-1.213.348a2.288 2.288 0 0 0-.78.895 2.632 2.632 0 0 0-.274 1.183v.676c0 .577.1 1.066.299 1.467.202.398.482.701.84.91.358.205.774.308 1.248.308.308 0 .586-.043.835-.129.252-.09.469-.222.651-.398.183-.179.323-.401.423-.666l1.133.318a2.497 2.497 0 0 1-.601 1.014c-.282.289-.63.514-1.044.676-.414.16-.88.239-1.397.239Zm7.83 0c-.636 0-1.198-.161-1.685-.482-.488-.325-.869-.782-1.144-1.372-.275-.594-.412-1.295-.412-2.103 0-.802.137-1.498.412-2.088.275-.59.658-1.046 1.149-1.368.49-.321 1.057-.482 1.7-.482.497 0 .89.083 1.178.249.292.162.514.348.666.557.156.205.277.374.363.507h.1v-3.759h1.173V212.5h-1.133v-1.173h-.14a7.195 7.195 0 0 1-.368.527 2.182 2.182 0 0 1-.681.561c-.295.163-.687.244-1.178.244Zm.159-1.054c.471 0 .869-.123 1.193-.368.325-.248.572-.591.741-1.029.169-.441.254-.949.254-1.526 0-.57-.083-1.069-.249-1.497-.166-.431-.411-.765-.736-1.004-.325-.242-.726-.363-1.203-.363-.497 0-.911.128-1.243.383a2.296 2.296 0 0 0-.741 1.029 4.102 4.102 0 0 0-.243 1.452c0 .543.083 1.037.248 1.481.169.441.418.792.746 1.054.332.259.743.388 1.233.388Z"/><mask id="d" fill="#fff"><path d="M24 236h652v58H24v-58Z"/></mask><path fill="#fff" d="M24 236h652v58H24v-58Z"/><path fill="#F2F2F2" d="M676 293H24v2h652v-2Z" mask="url(#d)"/><rect width="34" height="34" x="24" y="248" fill="#FAFAFA" rx="17"/><path fill="#050505" d="M48.875 263.312h-.76l-1.953-4.394a1.12 1.12 0 0 0-1.028-.668h-8.268a1.121 1.121 0 0 0-1.028.668l-1.954 4.394h-.759a.565.565 0 0 0-.398.961.565.565 0 0 0 .398.165h.563v5.624a1.125 1.125 0 0 0 1.124 1.126H36.5a1.125 1.125 0 0 0 1.125-1.126v-1.124h6.75v1.124a1.125 1.125 0 0 0 1.125 1.126h1.688a1.125 1.125 0 0 0 1.124-1.126v-5.624h.563a.565.565 0 0 0 .398-.961.565.565 0 0 0-.398-.165Zm-12.01-3.937h8.27l1.75 3.937h-11.77l1.75-3.937Zm-.365 10.687h-1.688v-1.124H36.5v1.124Zm9 0v-1.124h1.688v1.124H45.5Zm1.688-2.25H34.812v-3.374h12.376v3.374Zm-11.25-1.687a.564.564 0 0 1 .562-.563h1.125a.565.565 0 0 1 .398.961.565.565 0 0 1-.398.165H36.5a.565.565 0 0 1-.563-.563Zm7.874 0a.564.564 0 0 1 .563-.563H45.5a.565.565 0 0 1 .398.961.565.565 0 0 1-.398.165h-1.125a.565.565 0 0 1-.563-.563Zm22.864-4.713v-1.094h7.636v1.094h-3.201v9.088h-1.233v-9.088h-3.202Zm8.587 9.088v-7.636h1.134v1.153h.08c.139-.378.39-.684.755-.92a2.227 2.227 0 0 1 1.233-.353c.086 0 .194.002.323.005.13.004.227.009.294.015v1.193a3.667 3.667 0 0 0-.274-.044 2.606 2.606 0 0 0-.442-.035c-.372 0-.703.078-.995.234a1.756 1.756 0 0 0-.686.636 1.714 1.714 0 0 0-.248.92v4.832h-1.174Zm7.456.179c-.483 0-.923-.091-1.317-.273a2.265 2.265 0 0 1-.94-.801c-.232-.351-.348-.775-.348-1.273 0-.437.087-.792.259-1.064a1.83 1.83 0 0 1 .69-.646c.29-.156.608-.272.956-.348.35-.079.704-.142 1.058-.189.464-.059.84-.104 1.129-.134.292-.033.504-.088.636-.164.136-.076.204-.209.204-.398v-.04c0-.49-.134-.871-.403-1.143-.265-.272-.667-.408-1.208-.408-.56 0-.999.123-1.317.368-.318.245-.542.507-.671.786l-1.114-.398c.199-.464.464-.825.796-1.084a2.977 2.977 0 0 1 1.093-.547 4.543 4.543 0 0 1 1.174-.159c.245 0 .527.03.845.09.321.056.631.174.93.353.301.179.551.449.75.81.199.361.298.845.298 1.452v5.031h-1.173v-1.034h-.06a2.059 2.059 0 0 1-.397.532c-.186.189-.433.35-.741.482-.308.133-.684.199-1.129.199Zm.18-1.054c.463 0 .855-.091 1.173-.273.321-.183.563-.418.726-.706.165-.289.248-.592.248-.91v-1.074c-.05.06-.159.114-.328.164a5.521 5.521 0 0 1-.577.124c-.215.033-.426.063-.631.09-.202.023-.366.043-.492.059-.305.04-.59.105-.855.194a1.47 1.47 0 0 0-.637.393c-.159.172-.238.408-.238.706 0 .408.15.716.452.925.305.205.691.308 1.158.308Zm6.635-3.719v4.594h-1.173v-7.636h1.133v1.193h.1c.179-.388.45-.7.815-.935.365-.238.835-.358 1.412-.358.517 0 .97.106 1.357.318.388.209.69.527.905.955.216.424.323.961.323 1.611v4.852h-1.173v-4.773c0-.6-.156-1.067-.467-1.402-.312-.338-.74-.507-1.283-.507-.374 0-.71.081-1.004.244a1.738 1.738 0 0 0-.691.711c-.17.311-.254.689-.254 1.133Zm12.426-1.332-1.054.298a1.987 1.987 0 0 0-.294-.512 1.43 1.43 0 0 0-.517-.418c-.219-.109-.499-.164-.84-.164-.467 0-.857.108-1.168.324-.309.212-.463.482-.463.81 0 .292.106.522.319.691.212.169.543.31.994.423l1.133.278c.683.166 1.192.419 1.527.761.334.338.502.774.502 1.307 0 .438-.126.829-.378 1.173-.249.345-.597.617-1.044.816-.448.199-.968.298-1.561.298-.78 0-1.424-.169-1.934-.507-.51-.338-.834-.832-.97-1.482l1.114-.278c.106.411.307.719.602.925.298.205.687.308 1.168.308.547 0 .981-.116 1.302-.348.325-.235.488-.517.488-.845a.887.887 0 0 0-.279-.666c-.185-.183-.47-.319-.855-.408l-1.273-.298c-.699-.166-1.213-.423-1.54-.771-.326-.351-.488-.79-.488-1.317 0-.431.121-.812.363-1.144a2.474 2.474 0 0 1 1-.78 3.508 3.508 0 0 1 1.441-.284c.756 0 1.349.166 1.78.497.434.332.742.769.925 1.313Zm1.905 8.79v-10.5h1.133v1.213h.14c.086-.133.205-.302.358-.507.155-.209.377-.395.666-.557.291-.166.686-.249 1.183-.249.643 0 1.21.161 1.7.482.491.322.874.778 1.149 1.368.275.59.412 1.286.412 2.088 0 .808-.137 1.509-.412 2.103-.275.59-.657 1.047-1.144 1.372-.487.321-1.049.482-1.685.482-.491 0-.883-.081-1.178-.244a2.182 2.182 0 0 1-.681-.561 7.195 7.195 0 0 1-.368-.527h-.1v4.037h-1.173Zm1.153-6.682c0 .577.085 1.085.254 1.526.169.438.416.781.741 1.029.324.245.722.368 1.193.368.49 0 .9-.129 1.228-.388.331-.262.58-.613.746-1.054.169-.444.253-.938.253-1.481 0-.537-.083-1.021-.249-1.452a2.243 2.243 0 0 0-.74-1.029c-.328-.255-.741-.383-1.238-.383-.477 0-.879.121-1.203.363-.325.239-.57.573-.736 1.004-.166.428-.249.927-.249 1.497Zm10.48 3.977c-.689 0-1.294-.164-1.814-.492a3.338 3.338 0 0 1-1.213-1.377c-.289-.59-.433-1.28-.433-2.068 0-.796.144-1.49.433-2.084a3.34 3.34 0 0 1 1.213-1.382c.52-.328 1.125-.492 1.814-.492.69 0 1.293.164 1.81.492.52.329.925.789 1.213 1.382.292.594.438 1.288.438 2.084 0 .788-.146 1.478-.438 2.068a3.296 3.296 0 0 1-1.213 1.377c-.517.328-1.12.492-1.81.492Zm0-1.054c.524 0 .955-.134 1.293-.403.338-.268.588-.621.751-1.059.162-.437.243-.911.243-1.421 0-.511-.081-.986-.243-1.427a2.411 2.411 0 0 0-.751-1.069c-.338-.272-.769-.408-1.293-.408-.523 0-.954.136-1.292.408a2.403 2.403 0 0 0-.751 1.069 4.104 4.104 0 0 0-.244 1.427c0 .51.082.984.244 1.421.162.438.413.791.751 1.059.338.269.769.403 1.292.403Zm5.252.895v-7.636h1.133v1.153h.08c.139-.378.391-.684.755-.92a2.229 2.229 0 0 1 1.233-.353c.087 0 .194.002.324.005.129.004.227.009.293.015v1.193a3.667 3.667 0 0 0-.274-.044 2.597 2.597 0 0 0-.442-.035c-.371 0-.703.078-.994.234a1.712 1.712 0 0 0-.935 1.556v4.832h-1.173Zm9.008-7.636v.994h-3.957v-.994h3.957Zm-2.804-1.83h1.173v7.278c0 .332.049.581.145.746a.739.739 0 0 0 .378.328c.155.053.319.08.492.08.129 0 .235-.007.318-.02l.199-.04.238 1.054c-.079.03-.19.06-.333.09a2.463 2.463 0 0 1-.542.049c-.331 0-.656-.071-.974-.213a1.94 1.94 0 0 1-.786-.652c-.205-.291-.308-.659-.308-1.103v-7.597Zm6.816 9.645c-.484 0-.923-.091-1.317-.273a2.263 2.263 0 0 1-.94-.801c-.232-.351-.348-.775-.348-1.273 0-.437.086-.792.259-1.064a1.82 1.82 0 0 1 .691-.646c.288-.156.606-.272.954-.348.352-.079.705-.142 1.059-.189.464-.059.84-.104 1.129-.134.291-.033.504-.088.636-.164.136-.076.204-.209.204-.398v-.04c0-.49-.134-.871-.403-1.143-.265-.272-.668-.408-1.208-.408-.56 0-.999.123-1.317.368-.319.245-.542.507-.671.786l-1.114-.398c.199-.464.464-.825.795-1.084.335-.262.7-.444 1.094-.547a4.546 4.546 0 0 1 1.173-.159c.246 0 .527.03.846.09.321.056.631.174.929.353.302.179.552.449.751.81.199.361.298.845.298 1.452v5.031h-1.173v-1.034h-.06a2.059 2.059 0 0 1-.397.532c-.186.189-.433.35-.741.482-.308.133-.685.199-1.129.199Zm.179-1.054c.464 0 .855-.091 1.174-.273a1.867 1.867 0 0 0 .974-1.616v-1.074c-.05.06-.159.114-.328.164a5.534 5.534 0 0 1-.577.124c-.215.033-.426.063-.631.09a36.4 36.4 0 0 0-.492.059 4.56 4.56 0 0 0-.856.194 1.471 1.471 0 0 0-.636.393c-.159.172-.239.408-.239.706 0 .408.151.716.453.925.305.205.691.308 1.158.308Zm8.784-6.761v.994h-3.958v-.994h3.958Zm-2.804-1.83h1.173v7.278c0 .332.048.581.144.746.1.163.226.272.378.328.156.053.32.08.492.08.13 0 .236-.007.318-.02l.199-.04.239 1.054a2.469 2.469 0 0 1-.875.139c-.331 0-.656-.071-.974-.213a1.94 1.94 0 0 1-.786-.652c-.205-.291-.308-.659-.308-1.103v-7.597Zm4.569 9.466v-7.636h1.173v7.636h-1.173Zm.596-8.909a.832.832 0 0 1-.591-.234.75.75 0 0 1-.244-.562c0-.218.081-.406.244-.561a.832.832 0 0 1 .591-.234c.229 0 .425.078.587.234a.741.741 0 0 1 .249.561.744.744 0 0 1-.249.562.816.816 0 0 1-.587.234Zm5.828 9.068c-.689 0-1.294-.164-1.814-.492a3.338 3.338 0 0 1-1.213-1.377c-.289-.59-.433-1.28-.433-2.068 0-.796.144-1.49.433-2.084a3.34 3.34 0 0 1 1.213-1.382c.52-.328 1.125-.492 1.814-.492.69 0 1.293.164 1.81.492.52.329.925.789 1.213 1.382.292.594.437 1.288.437 2.084 0 .788-.145 1.478-.437 2.068a3.296 3.296 0 0 1-1.213 1.377c-.517.328-1.12.492-1.81.492Zm0-1.054c.524 0 .955-.134 1.293-.403.338-.268.588-.621.751-1.059.162-.437.243-.911.243-1.421 0-.511-.081-.986-.243-1.427a2.411 2.411 0 0 0-.751-1.069c-.338-.272-.769-.408-1.293-.408-.523 0-.954.136-1.292.408a2.403 2.403 0 0 0-.751 1.069 4.104 4.104 0 0 0-.244 1.427c0 .51.082.984.244 1.421.162.438.413.791.751 1.059.338.269.769.403 1.292.403Zm6.425-3.699v4.594h-1.174v-7.636h1.134v1.193h.099c.179-.388.451-.7.816-.935.364-.238.835-.358 1.412-.358.517 0 .969.106 1.357.318.388.209.689.527.905.955.215.424.323.961.323 1.611v4.852h-1.173v-4.773c0-.6-.156-1.067-.468-1.402-.311-.338-.739-.507-1.282-.507-.375 0-.71.081-1.005.244a1.742 1.742 0 0 0-.691.711c-.169.311-.253.689-.253 1.133Zm40.71 5.867v-12.728h.815v12.728h-.815Zm2.744-8.909a1.562 1.562 0 0 0-.726-1.174c-.424-.278-.944-.417-1.561-.417-.451 0-.845.073-1.183.218a1.894 1.894 0 0 0-.786.602 1.445 1.445 0 0 0-.278.87c0 .272.065.506.194.701.133.192.302.353.507.482.206.126.421.231.646.314.226.079.433.144.622.193l1.034.279c.265.069.56.166.885.288.328.123.641.29.939.502.302.209.551.478.746.806.196.328.294.731.294 1.208 0 .55-.145 1.047-.433 1.491-.285.444-.703.797-1.253 1.059-.547.262-1.211.393-1.993.393-.73 0-1.361-.118-1.895-.353-.53-.235-.948-.563-1.252-.984a2.809 2.809 0 0 1-.513-1.467h1.273c.033.384.163.703.388.955a2.1 2.1 0 0 0 .865.556c.351.12.729.179 1.134.179.47 0 .893-.076 1.267-.228.375-.156.671-.372.89-.647.219-.278.328-.603.328-.974 0-.338-.094-.613-.283-.825a2.078 2.078 0 0 0-.746-.517 7.687 7.687 0 0 0-.999-.348l-1.253-.358c-.795-.229-1.425-.556-1.889-.98-.464-.424-.696-.979-.696-1.665 0-.57.154-1.068.462-1.492a3.073 3.073 0 0 1 1.253-.994 4.224 4.224 0 0 1 1.765-.358c.656 0 1.24.118 1.75.353.51.232.915.55 1.213.955.302.404.461.863.477 1.377h-1.193Zm6.76-2.546V270.5h-1.233v-8.889h-.059l-2.486 1.65v-1.252l2.545-1.691h1.233Zm6.11 10.321a3.499 3.499 0 0 1-1.576-.348 2.924 2.924 0 0 1-1.123-.954 2.604 2.604 0 0 1-.463-1.382h1.194c.046.46.255.841.626 1.143.375.298.822.447 1.342.447.418 0 .789-.097 1.114-.293.328-.195.585-.464.771-.805.188-.345.283-.734.283-1.169 0-.444-.098-.84-.293-1.188a2.16 2.16 0 0 0-.796-.83 2.245 2.245 0 0 0-1.158-.308 3.143 3.143 0 0 0-.96.144 2.65 2.65 0 0 0-.81.373l-1.153-.139.616-5.012h5.29v1.094h-4.256l-.358 3.003h.06c.209-.166.47-.303.785-.413a2.99 2.99 0 0 1 .985-.164c.623 0 1.178.149 1.665.448.491.294.875.699 1.154 1.213.281.513.422 1.1.422 1.76 0 .649-.146 1.229-.437 1.74a3.2 3.2 0 0 1-1.194 1.203c-.507.291-1.083.437-1.73.437Zm8.657 0c-.749 0-1.387-.204-1.914-.611-.527-.411-.93-1.006-1.208-1.785-.278-.782-.418-1.727-.418-2.834 0-1.1.14-2.04.418-2.819.282-.782.686-1.379 1.213-1.79.53-.414 1.167-.621 1.909-.621.743 0 1.377.207 1.904.621.531.411.935 1.008 1.213 1.79.282.779.423 1.719.423 2.819 0 1.107-.139 2.052-.418 2.834-.278.779-.681 1.374-1.208 1.785-.527.407-1.165.611-1.914.611Zm0-1.094c.743 0 1.319-.358 1.73-1.073.411-.716.617-1.737.617-3.063 0-.882-.095-1.632-.284-2.252-.185-.62-.454-1.092-.805-1.417a1.776 1.776 0 0 0-1.258-.487c-.736 0-1.311.363-1.725 1.089-.414.722-.621 1.745-.621 3.067 0 .882.092 1.631.278 2.247.186.617.452 1.086.8 1.407.352.322.774.482 1.268.482Zm75.729 2.228v-12.728h.815v12.728h-.815Zm2.744-8.909a1.562 1.562 0 0 0-.726-1.174c-.424-.278-.944-.417-1.561-.417-.451 0-.845.073-1.183.218a1.894 1.894 0 0 0-.786.602 1.445 1.445 0 0 0-.278.87c0 .272.065.506.194.701.133.192.302.353.507.482.206.126.421.231.646.314.226.079.433.144.622.193l1.034.279c.265.069.56.166.885.288.328.123.641.29.939.502.302.209.551.478.746.806.196.328.294.731.294 1.208 0 .55-.145 1.047-.433 1.491-.285.444-.703.797-1.253 1.059-.547.262-1.211.393-1.993.393-.73 0-1.361-.118-1.895-.353-.53-.235-.948-.563-1.252-.984a2.809 2.809 0 0 1-.513-1.467h1.273c.033.384.163.703.388.955a2.1 2.1 0 0 0 .865.556c.351.12.729.179 1.134.179.47 0 .893-.076 1.267-.228.375-.156.671-.372.89-.647.219-.278.328-.603.328-.974 0-.338-.094-.613-.283-.825a2.078 2.078 0 0 0-.746-.517 7.687 7.687 0 0 0-.999-.348l-1.253-.358c-.795-.229-1.425-.556-1.889-.98-.464-.424-.696-.979-.696-1.665 0-.57.154-1.068.462-1.492a3.073 3.073 0 0 1 1.253-.994 4.224 4.224 0 0 1 1.765-.358c.656 0 1.24.118 1.75.353.51.232.915.55 1.213.955.302.404.461.863.477 1.377h-1.193Zm6.76-2.546V270.5h-1.233v-8.889h-.059l-2.486 1.65v-1.252l2.545-1.691h1.233Zm2.69 8.094v-1.014l4.474-7.08h.736v1.571h-.497l-3.381 5.35v.079h6.026v1.094h-7.358Zm4.793 2.088v-10.182h1.173V270.5h-1.173Zm7.749.139c-.749 0-1.387-.204-1.914-.611-.527-.411-.93-1.006-1.208-1.785-.279-.782-.418-1.727-.418-2.834 0-1.1.139-2.04.418-2.819.282-.782.686-1.379 1.213-1.79.53-.414 1.167-.621 1.909-.621s1.377.207 1.904.621c.53.411.935 1.008 1.213 1.79.282.779.423 1.719.423 2.819 0 1.107-.139 2.052-.418 2.834-.278.779-.681 1.374-1.208 1.785-.527.407-1.165.611-1.914.611Zm0-1.094c.742 0 1.319-.358 1.73-1.073.411-.716.617-1.737.617-3.063 0-.882-.095-1.632-.284-2.252-.185-.62-.454-1.092-.805-1.417a1.778 1.778 0 0 0-1.258-.487c-.736 0-1.311.363-1.725 1.089-.414.722-.622 1.745-.622 3.067 0 .882.093 1.631.279 2.247.185.617.452 1.086.8 1.407.352.322.774.482 1.268.482Z"/><rect width="200" height="8" x="394" y="261" fill="#FFF5E5" rx="4"/><rect width="186" height="8" x="394" y="261" fill="#F90" rx="4"/><path fill="#050505" d="M612.295 260.179c.418.003.836.083 1.253.239.418.155.799.414 1.144.775.344.358.621.847.83 1.467.209.62.313 1.397.313 2.331 0 .905-.086 1.709-.258 2.412-.169.699-.415 1.289-.736 1.77a3.26 3.26 0 0 1-1.163 1.093 3.156 3.156 0 0 1-1.542.373c-.57 0-1.078-.112-1.526-.338a3.002 3.002 0 0 1-1.094-.949 3.323 3.323 0 0 1-.542-1.417h1.214c.109.467.326.853.651 1.158.328.302.76.452 1.297.452.786 0 1.406-.343 1.86-1.029.457-.686.686-1.655.686-2.908h-.08a3.117 3.117 0 0 1-.661.721 2.91 2.91 0 0 1-1.844.631 3.096 3.096 0 0 1-1.606-.432 3.288 3.288 0 0 1-1.164-1.198c-.288-.511-.432-1.094-.432-1.75 0-.624.139-1.194.417-1.711.282-.52.677-.934 1.184-1.243.51-.308 1.11-.457 1.799-.447Zm0 1.094c-.417 0-.793.104-1.128.313a2.252 2.252 0 0 0-.791.835 2.358 2.358 0 0 0-.288 1.159c0 .424.093.81.278 1.158.189.345.446.62.771.825a2.09 2.09 0 0 0 1.119.303c.315 0 .608-.061.88-.183.271-.126.508-.297.711-.513a2.48 2.48 0 0 0 .482-.74c.116-.279.174-.569.174-.87a2.27 2.27 0 0 0-.289-1.119 2.274 2.274 0 0 0-.785-.845 2.028 2.028 0 0 0-1.134-.323Zm8.936 9.366c-.657 0-1.242-.112-1.755-.338a2.994 2.994 0 0 1-1.218-.939 2.529 2.529 0 0 1-.488-1.407h1.253c.027.328.139.611.338.85.199.235.459.417.781.547.321.129.678.193 1.069.193a2.81 2.81 0 0 0 1.163-.228 1.92 1.92 0 0 0 .796-.637c.192-.271.288-.586.288-.944 0-.375-.093-.705-.278-.99a1.853 1.853 0 0 0-.816-.676c-.358-.162-.795-.243-1.312-.243h-.816v-1.094h.816a2.44 2.44 0 0 0 1.064-.219 1.651 1.651 0 0 0 .984-1.551c0-.345-.076-.645-.229-.9a1.56 1.56 0 0 0-.646-.596 2.085 2.085 0 0 0-.974-.214c-.352 0-.683.064-.995.194-.308.126-.56.31-.755.552a1.436 1.436 0 0 0-.319.865h-1.193c.02-.534.181-1.001.482-1.402.302-.405.696-.72 1.184-.945a3.826 3.826 0 0 1 1.615-.338c.63 0 1.17.128 1.621.383.451.252.797.585 1.039.999.242.414.363.862.363 1.342 0 .574-.151 1.063-.452 1.467a2.301 2.301 0 0 1-1.218.84v.08c.643.106 1.145.379 1.506.82.361.438.542.979.542 1.626 0 .553-.151 1.05-.452 1.491a3.075 3.075 0 0 1-1.223 1.034c-.517.252-1.106.378-1.765.378Zm10.664-2.048v-.537c0-.371.076-.711.228-1.019.156-.312.382-.56.677-.746.298-.189.659-.283 1.083-.283.431 0 .792.094 1.084.283.292.186.512.434.661.746.15.308.224.648.224 1.019v.537c0 .371-.076.713-.229 1.024a1.807 1.807 0 0 1-.666.746c-.291.185-.649.278-1.074.278-.431 0-.793-.093-1.088-.278a1.85 1.85 0 0 1-.672-.746 2.302 2.302 0 0 1-.228-1.024Zm1.014-.537v.537c0 .308.073.585.219.83.145.242.397.363.755.363.348 0 .594-.121.736-.363a1.59 1.59 0 0 0 .219-.83v-.537c0-.308-.07-.583-.209-.825-.139-.246-.388-.368-.746-.368-.348 0-.598.122-.75.368-.15.242-.224.517-.224.825Zm-6.085-5.29v-.537c0-.371.076-.711.228-1.019.156-.311.382-.56.677-.746.298-.189.659-.283 1.083-.283.431 0 .792.094 1.084.283.292.186.512.435.661.746.149.308.224.648.224 1.019v.537c0 .371-.076.713-.229 1.024a1.8 1.8 0 0 1-.666.746c-.291.186-.649.278-1.074.278-.431 0-.793-.092-1.088-.278a1.843 1.843 0 0 1-.672-.746 2.302 2.302 0 0 1-.228-1.024Zm1.014-.537v.537c0 .308.073.585.219.83.145.242.397.363.755.363.348 0 .594-.121.736-.363a1.59 1.59 0 0 0 .219-.83v-.537c0-.308-.07-.583-.209-.825-.139-.245-.388-.368-.746-.368-.348 0-.598.123-.75.368-.15.242-.224.517-.224.825Zm-.636 8.273 7-10.182h1.133l-7 10.182h-1.133Zm21.676-10.182h1.233v6.742c0 .696-.164 1.317-.493 1.864a3.435 3.435 0 0 1-1.377 1.288c-.593.311-1.289.467-2.088.467-.799 0-1.495-.156-2.088-.467a3.481 3.481 0 0 1-1.382-1.288c-.325-.547-.487-1.168-.487-1.864v-6.742h1.233v6.642c0 .497.109.94.328 1.328.219.384.53.687.935.909.407.219.894.329 1.461.329.567 0 1.054-.11 1.462-.329.408-.222.719-.525.935-.909.218-.388.328-.831.328-1.328v-6.642Zm8.945 4.256-1.054.298a1.93 1.93 0 0 0-.294-.512 1.42 1.42 0 0 0-.517-.418c-.218-.109-.498-.164-.84-.164-.467 0-.857.108-1.168.324-.308.212-.462.482-.462.81 0 .292.106.522.318.691.212.169.543.31.994.423l1.134.278c.682.166 1.191.419 1.526.761.335.338.502.774.502 1.307 0 .438-.126.829-.378 1.173-.248.345-.596.617-1.044.816-.447.199-.968.298-1.561.298-.779 0-1.423-.169-1.934-.507-.51-.338-.833-.832-.969-1.482l1.113-.278c.106.411.307.719.602.925.298.205.688.308 1.168.308.547 0 .981-.116 1.303-.348.325-.235.487-.517.487-.845a.89.89 0 0 0-.278-.666c-.186-.183-.471-.319-.856-.408l-1.272-.298c-.7-.166-1.213-.423-1.542-.771-.324-.351-.487-.79-.487-1.317 0-.431.121-.812.363-1.144.245-.331.579-.591.999-.78a3.511 3.511 0 0 1 1.442-.284c.756 0 1.349.166 1.78.497.434.332.743.769.925 1.313Zm5.107 6.085c-.736 0-1.371-.162-1.904-.487a3.266 3.266 0 0 1-1.228-1.372c-.285-.59-.428-1.276-.428-2.059 0-.782.143-1.471.428-2.068.288-.6.689-1.067 1.203-1.402.517-.338 1.12-.507 1.81-.507.397 0 .79.066 1.178.199.388.133.741.348 1.059.646.318.295.571.686.76 1.174.189.487.284 1.087.284 1.799v.498h-5.887v-1.015h4.694c0-.431-.087-.815-.259-1.153a1.943 1.943 0 0 0-.726-.8c-.311-.196-.679-.294-1.103-.294-.468 0-.872.116-1.214.348a2.288 2.288 0 0 0-.78.895 2.632 2.632 0 0 0-.273 1.183v.676c0 .577.099 1.066.298 1.467.202.398.482.701.84.91.358.205.774.308 1.248.308.308 0 .587-.043.835-.129.252-.09.469-.222.651-.398.183-.179.324-.401.423-.666l1.133.318a2.497 2.497 0 0 1-.601 1.014c-.282.289-.63.514-1.044.676-.414.16-.88.239-1.397.239Zm7.83 0c-.636 0-1.198-.161-1.685-.482-.487-.325-.869-.782-1.144-1.372-.275-.594-.412-1.295-.412-2.103 0-.802.137-1.498.412-2.088.275-.59.658-1.046 1.149-1.368.49-.321 1.057-.482 1.7-.482.497 0 .89.083 1.178.249.292.162.514.348.666.557.156.205.277.374.363.507h.1v-3.759h1.173V270.5h-1.133v-1.173h-.14a7.195 7.195 0 0 1-.368.527 2.182 2.182 0 0 1-.681.561c-.295.163-.687.244-1.178.244Zm.159-1.054c.471 0 .869-.123 1.193-.368.325-.248.572-.591.741-1.029.169-.441.254-.949.254-1.526 0-.57-.083-1.069-.249-1.497-.166-.431-.411-.765-.736-1.004-.324-.242-.726-.363-1.203-.363-.497 0-.911.128-1.243.383a2.287 2.287 0 0 0-.74 1.029 4.08 4.08 0 0 0-.244 1.452c0 .543.083 1.037.249 1.481.169.441.417.792.745 1.054.332.259.743.388 1.233.388Z"/><mask id="e" fill="#fff"><path d="M24 294h652v58H24v-58Z"/></mask><path fill="#fff" d="M24 294h652v58H24v-58Z"/><path fill="#F2F2F2" d="M676 351H24v2h652v-2Z" mask="url(#e)"/><rect width="34" height="34" x="24" y="306" fill="#FFF5E5" rx="17"/><path fill="#F90" d="M37.063 320.188v-3.375a.564.564 0 0 1 .96-.398.565.565 0 0 1 .164.398v3.375a.565.565 0 0 1-.562.562.564.564 0 0 1-.563-.562Zm10.124-3.375v12.937a.561.561 0 0 1-.96.398.56.56 0 0 1-.164-.398v-3.375h-3.376a.564.564 0 0 1-.562-.562 18.9 18.9 0 0 1 .508-4c.687-2.846 1.99-4.755 3.77-5.517a.561.561 0 0 1 .785.517Zm-1.124.977c-2.262 1.728-2.705 5.936-2.792 7.46h2.791v-7.46Zm-5.633-1.069a.564.564 0 0 0-.856-.393.567.567 0 0 0-.254.578l.555 3.326a2.25 2.25 0 1 1-4.5 0l.554-3.326a.564.564 0 0 0-.682-.65.56.56 0 0 0-.428.465l-.562 3.375a.573.573 0 0 0-.007.092 3.38 3.38 0 0 0 2.813 3.327v6.235a.56.56 0 0 0 .96.398.561.561 0 0 0 .164-.398v-6.235A3.38 3.38 0 0 0 41 320.188a.573.573 0 0 0-.008-.092l-.562-3.375Z"/><path fill="#050505" d="M70.375 328.5h-3.142v-10.182h3.281c.988 0 1.833.204 2.536.612a4.001 4.001 0 0 1 1.615 1.745c.375.755.562 1.66.562 2.714 0 1.061-.189 1.974-.567 2.74a4.032 4.032 0 0 1-1.65 1.759c-.723.408-1.6.612-2.635.612Zm-1.91-1.094h1.83c.842 0 1.54-.162 2.093-.487a3.003 3.003 0 0 0 1.238-1.387c.272-.6.408-1.314.408-2.143 0-.822-.134-1.529-.403-2.123a2.972 2.972 0 0 0-1.203-1.372c-.533-.321-1.198-.482-1.993-.482h-1.97v7.994Zm8.671 1.094v-7.636h1.174v7.636h-1.174Zm.597-8.909a.834.834 0 0 1-.592-.234.751.751 0 0 1-.243-.562c0-.218.08-.406.243-.561a.834.834 0 0 1 .592-.234c.229 0 .424.078.587.234a.742.742 0 0 1 .248.561.744.744 0 0 1-.248.562.816.816 0 0 1-.587.234Zm3.899 4.315v4.594h-1.173v-7.636h1.133v1.193h.1c.179-.388.45-.7.815-.935.364-.238.835-.358 1.412-.358.517 0 .97.106 1.357.318.388.209.69.527.905.955.215.424.323.961.323 1.611v4.852h-1.173v-4.773c0-.6-.156-1.067-.468-1.402-.311-.338-.739-.507-1.282-.507-.375 0-.71.081-1.005.244a1.738 1.738 0 0 0-.69.711c-.17.311-.254.689-.254 1.133Zm7.016 4.594v-7.636h1.173v7.636h-1.173Zm.597-8.909a.833.833 0 0 1-.592-.234.75.75 0 0 1-.244-.562.75.75 0 0 1 .244-.561.833.833 0 0 1 .592-.234c.228 0 .424.078.586.234a.742.742 0 0 1 .249.561.744.744 0 0 1-.249.562.816.816 0 0 1-.586.234Zm3.899 4.315v4.594H91.97v-7.636h1.134v1.193h.1c.178-.388.45-.7.815-.935.364-.238.835-.358 1.412-.358.517 0 .969.106 1.357.318.388.209.69.527.905.955.215.424.323.961.323 1.611v4.852h-1.174v-4.773c0-.6-.155-1.067-.467-1.402-.311-.338-.739-.507-1.282-.507-.375 0-.71.081-1.005.244a1.738 1.738 0 0 0-.69.711c-.17.311-.254.689-.254 1.133Zm10.098 7.617c-.567 0-1.054-.073-1.461-.219a3.101 3.101 0 0 1-1.02-.567 3.092 3.092 0 0 1-.641-.746l.935-.656c.106.139.24.299.402.477.163.183.385.34.667.473.285.136.657.204 1.118.204.617 0 1.125-.15 1.526-.448.402-.298.602-.765.602-1.402v-1.551h-.099a6.505 6.505 0 0 1-.368.517 2.09 2.09 0 0 1-.676.542c-.292.156-.687.234-1.184.234-.616 0-1.17-.146-1.66-.438-.487-.291-.874-.716-1.159-1.273-.281-.556-.422-1.233-.422-2.028 0-.782.137-1.463.412-2.043.276-.584.658-1.034 1.149-1.353.49-.321 1.057-.482 1.7-.482.497 0 .892.083 1.183.249.295.162.521.348.677.557.159.205.281.374.367.507h.12v-1.213h1.133v7.855c0 .656-.149 1.19-.447 1.601a2.549 2.549 0 0 1-1.193.909 4.494 4.494 0 0 1-1.661.294Zm-.04-4.196c.471 0 .869-.108 1.194-.323.324-.216.571-.526.74-.93.169-.404.254-.888.254-1.452 0-.55-.083-1.036-.249-1.457a2.19 2.19 0 0 0-.735-.989c-.325-.239-.726-.358-1.204-.358-.497 0-.911.126-1.242.378a2.29 2.29 0 0 0-.741 1.014 3.908 3.908 0 0 0-.244 1.412c0 .53.083.999.249 1.407.169.404.417.723.745.955.332.228.743.343 1.233.343Zm94.855 2.446v-12.728h.815v12.728h-.815Zm2.744-8.909a1.562 1.562 0 0 0-.726-1.174c-.424-.278-.944-.417-1.561-.417-.451 0-.845.073-1.183.218a1.894 1.894 0 0 0-.786.602 1.445 1.445 0 0 0-.278.87c0 .272.065.506.194.701.133.192.302.353.507.482.206.126.421.231.646.314.226.079.433.144.622.193l1.034.279c.265.069.56.166.885.288.328.123.641.29.939.502.302.209.551.478.746.806.196.328.294.731.294 1.208 0 .55-.145 1.047-.433 1.491-.285.444-.703.797-1.253 1.059-.547.262-1.211.393-1.993.393-.73 0-1.361-.118-1.895-.353-.53-.235-.948-.563-1.252-.984a2.809 2.809 0 0 1-.513-1.467h1.273c.033.384.163.703.388.955a2.1 2.1 0 0 0 .865.556c.351.12.729.179 1.134.179.47 0 .893-.076 1.267-.228.375-.156.671-.372.89-.647.219-.278.328-.603.328-.974 0-.338-.094-.613-.283-.825a2.078 2.078 0 0 0-.746-.517 7.687 7.687 0 0 0-.999-.348l-1.253-.358c-.795-.229-1.425-.556-1.889-.98-.464-.424-.696-.979-.696-1.665 0-.57.154-1.068.462-1.492a3.073 3.073 0 0 1 1.253-.994 4.224 4.224 0 0 1 1.765-.358c.656 0 1.24.118 1.75.353.51.232.915.55 1.213.955.302.404.461.863.477 1.377h-1.193Zm6.621 7.775c-.656 0-1.241-.112-1.755-.338a3.007 3.007 0 0 1-1.218-.939 2.528 2.528 0 0 1-.487-1.407h1.253c.026.328.139.611.338.85.199.235.459.417.78.547.322.129.678.193 1.069.193.438 0 .825-.076 1.164-.228.338-.153.603-.365.795-.637.192-.271.288-.586.288-.944a1.77 1.77 0 0 0-.278-.99 1.85 1.85 0 0 0-.815-.676c-.358-.162-.796-.243-1.313-.243h-.815v-1.094h.815a2.44 2.44 0 0 0 1.064-.219 1.71 1.71 0 0 0 .721-.616 1.65 1.65 0 0 0 .263-.935c0-.345-.076-.645-.228-.9a1.562 1.562 0 0 0-.647-.596 2.085 2.085 0 0 0-.974-.214c-.351 0-.683.064-.994.194-.309.126-.561.31-.756.552a1.429 1.429 0 0 0-.318.865h-1.193c.019-.534.18-1.001.482-1.402.301-.405.696-.72 1.183-.945a3.83 3.83 0 0 1 1.616-.338c.63 0 1.17.128 1.621.383.45.252.797.585 1.039.999.242.414.363.862.363 1.342 0 .574-.151 1.063-.453 1.467a2.294 2.294 0 0 1-1.218.84v.08c.643.106 1.145.379 1.506.82.362.438.542.979.542 1.626 0 .553-.15 1.05-.452 1.491a3.068 3.068 0 0 1-1.223 1.034c-.517.252-1.105.378-1.765.378Zm8.795 0c-.749 0-1.387-.204-1.914-.611-.527-.411-.93-1.006-1.208-1.785-.279-.782-.418-1.727-.418-2.834 0-1.1.139-2.04.418-2.819.281-.782.686-1.379 1.213-1.79.53-.414 1.166-.621 1.909-.621.742 0 1.377.207 1.904.621.53.411.935 1.008 1.213 1.79.282.779.423 1.719.423 2.819 0 1.107-.14 2.052-.418 2.834-.278.779-.681 1.374-1.208 1.785-.527.407-1.165.611-1.914.611Zm0-1.094c.742 0 1.319-.358 1.73-1.073.411-.716.616-1.737.616-3.063 0-.882-.094-1.632-.283-2.252-.186-.62-.454-1.092-.805-1.417a1.778 1.778 0 0 0-1.258-.487c-.736 0-1.311.363-1.725 1.089-.415.722-.622 1.745-.622 3.067 0 .882.093 1.631.279 2.247.185.617.452 1.086.8 1.407a1.81 1.81 0 0 0 1.268.482Zm8.75 1.094c-.749 0-1.387-.204-1.914-.611-.527-.411-.93-1.006-1.208-1.785-.279-.782-.418-1.727-.418-2.834 0-1.1.139-2.04.418-2.819.281-.782.686-1.379 1.213-1.79.53-.414 1.166-.621 1.909-.621.742 0 1.377.207 1.904.621.53.411.935 1.008 1.213 1.79.282.779.423 1.719.423 2.819 0 1.107-.14 2.052-.418 2.834-.278.779-.681 1.374-1.208 1.785-.527.407-1.165.611-1.914.611Zm0-1.094c.742 0 1.319-.358 1.73-1.073.411-.716.616-1.737.616-3.063 0-.882-.094-1.632-.283-2.252-.186-.62-.454-1.092-.805-1.417a1.778 1.778 0 0 0-1.258-.487c-.736 0-1.311.363-1.725 1.089-.415.722-.622 1.745-.622 3.067 0 .882.093 1.631.279 2.247.185.617.452 1.086.8 1.407a1.81 1.81 0 0 0 1.268.482Zm73.09 2.228v-12.728h.815v12.728h-.815Zm2.744-8.909a1.562 1.562 0 0 0-.726-1.174c-.424-.278-.944-.417-1.561-.417-.451 0-.845.073-1.183.218a1.894 1.894 0 0 0-.786.602 1.445 1.445 0 0 0-.278.87c0 .272.065.506.194.701.133.192.302.353.507.482.206.126.421.231.646.314.226.079.433.144.622.193l1.034.279c.265.069.56.166.885.288.328.123.641.29.939.502.302.209.551.478.746.806.196.328.294.731.294 1.208 0 .55-.145 1.047-.433 1.491-.285.444-.703.797-1.253 1.059-.547.262-1.211.393-1.993.393-.73 0-1.361-.118-1.895-.353-.53-.235-.948-.563-1.252-.984a2.809 2.809 0 0 1-.513-1.467h1.273c.033.384.163.703.388.955a2.1 2.1 0 0 0 .865.556c.351.12.729.179 1.134.179.47 0 .893-.076 1.267-.228.375-.156.671-.372.89-.647.219-.278.328-.603.328-.974 0-.338-.094-.613-.283-.825a2.078 2.078 0 0 0-.746-.517 7.687 7.687 0 0 0-.999-.348l-1.253-.358c-.795-.229-1.425-.556-1.889-.98-.464-.424-.696-.979-.696-1.665 0-.57.154-1.068.462-1.492a3.073 3.073 0 0 1 1.253-.994 4.224 4.224 0 0 1 1.765-.358c.656 0 1.24.118 1.75.353.51.232.915.55 1.213.955.302.404.461.863.477 1.377h-1.193Zm6.621 7.775c-.656 0-1.241-.112-1.755-.338a3.007 3.007 0 0 1-1.218-.939 2.528 2.528 0 0 1-.487-1.407h1.253c.026.328.139.611.338.85.199.235.459.417.78.547.322.129.678.193 1.069.193.438 0 .825-.076 1.164-.228.338-.153.603-.365.795-.637.192-.271.288-.586.288-.944a1.77 1.77 0 0 0-.278-.99 1.85 1.85 0 0 0-.815-.676c-.358-.162-.796-.243-1.313-.243h-.815v-1.094h.815a2.44 2.44 0 0 0 1.064-.219 1.71 1.71 0 0 0 .721-.616 1.65 1.65 0 0 0 .263-.935c0-.345-.076-.645-.228-.9a1.562 1.562 0 0 0-.647-.596 2.085 2.085 0 0 0-.974-.214c-.351 0-.683.064-.994.194-.309.126-.561.31-.756.552a1.429 1.429 0 0 0-.318.865h-1.193c.019-.534.18-1.001.482-1.402.301-.405.696-.72 1.183-.945a3.83 3.83 0 0 1 1.616-.338c.63 0 1.17.128 1.621.383.45.252.797.585 1.039.999.242.414.363.862.363 1.342 0 .574-.151 1.063-.453 1.467a2.294 2.294 0 0 1-1.218.84v.08c.643.106 1.145.379 1.506.82.362.438.542.979.542 1.626 0 .553-.15 1.05-.452 1.491a3.068 3.068 0 0 1-1.223 1.034c-.517.252-1.105.378-1.765.378Zm5.474-.139v-.895l3.361-3.679c.394-.431.719-.805.974-1.123.255-.322.444-.624.567-.905.126-.285.189-.584.189-.895 0-.358-.086-.668-.259-.93a1.67 1.67 0 0 0-.696-.606 2.248 2.248 0 0 0-.994-.214c-.391 0-.733.081-1.024.243-.289.16-.512.383-.671.672a2.097 2.097 0 0 0-.234 1.014h-1.173c0-.597.137-1.12.412-1.571.275-.451.65-.802 1.124-1.054a3.384 3.384 0 0 1 1.606-.378c.596 0 1.125.126 1.586.378.46.252.821.591 1.083 1.019.262.428.393.903.393 1.427 0 .374-.068.741-.204 1.099-.132.354-.364.75-.696 1.188-.328.434-.784.964-1.367 1.591l-2.287 2.446v.079h4.733v1.094h-6.423Zm11.797.139c-.749 0-1.387-.204-1.914-.611-.527-.411-.929-1.006-1.208-1.785-.278-.782-.417-1.727-.417-2.834 0-1.1.139-2.04.417-2.819.282-.782.686-1.379 1.213-1.79.531-.414 1.167-.621 1.909-.621.743 0 1.377.207 1.904.621.531.411.935 1.008 1.214 1.79.281.779.422 1.719.422 2.819 0 1.107-.139 2.052-.417 2.834-.279.779-.682 1.374-1.209 1.785-.527.407-1.165.611-1.914.611Zm0-1.094c.743 0 1.319-.358 1.73-1.073.411-.716.617-1.737.617-3.063 0-.882-.095-1.632-.283-2.252-.186-.62-.455-1.092-.806-1.417a1.776 1.776 0 0 0-1.258-.487c-.735 0-1.31.363-1.725 1.089-.414.722-.621 1.745-.621 3.067 0 .882.093 1.631.278 2.247.186.617.453 1.086.801 1.407.351.322.774.482 1.267.482Z"/><rect width="200" height="8" x="394" y="319" fill="#fff" rx="4"/><rect width="200" height="8" x="394" y="319" fill="#FD0000" rx="4"/><path fill="#050505" d="M607.634 318.318V328.5h-1.233v-8.889h-.06l-2.486 1.65v-1.252l2.546-1.691h1.233Zm6.249 10.321c-.749 0-1.387-.204-1.914-.611-.527-.411-.93-1.006-1.208-1.785-.279-.782-.418-1.727-.418-2.834 0-1.1.139-2.04.418-2.819.281-.782.686-1.379 1.213-1.79.53-.414 1.166-.621 1.909-.621.742 0 1.377.207 1.904.621.53.411.935 1.008 1.213 1.79.282.779.423 1.719.423 2.819 0 1.107-.14 2.052-.418 2.834-.278.779-.681 1.374-1.208 1.785-.527.407-1.165.611-1.914.611Zm0-1.094c.742 0 1.319-.358 1.73-1.073.411-.716.616-1.737.616-3.063 0-.882-.094-1.632-.283-2.252-.186-.62-.454-1.092-.805-1.417a1.778 1.778 0 0 0-1.258-.487c-.736 0-1.311.363-1.725 1.089-.415.722-.622 1.745-.622 3.067 0 .882.093 1.631.279 2.247.185.617.452 1.086.8 1.407a1.81 1.81 0 0 0 1.268.482Zm5.474.955 4.554-9.009v-.079h-5.25v-1.094h6.522v1.154l-4.534 9.028h-1.292Zm12.87-1.909v-.537c0-.371.076-.711.228-1.019.156-.312.382-.56.677-.746.298-.189.659-.283 1.083-.283.431 0 .793.094 1.084.283.292.186.512.434.661.746.15.308.224.648.224 1.019v.537c0 .371-.076.713-.229 1.024a1.807 1.807 0 0 1-.666.746c-.291.185-.649.278-1.074.278-.43 0-.793-.093-1.088-.278a1.85 1.85 0 0 1-.672-.746 2.302 2.302 0 0 1-.228-1.024Zm1.014-.537v.537c0 .308.073.585.219.83.146.242.397.363.755.363.348 0 .594-.121.736-.363a1.59 1.59 0 0 0 .219-.83v-.537c0-.308-.07-.583-.209-.825-.139-.246-.388-.368-.746-.368-.348 0-.598.122-.75.368a1.542 1.542 0 0 0-.224.825Zm-6.085-5.29v-.537c0-.371.076-.711.228-1.019.156-.311.382-.56.677-.746.298-.189.659-.283 1.083-.283.431 0 .792.094 1.084.283.292.186.512.435.661.746.15.308.224.648.224 1.019v.537c0 .371-.076.713-.229 1.024a1.8 1.8 0 0 1-.666.746c-.291.186-.649.278-1.074.278-.431 0-.793-.092-1.088-.278a1.843 1.843 0 0 1-.672-.746 2.302 2.302 0 0 1-.228-1.024Zm1.014-.537v.537c0 .308.073.585.219.83.146.242.397.363.755.363.348 0 .594-.121.736-.363a1.59 1.59 0 0 0 .219-.83v-.537c0-.308-.07-.583-.209-.825-.139-.245-.388-.368-.746-.368-.348 0-.598.123-.75.368-.15.242-.224.517-.224.825Zm-.636 8.273 7-10.182h1.133l-7 10.182h-1.133Zm21.676-10.182h1.233v6.742c0 .696-.164 1.317-.493 1.864a3.435 3.435 0 0 1-1.377 1.288c-.593.311-1.289.467-2.088.467-.799 0-1.495-.156-2.088-.467a3.481 3.481 0 0 1-1.382-1.288c-.325-.547-.487-1.168-.487-1.864v-6.742h1.233v6.642c0 .497.109.94.328 1.328.219.384.53.687.935.909.407.219.895.329 1.461.329.567 0 1.054-.11 1.462-.329.408-.222.719-.525.935-.909.218-.388.328-.831.328-1.328v-6.642Zm8.945 4.256-1.054.298a1.954 1.954 0 0 0-.293-.512 1.433 1.433 0 0 0-.518-.418c-.218-.109-.498-.164-.84-.164-.467 0-.856.108-1.168.324-.308.212-.462.482-.462.81 0 .292.106.522.318.691.212.169.543.31.994.423l1.134.278c.682.166 1.191.419 1.526.761.335.338.502.774.502 1.307 0 .438-.126.829-.378 1.173-.248.345-.596.617-1.044.816-.447.199-.968.298-1.561.298-.779 0-1.423-.169-1.934-.507-.51-.338-.833-.832-.969-1.482l1.113-.278c.106.411.307.719.602.925.298.205.688.308 1.168.308.547 0 .981-.116 1.303-.348.325-.235.487-.517.487-.845a.89.89 0 0 0-.278-.666c-.186-.183-.471-.319-.856-.408l-1.272-.298c-.7-.166-1.213-.423-1.541-.771-.325-.351-.488-.79-.488-1.317 0-.431.121-.812.363-1.144a2.474 2.474 0 0 1 1-.78 3.503 3.503 0 0 1 1.441-.284c.756 0 1.349.166 1.78.497.434.332.743.769.925 1.313Zm5.107 6.085c-.736 0-1.371-.162-1.904-.487a3.266 3.266 0 0 1-1.228-1.372c-.285-.59-.428-1.276-.428-2.059 0-.782.143-1.471.428-2.068.288-.6.689-1.067 1.203-1.402.517-.338 1.12-.507 1.81-.507.397 0 .79.066 1.178.199.388.133.741.348 1.059.646.318.295.572.686.76 1.174.189.487.284 1.087.284 1.799v.498h-5.887v-1.015h4.694c0-.431-.087-.815-.259-1.153a1.943 1.943 0 0 0-.726-.8c-.311-.196-.679-.294-1.103-.294-.468 0-.872.116-1.213.348a2.282 2.282 0 0 0-.781.895 2.632 2.632 0 0 0-.273 1.183v.676c0 .577.099 1.066.298 1.467.202.398.482.701.84.91.358.205.774.308 1.248.308.308 0 .587-.043.835-.129.252-.09.469-.222.651-.398.183-.179.324-.401.423-.666l1.134.318a2.51 2.51 0 0 1-.602 1.014c-.282.289-.63.514-1.044.676-.414.16-.88.239-1.397.239Zm7.83 0c-.636 0-1.198-.161-1.685-.482-.487-.325-.869-.782-1.144-1.372-.275-.594-.412-1.295-.412-2.103 0-.802.137-1.498.412-2.088.275-.59.658-1.046 1.149-1.368.49-.321 1.057-.482 1.7-.482.497 0 .89.083 1.178.249.292.162.514.348.666.557.156.205.277.374.363.507h.1v-3.759h1.173V328.5h-1.133v-1.173h-.14a7.456 7.456 0 0 1-.367.527c-.16.208-.387.396-.682.561-.295.163-.687.244-1.178.244Zm.159-1.054c.471 0 .869-.123 1.193-.368.325-.248.572-.591.741-1.029.169-.441.254-.949.254-1.526 0-.57-.083-1.069-.249-1.497-.166-.431-.411-.765-.736-1.004-.324-.242-.725-.363-1.203-.363-.497 0-.911.128-1.243.383a2.287 2.287 0 0 0-.74 1.029 4.08 4.08 0 0 0-.244 1.452c0 .543.083 1.037.249 1.481.169.441.417.792.745 1.054.332.259.743.388 1.233.388Z"/></svg>