<svg xmlns="http://www.w3.org/2000/svg" width="400" height="127" fill="none"><path fill="#fff" d="M0 24C0 10.745 10.745 0 24 0h352c13.255 0 24 10.745 24 24v79c0 13.255-10.745 24-24 24H4a4 4 0 0 1-4-4V24Z"/><path fill="#050505" d="M19.233 32V21.818h1.233v4.534h5.429v-4.534h1.233V32h-1.233v-4.554h-5.43V32h-1.232Zm10.204 0v-7.636h1.173V32h-1.173Zm.597-8.91a.834.834 0 0 1-.592-.233.75.75 0 0 1-.244-.561.75.75 0 0 1 .244-.562.834.834 0 0 1 .592-.234c.228 0 .424.078.586.234a.744.744 0 0 1 .249.561.744.744 0 0 1-.249.562.817.817 0 0 1-.586.234ZM45.049 25h-1.233a2.563 2.563 0 0 0-1.039-1.61 2.785 2.785 0 0 0-.85-.418 3.395 3.395 0 0 0-.974-.14c-.617 0-1.175.156-1.676.468-.497.311-.893.77-1.188 1.377-.292.606-.438 1.35-.438 2.232 0 .882.146 1.626.438 2.232.295.607.691 1.066 1.188 1.378.5.311 1.06.467 1.676.467.338 0 .662-.047.974-.14a2.83 2.83 0 0 0 .85-.412 2.61 2.61 0 0 0 1.039-1.616h1.233a4.11 4.11 0 0 1-.507 1.397c-.245.411-.55.76-.915 1.05a4.008 4.008 0 0 1-1.228.65c-.45.15-.933.224-1.446.224-.869 0-1.641-.212-2.317-.636-.676-.424-1.208-1.028-1.596-1.81-.388-.782-.582-1.71-.582-2.784 0-1.074.194-2.002.582-2.784.388-.782.92-1.385 1.596-1.81.676-.424 1.448-.636 2.317-.636.513 0 .996.075 1.446.224.454.149.864.368 1.228.656.365.285.67.633.915 1.044.245.408.414.873.507 1.397Zm5.035 7.16c-.736 0-1.37-.163-1.904-.488a3.27 3.27 0 0 1-1.228-1.372c-.285-.59-.427-1.276-.427-2.059 0-.782.142-1.471.427-2.068.288-.6.69-1.067 1.203-1.402.517-.338 1.12-.507 1.81-.507.398 0 .79.067 1.178.2.388.132.74.347 1.06.645.317.295.57.686.76 1.174.189.487.283 1.087.283 1.8v.497H47.36v-1.015h4.693c0-.43-.086-.815-.259-1.153a1.948 1.948 0 0 0-.725-.8c-.312-.196-.68-.294-1.104-.294-.468 0-.872.116-1.213.348a2.29 2.29 0 0 0-.78.895 2.629 2.629 0 0 0-.274 1.183v.677c0 .576.1 1.065.298 1.466.202.398.482.701.84.91.358.205.774.308 1.248.308.308 0 .587-.043.835-.13.252-.089.47-.221.652-.397.182-.179.323-.4.422-.666l1.134.318a2.51 2.51 0 0 1-.602 1.014c-.282.289-.63.514-1.044.677-.414.159-.88.238-1.397.238Zm4.728-.16v-.895l4.335-5.568v-.08h-4.196v-1.093h5.708v.934l-4.216 5.529v.08h4.355V32h-5.986Zm10.04.179c-.484 0-.923-.091-1.317-.274a2.26 2.26 0 0 1-.94-.8c-.232-.351-.348-.776-.348-1.273 0-.437.086-.792.259-1.064.172-.275.402-.49.69-.646a3.64 3.64 0 0 1 .955-.348c.352-.08.705-.142 1.06-.189.463-.06.84-.104 1.128-.134.291-.033.504-.088.636-.164.136-.076.204-.209.204-.398v-.04c0-.49-.134-.871-.403-1.143-.265-.272-.668-.408-1.208-.408-.56 0-1 .123-1.317.368-.319.245-.542.507-.672.786l-1.113-.398c.199-.464.464-.825.795-1.084.335-.262.7-.444 1.094-.547a4.54 4.54 0 0 1 1.173-.159c.246 0 .527.03.846.09.321.056.631.174.93.353.3.179.551.449.75.81.199.361.298.845.298 1.452V32H67.18v-1.034h-.06c-.08.166-.212.343-.397.532-.186.189-.433.35-.741.482-.308.133-.685.199-1.129.199Zm.18-1.054c.463 0 .854-.091 1.172-.273a1.862 1.862 0 0 0 .975-1.616v-1.074c-.05.06-.16.114-.328.164a5.55 5.55 0 0 1-.577.124 26.408 26.408 0 0 1-1.123.15c-.305.04-.59.104-.855.193a1.474 1.474 0 0 0-.637.393c-.159.172-.239.408-.239.706 0 .408.151.716.453.925.305.205.69.308 1.158.308Zm5.462.875v-7.636h1.133v1.153h.08a1.84 1.84 0 0 1 .756-.92 2.225 2.225 0 0 1 1.233-.353c.086 0 .193.002.323.005.129.004.227.009.293.015v1.193a3.458 3.458 0 0 0-.273-.044 2.69 2.69 0 0 0-.443-.035c-.371 0-.703.078-.994.233a1.714 1.714 0 0 0-.935 1.556V32h-1.173Zm7.456.179c-.484 0-.923-.091-1.318-.274a2.26 2.26 0 0 1-.94-.8c-.231-.351-.347-.776-.347-1.273 0-.437.086-.792.258-1.064.173-.275.403-.49.691-.646.289-.156.607-.272.955-.348.351-.08.704-.142 1.059-.189.464-.06.84-.104 1.128-.134.292-.033.504-.088.637-.164.136-.076.204-.209.204-.398v-.04c0-.49-.135-.871-.403-1.143-.265-.272-.668-.408-1.208-.408-.56 0-1 .123-1.318.368-.318.245-.541.507-.67.786l-1.114-.398c.198-.464.464-.825.795-1.084a2.98 2.98 0 0 1 1.094-.547 4.54 4.54 0 0 1 1.173-.159c.245 0 .527.03.845.09.322.056.632.174.93.353.302.179.552.449.75.81.2.361.299.845.299 1.452V32h-1.173v-1.034h-.06c-.08.166-.212.343-.398.532-.185.189-.432.35-.74.482-.309.133-.685.199-1.13.199Zm.179-1.054c.464 0 .855-.091 1.173-.273a1.863 1.863 0 0 0 .975-1.616v-1.074c-.05.06-.16.114-.329.164a5.542 5.542 0 0 1-.576.124 26.343 26.343 0 0 1-1.124.15c-.305.04-.59.104-.855.193a1.475 1.475 0 0 0-.636.393c-.16.172-.239.408-.239.706 0 .408.15.716.453.925.304.205.69.308 1.158.308Zm7.014-9.307-.1 7.318H83.89l-.1-7.318h1.353Zm-.677 10.262a.862.862 0 0 1-.631-.264.862.862 0 0 1-.263-.631.86.86 0 0 1 .263-.632.861.861 0 0 1 .631-.263c.246 0 .456.088.632.263a.861.861 0 0 1 .263.632.927.927 0 0 1-.447.776.852.852 0 0 1-.448.119Zm8.352-10.262V32h-1.233V21.818h1.233Zm5.633 2.546v.994h-3.957v-.994h3.957Zm-2.803-1.83h1.173v7.279c0 .33.048.58.144.745.1.163.225.272.378.328.156.053.32.08.492.08.13 0 .235-.007.318-.02l.2-.04.238 1.054c-.08.03-.19.06-.333.09-.143.033-.323.05-.542.05-.332 0-.656-.072-.975-.214a1.937 1.937 0 0 1-.785-.652c-.206-.291-.309-.66-.309-1.103v-7.597Zm9.679-.716V32h-1.173V21.818h1.173Zm5.251 10.341c-.689 0-1.294-.164-1.814-.492a3.34 3.34 0 0 1-1.213-1.377c-.289-.59-.433-1.28-.433-2.068 0-.796.144-1.49.433-2.084a3.333 3.333 0 0 1 1.213-1.382c.52-.328 1.125-.492 1.814-.492.69 0 1.293.164 1.81.492.52.328.925.79 1.213 1.383.292.593.438 1.287.438 2.083 0 .788-.146 1.478-.438 2.068a3.298 3.298 0 0 1-1.213 1.377c-.517.328-1.12.492-1.81.492Zm0-1.054c.524 0 .955-.134 1.293-.403a2.38 2.38 0 0 0 .751-1.059c.162-.437.243-.911.243-1.421s-.081-.986-.243-1.427a2.41 2.41 0 0 0-.751-1.07c-.338-.27-.769-.407-1.293-.407-.523 0-.954.136-1.292.408a2.41 2.41 0 0 0-.751 1.069 4.1 4.1 0 0 0-.243 1.427c0 .51.081.984.243 1.421.163.438.413.79.751 1.06.338.268.769.402 1.292.402Zm8.354 1.054c-.689 0-1.294-.164-1.815-.492a3.346 3.346 0 0 1-1.213-1.377c-.288-.59-.432-1.28-.432-2.068 0-.796.144-1.49.432-2.084a3.34 3.34 0 0 1 1.213-1.382c.521-.328 1.126-.492 1.815-.492.689 0 1.293.164 1.81.492.52.328.924.79 1.213 1.383.291.593.437 1.287.437 2.083 0 .788-.146 1.478-.437 2.068a3.305 3.305 0 0 1-1.213 1.377c-.517.328-1.121.492-1.81.492Zm0-1.054c.524 0 .955-.134 1.293-.403a2.37 2.37 0 0 0 .75-1.059c.163-.437.244-.911.244-1.421s-.081-.986-.244-1.427a2.4 2.4 0 0 0-.75-1.07c-.338-.27-.769-.407-1.293-.407-.524 0-.955.136-1.293.408a2.4 2.4 0 0 0-.75 1.069c-.163.44-.244.916-.244 1.427 0 .51.081.984.244 1.421.162.438.412.79.75 1.06.338.268.769.402 1.293.402Zm6.345-1.89-.02-1.45h.239l3.341-3.401h1.451l-3.559 3.6h-.1l-1.352 1.252ZM124.183 32V21.818h1.174V32h-1.174Zm4.853 0-2.983-3.778.835-.816L130.527 32h-1.491Zm8.172-5.926-1.054.298a1.96 1.96 0 0 0-.294-.512 1.421 1.421 0 0 0-.517-.418c-.219-.109-.499-.164-.84-.164-.467 0-.857.108-1.168.324-.309.212-.463.482-.463.81 0 .292.106.522.319.691.212.169.543.31.994.423l1.133.278c.683.166 1.192.42 1.527.76.334.339.502.774.502 1.308 0 .438-.126.829-.378 1.174-.249.344-.597.616-1.044.815-.448.199-.968.298-1.561.298-.779 0-1.424-.169-1.934-.507-.511-.338-.834-.832-.97-1.482l1.114-.278c.106.411.307.72.602.925.298.205.687.308 1.168.308.547 0 .981-.116 1.302-.348.325-.235.488-.517.488-.845a.887.887 0 0 0-.279-.666c-.185-.183-.47-.319-.855-.408l-1.273-.298c-.699-.166-1.213-.423-1.541-.77-.325-.352-.487-.791-.487-1.318 0-.431.121-.812.363-1.144a2.47 2.47 0 0 1 .999-.78 3.51 3.51 0 0 1 1.442-.284c.756 0 1.349.166 1.78.497.434.332.742.77.925 1.313Zm7.016-4.256V32h-1.174V21.818h1.174ZM146.373 32v-7.636h1.173V32h-1.173Zm.596-8.91a.833.833 0 0 1-.591-.233.749.749 0 0 1-.244-.561c0-.22.081-.407.244-.562a.833.833 0 0 1 .591-.234c.229 0 .425.078.587.234a.743.743 0 0 1 .249.561.743.743 0 0 1-.249.562.817.817 0 0 1-.587.234Zm3.82 6.126-.02-1.452h.238l3.341-3.4h1.452l-3.56 3.6h-.099l-1.352 1.252ZM149.695 32V21.818h1.173V32h-1.173Zm4.852 0-2.983-3.778.836-.816L156.039 32h-1.492Zm5.65.16c-.735 0-1.37-.163-1.904-.488a3.276 3.276 0 0 1-1.228-1.372c-.285-.59-.427-1.276-.427-2.059 0-.782.142-1.471.427-2.068.289-.6.69-1.067 1.203-1.402.518-.338 1.121-.507 1.81-.507.398 0 .791.067 1.178.2.388.132.741.347 1.059.645.319.295.572.686.761 1.174.189.487.283 1.087.283 1.8v.497h-5.886v-1.015h4.693c0-.43-.086-.815-.258-1.153a1.948 1.948 0 0 0-.726-.8c-.312-.196-.68-.294-1.104-.294-.467 0-.872.116-1.213.348a2.286 2.286 0 0 0-.78.895 2.62 2.62 0 0 0-.274 1.183v.677c0 .576.1 1.065.298 1.466.203.398.483.701.841.91.358.205.773.308 1.247.308.309 0 .587-.043.836-.13a1.77 1.77 0 0 0 .651-.397c.182-.179.323-.4.423-.666l1.133.318c-.119.385-.32.723-.602 1.014a2.92 2.92 0 0 1-1.044.677c-.414.159-.88.238-1.397.238Zm9.64 2.704a2.58 2.58 0 0 1-.532-.05 1.414 1.414 0 0 1-.323-.09l.299-1.034c.285.073.536.1.755.08a.906.906 0 0 0 .582-.293c.172-.173.33-.453.472-.84l.219-.597-2.824-7.676h1.273l2.108 6.085h.079l2.108-6.085h1.273l-3.241 8.75c-.146.394-.327.72-.542.979a2.035 2.035 0 0 1-.751.582c-.282.126-.6.189-.955.189Zm9.866-2.705c-.689 0-1.294-.164-1.814-.492a3.34 3.34 0 0 1-1.213-1.377c-.289-.59-.433-1.28-.433-2.068 0-.796.144-1.49.433-2.084a3.333 3.333 0 0 1 1.213-1.382c.52-.328 1.125-.492 1.814-.492.69 0 1.293.164 1.81.492.52.328.925.79 1.213 1.383.292.593.438 1.287.438 2.083 0 .788-.146 1.478-.438 2.068a3.298 3.298 0 0 1-1.213 1.377c-.517.328-1.12.492-1.81.492Zm0-1.054c.524 0 .955-.134 1.293-.403a2.38 2.38 0 0 0 .751-1.059c.162-.437.243-.911.243-1.421s-.081-.986-.243-1.427a2.41 2.41 0 0 0-.751-1.07c-.338-.27-.769-.407-1.293-.407-.523 0-.954.136-1.292.408a2.41 2.41 0 0 0-.751 1.069 4.1 4.1 0 0 0-.243 1.427c0 .51.081.984.243 1.421.163.438.413.79.751 1.06.338.268.769.402 1.292.402Zm10.064-2.227v-4.514h1.174V32h-1.174v-1.293h-.079a2.505 2.505 0 0 1-.836.99c-.377.268-.855.402-1.431.402a2.55 2.55 0 0 1-1.273-.313 2.192 2.192 0 0 1-.875-.954c-.212-.428-.318-.966-.318-1.616v-4.852h1.173v4.772c0 .557.156 1.001.467 1.333.315.331.716.497 1.203.497.292 0 .589-.075.89-.224.305-.149.561-.378.766-.686.209-.308.313-.7.313-1.178Zm4.562-7.06v.895c0 .272-.05.562-.149.87a3.623 3.623 0 0 1-.428.89 3.164 3.164 0 0 1-.676.746l-.637-.517c.209-.299.39-.609.542-.93a2.37 2.37 0 0 0 .234-1.039v-.915h1.114Zm7.999 2.546L199.504 32h-1.193l-2.824-7.636h1.273l2.108 6.085h.079l2.108-6.085h1.273Zm4.477 7.795c-.736 0-1.371-.162-1.904-.487a3.263 3.263 0 0 1-1.228-1.372c-.285-.59-.428-1.276-.428-2.059 0-.782.143-1.471.428-2.068.288-.6.689-1.067 1.203-1.402.517-.338 1.12-.507 1.81-.507.397 0 .79.067 1.178.2.388.132.741.347 1.059.645.318.295.571.686.76 1.174.189.487.284 1.087.284 1.8v.497h-5.887v-1.015h4.694c0-.43-.087-.815-.259-1.153a1.948 1.948 0 0 0-.726-.8c-.311-.196-.679-.294-1.103-.294-.468 0-.872.116-1.214.348a2.286 2.286 0 0 0-.78.895 2.632 2.632 0 0 0-.273 1.183v.677c0 .576.099 1.065.298 1.466.202.398.482.701.84.91.358.205.774.308 1.248.308.308 0 .587-.043.835-.13a1.77 1.77 0 0 0 .651-.397c.183-.179.324-.4.423-.666l1.133.318a2.505 2.505 0 0 1-.601 1.014c-.282.289-.63.514-1.044.677-.414.159-.88.238-1.397.238Zm9.043-.159V21.818h1.173v3.759h.1a9.98 9.98 0 0 1 .358-.507c.156-.21.378-.395.666-.557.292-.166.686-.249 1.183-.249.643 0 1.21.161 1.701.482.49.322.873.778 1.148 1.368.275.59.413 1.286.413 2.088 0 .808-.138 1.51-.413 2.103-.275.59-.656 1.047-1.143 1.372-.488.321-1.049.482-1.686.482-.49 0-.883-.081-1.178-.243a2.182 2.182 0 0 1-.681-.562 7.5 7.5 0 0 1-.368-.527h-.139V32h-1.134Zm1.154-3.818c0 .577.084 1.085.253 1.526.169.438.416.78.741 1.03.325.245.722.367 1.193.367.491 0 .9-.13 1.228-.388a2.37 2.37 0 0 0 .746-1.054c.169-.444.253-.938.253-1.481 0-.537-.082-1.021-.248-1.452a2.25 2.25 0 0 0-.741-1.029c-.328-.255-.741-.383-1.238-.383-.477 0-.878.121-1.203.363-.325.239-.57.573-.736 1.004-.166.428-.248.927-.248 1.497Zm10.584 3.977c-.736 0-1.37-.162-1.904-.487a3.27 3.27 0 0 1-1.228-1.372c-.285-.59-.428-1.276-.428-2.059 0-.782.143-1.471.428-2.068.288-.6.689-1.067 1.203-1.402.517-.338 1.12-.507 1.81-.507.398 0 .79.067 1.178.2.388.132.741.347 1.059.645.318.295.572.686.761 1.174.189.487.283 1.087.283 1.8v.497h-5.886v-1.015h4.693c0-.43-.086-.815-.259-1.153a1.948 1.948 0 0 0-.726-.8c-.311-.196-.679-.294-1.103-.294-.468 0-.872.116-1.213.348a2.289 2.289 0 0 0-.781.895 2.632 2.632 0 0 0-.273 1.183v.677c0 .576.099 1.065.298 1.466.202.398.482.701.84.91.358.205.774.308 1.248.308.308 0 .587-.043.835-.13.252-.089.469-.221.652-.397.182-.179.323-.4.422-.666l1.134.318a2.51 2.51 0 0 1-.602 1.014c-.282.289-.63.514-1.044.677-.414.159-.88.238-1.397.238Zm8.149 0c-.736 0-1.371-.162-1.905-.487a3.276 3.276 0 0 1-1.228-1.372c-.285-.59-.427-1.276-.427-2.059 0-.782.142-1.471.427-2.068.289-.6.69-1.067 1.204-1.402.517-.338 1.12-.507 1.809-.507.398 0 .791.067 1.179.2.387.132.74.347 1.058.645.319.295.572.686.761 1.174.189.487.283 1.087.283 1.8v.497h-5.886v-1.015h4.693c0-.43-.086-.815-.258-1.153a1.948 1.948 0 0 0-.726-.8c-.312-.196-.68-.294-1.104-.294-.467 0-.871.116-1.213.348a2.286 2.286 0 0 0-.78.895 2.62 2.62 0 0 0-.274 1.183v.677c0 .576.1 1.065.298 1.466.203.398.483.701.841.91.358.205.774.308 1.248.308.308 0 .586-.043.835-.13a1.77 1.77 0 0 0 .651-.397c.182-.179.323-.4.423-.666l1.133.318c-.119.385-.32.723-.601 1.014-.282.289-.63.514-1.044.677-.415.159-.88.238-1.397.238Zm6.12-4.753V32h-1.174v-7.636h1.134v1.193h.099c.179-.388.451-.7.816-.935.364-.238.835-.358 1.412-.358.517 0 .969.106 1.357.318.388.21.689.527.905.955.215.424.323.961.323 1.61V32h-1.174v-4.773c0-.6-.155-1.067-.467-1.402-.311-.338-.739-.507-1.283-.507-.374 0-.709.081-1.004.244-.291.162-.522.4-.691.71-.169.312-.253.69-.253 1.134Zm13.837 4.753c-.637 0-1.198-.16-1.686-.482-.487-.325-.868-.782-1.143-1.372-.275-.594-.413-1.295-.413-2.103 0-.802.138-1.498.413-2.088.275-.59.658-1.046 1.148-1.368.491-.321 1.058-.482 1.701-.482.497 0 .89.083 1.178.249.292.162.514.348.666.557.156.205.277.374.363.507h.099v-3.759h1.174V32h-1.134v-1.173h-.139a7.5 7.5 0 0 1-.368.527 2.182 2.182 0 0 1-.681.562c-.295.162-.688.243-1.178.243Zm.159-1.054c.47 0 .868-.122 1.193-.368.325-.248.572-.591.741-1.029.169-.44.253-.95.253-1.526 0-.57-.083-1.07-.248-1.497-.166-.43-.411-.765-.736-1.004-.325-.242-.726-.363-1.203-.363-.497 0-.912.128-1.243.383a2.295 2.295 0 0 0-.741 1.03 4.1 4.1 0 0 0-.243 1.45c0 .544.082 1.038.248 1.482.169.441.418.793.746 1.054.331.259.742.388 1.233.388Zm8.755 1.054c-.69 0-1.294-.164-1.815-.492a3.346 3.346 0 0 1-1.213-1.377c-.288-.59-.432-1.28-.432-2.068 0-.796.144-1.49.432-2.084a3.34 3.34 0 0 1 1.213-1.382c.521-.328 1.125-.492 1.815-.492.689 0 1.292.164 1.809.492.521.328.925.79 1.214 1.383.291.593.437 1.287.437 2.083 0 .788-.146 1.478-.437 2.068a3.3 3.3 0 0 1-1.214 1.377c-.517.328-1.12.492-1.809.492Zm0-1.054c.523 0 .954-.134 1.292-.403a2.36 2.36 0 0 0 .751-1.059c.163-.437.244-.911.244-1.421s-.081-.986-.244-1.427a2.394 2.394 0 0 0-.751-1.07c-.338-.27-.769-.407-1.292-.407-.524 0-.955.136-1.293.408a2.41 2.41 0 0 0-.751 1.069 4.1 4.1 0 0 0-.243 1.427c0 .51.081.984.243 1.421.163.438.413.79.751 1.06.338.268.769.402 1.293.402Zm5.251.895v-7.636h1.173V32h-1.173Zm.597-8.91a.835.835 0 0 1-.592-.233.752.752 0 0 1-.244-.561.75.75 0 0 1 .244-.562.835.835 0 0 1 .592-.234c.228 0 .424.078.586.234a.743.743 0 0 1 .249.561.743.743 0 0 1-.249.562.816.816 0 0 1-.586.234Zm3.899 4.316V32h-1.174v-7.636h1.134v1.193h.099c.179-.388.451-.7.816-.935.364-.238.835-.358 1.412-.358.517 0 .969.106 1.357.318.388.21.689.527.905.955.215.424.323.961.323 1.61V32h-1.174v-4.773c0-.6-.155-1.067-.467-1.402-.311-.338-.739-.507-1.283-.507-.374 0-.709.081-1.004.244-.291.162-.522.4-.691.71-.169.312-.253.69-.253 1.134Zm10.098 7.617c-.567 0-1.054-.073-1.461-.219a3.105 3.105 0 0 1-1.02-.567 3.108 3.108 0 0 1-.641-.745l.935-.657c.106.14.24.298.402.477.163.183.385.34.667.473.285.136.657.204 1.118.204.617 0 1.125-.15 1.526-.448.401-.298.602-.765.602-1.402v-1.55h-.099a6.56 6.56 0 0 1-.368.516 2.088 2.088 0 0 1-.676.542c-.292.156-.687.234-1.184.234-.616 0-1.17-.146-1.66-.438-.487-.292-.874-.716-1.159-1.273-.281-.556-.422-1.233-.422-2.028 0-.782.137-1.463.412-2.043.276-.584.658-1.034 1.149-1.353.49-.321 1.057-.482 1.7-.482.497 0 .892.083 1.183.249.295.162.521.348.677.557.159.205.281.374.367.507h.12v-1.213h1.133v7.855c0 .656-.149 1.19-.447 1.6a2.55 2.55 0 0 1-1.193.91 4.502 4.502 0 0 1-1.661.294Zm-.04-4.196c.471 0 .869-.108 1.194-.323.324-.216.571-.526.74-.93.169-.405.254-.888.254-1.452 0-.55-.083-1.036-.249-1.456a2.185 2.185 0 0 0-.735-.99c-.325-.238-.726-.358-1.204-.358-.497 0-.911.126-1.242.378a2.29 2.29 0 0 0-.741 1.014 3.908 3.908 0 0 0-.244 1.412c0 .53.083 1 .249 1.407.169.404.417.723.745.955.332.228.743.343 1.233.343Zm12.509 4.196c-.567 0-1.054-.073-1.462-.219a3.11 3.11 0 0 1-1.019-.567 3.108 3.108 0 0 1-.641-.745l.934-.657c.106.14.241.298.403.477.163.183.385.34.666.473.285.136.658.204 1.119.204.616 0 1.125-.15 1.526-.448.401-.298.602-.765.602-1.402v-1.55h-.1a6.07 6.07 0 0 1-.368.516c-.155.202-.381.383-.676.542-.291.156-.686.234-1.183.234-.616 0-1.17-.146-1.66-.438-.488-.292-.874-.716-1.159-1.273-.282-.556-.422-1.233-.422-2.028 0-.782.137-1.463.412-2.043.275-.584.658-1.034 1.149-1.353.49-.321 1.057-.482 1.7-.482.497 0 .892.083 1.183.249.295.162.521.348.676.557.159.205.282.374.368.507h.12v-1.213h1.133v7.855c0 .656-.149 1.19-.447 1.6a2.547 2.547 0 0 1-1.194.91 4.497 4.497 0 0 1-1.66.294Zm-.04-4.196c.471 0 .869-.108 1.193-.323.325-.216.572-.526.741-.93.169-.405.254-.888.254-1.452 0-.55-.083-1.036-.249-1.456a2.187 2.187 0 0 0-.736-.99c-.325-.238-.726-.358-1.203-.358-.497 0-.911.126-1.243.378-.328.252-.575.59-.741 1.014a3.93 3.93 0 0 0-.243 1.412c0 .53.083 1 .248 1.407.169.404.418.723.746.955.332.228.743.343 1.233.343ZM302.369 32v-7.636h1.133v1.153h.08c.139-.378.391-.684.756-.92a2.22 2.22 0 0 1 1.232-.353c.087 0 .194.002.324.005.129.004.227.009.293.015v1.193a3.492 3.492 0 0 0-.273-.044 2.703 2.703 0 0 0-.443-.035c-.371 0-.703.078-.994.233a1.712 1.712 0 0 0-.935 1.556V32h-1.173Zm8.178.16c-.736 0-1.37-.163-1.904-.488a3.27 3.27 0 0 1-1.228-1.372c-.285-.59-.428-1.276-.428-2.059 0-.782.143-1.471.428-2.068.288-.6.689-1.067 1.203-1.402.517-.338 1.12-.507 1.81-.507.397 0 .79.067 1.178.2.388.132.741.347 1.059.645.318.295.572.686.761 1.174.189.487.283 1.087.283 1.8v.497h-5.886v-1.015h4.693c0-.43-.086-.815-.259-1.153a1.948 1.948 0 0 0-.726-.8c-.311-.196-.679-.294-1.103-.294-.468 0-.872.116-1.213.348a2.289 2.289 0 0 0-.781.895 2.632 2.632 0 0 0-.273 1.183v.677c0 .576.099 1.065.298 1.466.202.398.482.701.84.91.358.205.774.308 1.248.308.308 0 .587-.043.835-.13.252-.089.469-.221.652-.397.182-.179.323-.4.422-.666l1.134.318a2.51 2.51 0 0 1-.602 1.014c-.282.289-.63.514-1.044.677-.414.159-.88.238-1.397.238Zm7.194.019c-.484 0-.923-.091-1.318-.274a2.262 2.262 0 0 1-.939-.8c-.232-.351-.348-.776-.348-1.273 0-.437.086-.792.258-1.064.173-.275.403-.49.691-.646.289-.156.607-.272.955-.348.351-.08.704-.142 1.059-.189.464-.06.84-.104 1.128-.134.292-.033.504-.088.637-.164.136-.076.204-.209.204-.398v-.04c0-.49-.135-.871-.403-1.143-.265-.272-.668-.408-1.208-.408-.56 0-.999.123-1.318.368-.318.245-.542.507-.671.786l-1.113-.398c.198-.464.464-.825.795-1.084a2.978 2.978 0 0 1 1.094-.547 4.546 4.546 0 0 1 1.173-.159c.245 0 .527.03.845.09.322.056.632.174.93.353.302.179.552.449.751.81.199.361.298.845.298 1.452V32h-1.173v-1.034h-.06a2.07 2.07 0 0 1-.398.532 2.27 2.27 0 0 1-.741.482c-.308.133-.684.199-1.128.199Zm.179-1.054c.464 0 .855-.091 1.173-.273a1.863 1.863 0 0 0 .975-1.616v-1.074c-.05.06-.159.114-.328.164a5.554 5.554 0 0 1-.577.124 26.457 26.457 0 0 1-1.124.15c-.305.04-.59.104-.855.193a1.47 1.47 0 0 0-.636.393c-.159.172-.239.408-.239.706 0 .408.151.716.453.925.304.205.691.308 1.158.308Zm8.783-6.761v.994h-3.957v-.994h3.957Zm-2.803-1.83h1.173v7.279c0 .33.048.58.144.745a.744.744 0 0 0 .378.328c.156.053.32.08.492.08.129 0 .235-.007.318-.02l.199-.04.239 1.054c-.08.03-.191.06-.333.09-.143.033-.324.05-.542.05a2.37 2.37 0 0 1-.975-.214 1.936 1.936 0 0 1-.785-.652c-.206-.291-.308-.66-.308-1.103v-7.597ZM334.136 32l-2.327-7.636h1.233l1.651 5.846h.079l1.631-5.846h1.253l1.611 5.826h.079l1.651-5.826h1.233L339.903 32h-1.153l-1.671-5.866h-.119L335.289 32h-1.153Zm9.645 0v-7.636h1.173V32h-1.173Zm.596-8.91a.834.834 0 0 1-.591-.233.749.749 0 0 1-.244-.561c0-.22.081-.407.244-.562a.834.834 0 0 1 .591-.234c.229 0 .425.078.587.234a.743.743 0 0 1 .249.561.743.743 0 0 1-.249.562.817.817 0 0 1-.587.234Zm6.047 1.274v.994h-3.957v-.994h3.957Zm-2.804-1.83h1.174v7.279c0 .33.048.58.144.745a.744.744 0 0 0 .378.328c.155.053.319.08.492.08.129 0 .235-.007.318-.02l.199-.04.238 1.054c-.079.03-.19.06-.333.09-.142.033-.323.05-.542.05a2.36 2.36 0 0 1-.974-.214 1.939 1.939 0 0 1-.786-.652c-.205-.291-.308-.66-.308-1.103v-7.597Zm5.906 4.872V32h-1.173V21.818h1.173v3.739h.1c.179-.395.447-.708.805-.94.362-.235.842-.353 1.442-.353.52 0 .976.105 1.367.313.391.206.695.522.91.95.219.424.328.964.328 1.62V32h-1.173v-4.773c0-.606-.158-1.075-.472-1.407-.312-.334-.745-.502-1.298-.502a2.16 2.16 0 0 0-1.034.244c-.302.162-.54.4-.716.71-.172.312-.259.69-.259 1.134ZM19.829 51.864a2.57 2.57 0 0 1-.531-.05 1.4 1.4 0 0 1-.324-.09l.299-1.034c.285.073.537.1.755.08a.906.906 0 0 0 .582-.293c.172-.173.33-.453.472-.84l.22-.597-2.825-7.676h1.273l2.108 6.085h.08l2.108-6.085h1.272l-3.241 8.75a3.31 3.31 0 0 1-.542.979 2.03 2.03 0 0 1-.75.582 2.32 2.32 0 0 1-.956.189Zm9.867-2.705c-.69 0-1.295-.164-1.815-.492a3.344 3.344 0 0 1-1.213-1.377c-.288-.59-.433-1.28-.433-2.068 0-.796.145-1.49.433-2.084a3.337 3.337 0 0 1 1.213-1.382c.52-.328 1.125-.492 1.815-.492s1.292.164 1.81.492c.52.328.924.79 1.212 1.383.292.593.438 1.287.438 2.083 0 .788-.146 1.478-.438 2.068a3.298 3.298 0 0 1-1.213 1.377c-.517.328-1.12.492-1.81.492Zm0-1.054c.523 0 .954-.134 1.292-.403a2.37 2.37 0 0 0 .751-1.058c.162-.438.244-.912.244-1.422 0-.51-.082-.986-.244-1.427a2.405 2.405 0 0 0-.75-1.07c-.339-.27-.77-.407-1.293-.407-.524 0-.955.136-1.293.408a2.404 2.404 0 0 0-.75 1.069c-.163.44-.244.916-.244 1.427 0 .51.08.984.243 1.422.163.437.413.79.751 1.058.338.269.769.403 1.293.403Zm10.063-2.227v-4.514h1.174V49h-1.174v-1.293h-.08a2.504 2.504 0 0 1-.834.99c-.378.268-.855.402-1.432.402a2.55 2.55 0 0 1-1.273-.313 2.192 2.192 0 0 1-.875-.954c-.212-.428-.318-.967-.318-1.616v-4.852h1.173v4.772c0 .557.156 1.001.468 1.333.314.331.715.497 1.203.497.291 0 .588-.075.89-.224.305-.149.56-.378.765-.686.209-.308.313-.7.313-1.178ZM43.082 49v-7.636h1.133v1.153h.08c.139-.378.39-.684.755-.92a2.225 2.225 0 0 1 1.233-.353c.087 0 .194.002.323.005.13.004.228.009.294.015v1.193a3.458 3.458 0 0 0-.274-.044 2.691 2.691 0 0 0-.442-.035c-.371 0-.703.078-.994.233a1.714 1.714 0 0 0-.935 1.556V49h-1.173Zm15.39-7.636L55.65 49h-1.194l-2.823-7.636h1.272l2.108 6.085h.08l2.108-6.085h1.272Zm3.564 7.815c-.484 0-.923-.091-1.318-.273a2.26 2.26 0 0 1-.94-.8c-.231-.352-.347-.776-.347-1.274 0-.437.086-.792.258-1.063.173-.276.403-.491.691-.647.289-.156.607-.272.955-.348.351-.08.704-.142 1.059-.189.464-.06.84-.104 1.128-.134.292-.033.504-.088.637-.164.136-.076.204-.209.204-.398v-.04c0-.49-.135-.871-.403-1.143-.265-.272-.668-.408-1.208-.408-.56 0-1 .123-1.318.368-.318.245-.542.507-.67.786l-1.114-.398c.198-.464.464-.825.795-1.084.335-.262.7-.444 1.094-.547a4.54 4.54 0 0 1 1.173-.159c.245 0 .527.03.845.09.322.056.632.174.93.353.302.179.552.449.75.81.2.361.299.845.299 1.452V49h-1.173v-1.034h-.06c-.08.166-.212.343-.398.532-.185.189-.432.35-.74.482-.309.133-.685.199-1.13.199Zm.179-1.054c.464 0 .855-.091 1.173-.273a1.862 1.862 0 0 0 .975-1.616v-1.074c-.05.06-.16.114-.329.164a5.542 5.542 0 0 1-.576.124 26.343 26.343 0 0 1-1.124.15c-.305.04-.59.104-.855.193a1.474 1.474 0 0 0-.636.393c-.16.172-.239.408-.239.706 0 .408.15.716.453.925.304.205.69.308 1.158.308Zm8.565 1.034c-.716 0-1.333-.169-1.85-.507a3.306 3.306 0 0 1-1.193-1.397c-.278-.593-.418-1.271-.418-2.033 0-.776.143-1.46.428-2.054a3.38 3.38 0 0 1 1.203-1.397c.517-.338 1.12-.507 1.81-.507.537 0 1.02.1 1.451.298.431.2.784.478 1.06.836a2.6 2.6 0 0 1 .511 1.253H72.61a1.822 1.822 0 0 0-.596-.925c-.305-.272-.716-.408-1.233-.408-.458 0-.859.12-1.204.358-.34.235-.608.569-.8 1-.189.427-.283.93-.283 1.506 0 .59.093 1.103.278 1.541.189.438.454.777.796 1.02.344.241.749.362 1.213.362.305 0 .581-.053.83-.159a1.702 1.702 0 0 0 .999-1.173h1.174a2.72 2.72 0 0 1-.493 1.218 2.75 2.75 0 0 1-1.029.855c-.424.209-.918.313-1.481.313Zm6.965.02c-.484 0-.923-.091-1.318-.273a2.262 2.262 0 0 1-.94-.8c-.231-.352-.347-.776-.347-1.274 0-.437.086-.792.258-1.063.173-.276.403-.491.691-.647.289-.156.607-.272.955-.348.351-.08.704-.142 1.059-.189.464-.06.84-.104 1.128-.134.292-.033.504-.088.637-.164.136-.076.204-.209.204-.398v-.04c0-.49-.135-.871-.403-1.143-.265-.272-.668-.408-1.208-.408-.56 0-1 .123-1.318.368-.318.245-.542.507-.67.786l-1.114-.398c.198-.464.464-.825.795-1.084a2.98 2.98 0 0 1 1.094-.547 4.54 4.54 0 0 1 1.173-.159c.245 0 .527.03.845.09a2.7 2.7 0 0 1 .93.353c.302.179.552.449.75.81.2.361.299.845.299 1.452V49h-1.173v-1.034h-.06c-.08.166-.212.343-.398.532-.185.189-.432.35-.74.482-.309.133-.685.199-1.13.199Zm.179-1.054c.464 0 .855-.091 1.173-.273a1.862 1.862 0 0 0 .975-1.616v-1.074c-.05.06-.16.114-.329.164a5.542 5.542 0 0 1-.576.124 26.343 26.343 0 0 1-1.124.15c-.305.04-.59.104-.855.193a1.474 1.474 0 0 0-.636.393c-.16.172-.239.408-.239.706 0 .408.15.716.452.925.305.205.692.308 1.159.308Zm8.783-6.761v.994H82.75v-.994h3.957Zm-2.804-1.83h1.174v7.279c0 .33.048.58.144.745.1.163.225.272.378.328.155.053.32.08.492.08.13 0 .235-.007.318-.02l.199-.04.239 1.054c-.08.03-.191.06-.334.09a2.45 2.45 0 0 1-.541.05 2.37 2.37 0 0 1-.975-.214 1.938 1.938 0 0 1-.785-.652c-.206-.291-.309-.66-.309-1.103v-7.597ZM88.473 49v-7.636h1.173V49h-1.174Zm.596-8.91a.834.834 0 0 1-.592-.233.75.75 0 0 1-.243-.562.75.75 0 0 1 .243-.561.834.834 0 0 1 .592-.234c.229 0 .424.078.587.234a.743.743 0 0 1 .248.561.743.743 0 0 1-.248.562.817.817 0 0 1-.587.234Zm5.828 9.07c-.69 0-1.294-.165-1.815-.493a3.345 3.345 0 0 1-1.213-1.377c-.288-.59-.432-1.28-.432-2.068 0-.796.144-1.49.432-2.084a3.338 3.338 0 0 1 1.213-1.382c.52-.328 1.125-.492 1.815-.492s1.292.164 1.81.492c.52.328.924.79 1.213 1.383.291.593.437 1.287.437 2.083 0 .788-.146 1.478-.437 2.068a3.298 3.298 0 0 1-1.213 1.377c-.517.328-1.12.492-1.81.492Zm0-1.055c.523 0 .954-.134 1.292-.403.339-.268.589-.621.751-1.058.163-.438.244-.912.244-1.422 0-.51-.081-.986-.244-1.427a2.405 2.405 0 0 0-.75-1.07c-.339-.27-.77-.407-1.293-.407-.524 0-.955.136-1.293.408a2.405 2.405 0 0 0-.75 1.069c-.163.44-.244.916-.244 1.427 0 .51.081.984.243 1.422.163.437.413.79.751 1.058.338.269.77.403 1.293.403Zm6.424-3.699V49h-1.173v-7.636h1.134v1.193h.099c.179-.388.451-.7.815-.935.365-.239.836-.358 1.412-.358.517 0 .97.106 1.358.318.387.21.689.527.904.955.216.424.324.961.324 1.61V49h-1.174v-4.773c0-.6-.156-1.067-.467-1.402-.312-.338-.739-.507-1.283-.507-.374 0-.709.081-1.004.244a1.74 1.74 0 0 0-.691.71c-.169.312-.254.69-.254 1.134Zm16.363-1.332-1.054.298a1.955 1.955 0 0 0-.293-.512 1.421 1.421 0 0 0-.517-.417c-.219-.11-.499-.165-.84-.165-.468 0-.857.108-1.169.324-.308.212-.462.482-.462.81 0 .292.106.522.318.691.212.169.544.31.994.423l1.134.278c.683.166 1.191.42 1.526.76.335.339.502.775.502 1.308 0 .438-.126.829-.378 1.173-.248.345-.596.617-1.044.816-.447.199-.967.298-1.561.298-.779 0-1.423-.169-1.934-.507-.51-.338-.833-.832-.969-1.482l1.114-.278c.106.411.306.72.601.925.298.205.688.308 1.168.308.547 0 .982-.116 1.303-.348.325-.235.487-.517.487-.845a.89.89 0 0 0-.278-.666c-.186-.183-.471-.319-.855-.408l-1.273-.298c-.699-.166-1.213-.423-1.541-.77-.325-.352-.487-.791-.487-1.318 0-.431.121-.812.363-1.144.245-.331.578-.592.999-.78a3.51 3.51 0 0 1 1.442-.284c.755 0 1.349.166 1.779.497.435.332.743.77.925 1.313Zm4.153 6.105c-.484 0-.923-.091-1.318-.273a2.262 2.262 0 0 1-.939-.8c-.232-.352-.348-.776-.348-1.274 0-.437.086-.792.258-1.063.172-.276.403-.491.691-.647.288-.156.607-.272.955-.348.351-.08.704-.142 1.059-.189.464-.06.84-.104 1.128-.134.292-.033.504-.088.637-.164.135-.076.203-.209.203-.398v-.04c0-.49-.134-.871-.402-1.143-.265-.272-.668-.408-1.208-.408-.561 0-1 .123-1.318.368-.318.245-.542.507-.671.786l-1.114-.398c.199-.464.464-.825.796-1.084a2.974 2.974 0 0 1 1.093-.547 4.547 4.547 0 0 1 1.174-.159c.245 0 .527.03.845.09.321.056.631.174.93.353.301.179.551.449.75.81.199.361.299.845.299 1.452V49h-1.174v-1.034h-.059a2.07 2.07 0 0 1-.398.532c-.186.189-.433.35-.741.482-.308.133-.684.199-1.128.199Zm.179-1.054c.464 0 .855-.091 1.173-.273a1.87 1.87 0 0 0 .726-.706c.165-.289.248-.592.248-.91v-1.074c-.049.06-.159.114-.328.164a5.531 5.531 0 0 1-.576.124 26.457 26.457 0 0 1-1.124.15c-.305.04-.59.104-.855.193a1.479 1.479 0 0 0-.637.393c-.159.172-.238.408-.238.706 0 .408.151.716.452.925.305.205.691.308 1.159.308Zm11.433-6.761L130.625 49h-1.193l-2.824-7.636h1.273l2.108 6.085h.079l2.108-6.085h1.273ZM134.998 49v-7.636h1.173V49h-1.173Zm.596-8.91a.833.833 0 0 1-.591-.233.749.749 0 0 1-.244-.562c0-.218.081-.406.244-.561a.833.833 0 0 1 .591-.234c.229 0 .425.078.587.234a.743.743 0 0 1 .249.561.743.743 0 0 1-.249.562.817.817 0 0 1-.587.234Zm3.899 4.316V49h-1.173v-7.636h1.133v1.193h.1c.179-.388.451-.7.815-.935.365-.239.835-.358 1.412-.358.517 0 .97.106 1.357.318.388.21.69.527.905.955.216.424.323.961.323 1.61V49h-1.173v-4.773c0-.6-.156-1.067-.467-1.402-.312-.338-.739-.507-1.283-.507-.374 0-.709.081-1.004.244a1.74 1.74 0 0 0-.691.71c-.169.312-.254.69-.254 1.134Zm10.099 7.617c-.567 0-1.054-.073-1.462-.219a3.1 3.1 0 0 1-1.019-.567 3.108 3.108 0 0 1-.641-.745l.934-.657c.106.14.241.298.403.477.162.183.384.34.666.473.285.136.658.204 1.119.204.616 0 1.125-.15 1.526-.448.401-.298.602-.765.602-1.402v-1.55h-.1c-.086.138-.209.31-.368.516-.155.202-.381.383-.676.542-.291.156-.686.234-1.183.234-.617 0-1.17-.146-1.661-.438-.487-.291-.873-.716-1.158-1.273-.282-.556-.423-1.233-.423-2.028 0-.782.138-1.463.413-2.043.275-.584.658-1.034 1.149-1.353.49-.321 1.057-.482 1.7-.482.497 0 .891.083 1.183.249.295.162.52.348.676.557.159.205.282.374.368.507h.119v-1.213h1.134v7.855c0 .656-.149 1.19-.448 1.6a2.54 2.54 0 0 1-1.193.91 4.497 4.497 0 0 1-1.66.294Zm-.04-4.196c.471 0 .868-.108 1.193-.323.325-.216.572-.526.741-.93.169-.404.254-.888.254-1.452 0-.55-.083-1.036-.249-1.456a2.187 2.187 0 0 0-.736-.99c-.325-.239-.726-.358-1.203-.358-.497 0-.911.126-1.243.378-.328.252-.575.59-.741 1.014a3.93 3.93 0 0 0-.243 1.412c0 .53.083 1 .248 1.407.169.404.418.723.746.955.332.228.742.343 1.233.343Zm10.898-4.753-1.054.298a1.96 1.96 0 0 0-.294-.512 1.413 1.413 0 0 0-.517-.417c-.218-.11-.498-.165-.84-.165-.467 0-.857.108-1.168.324-.308.212-.462.482-.462.81 0 .292.106.522.318.691.212.169.543.31.994.423l1.134.278c.682.166 1.191.42 1.526.76.335.339.502.775.502 1.308 0 .438-.126.829-.378 1.173-.248.345-.596.617-1.044.816-.447.199-.968.298-1.561.298-.779 0-1.424-.169-1.934-.507-.51-.338-.834-.832-.969-1.482l1.113-.278c.106.411.307.72.602.925.298.205.688.308 1.168.308.547 0 .981-.116 1.303-.348.324-.235.487-.517.487-.845a.887.887 0 0 0-.279-.666c-.185-.183-.47-.319-.855-.408l-1.272-.298c-.7-.166-1.213-.423-1.542-.77-.324-.352-.487-.791-.487-1.318 0-.431.121-.812.363-1.144.245-.331.579-.592.999-.78a3.513 3.513 0 0 1 1.442-.284c.756 0 1.349.166 1.78.497.434.332.742.77.925 1.313Zm2.76 6.006a.86.86 0 0 1-.631-.264.86.86 0 0 1-.264-.631.86.86 0 0 1 .264-.632.86.86 0 0 1 .631-.263c.245 0 .456.088.632.263a.863.863 0 0 1 .263.632.93.93 0 0 1-.447.776.855.855 0 0 1-.448.119Zm6.222-10.262h1.412l2.824 4.753h.119l2.824-4.753h1.412l-3.679 5.986V49h-1.233v-4.196l-3.679-5.986Zm12.049 10.341c-.69 0-1.294-.164-1.815-.492a3.346 3.346 0 0 1-1.213-1.377c-.288-.59-.432-1.28-.432-2.068 0-.796.144-1.49.432-2.084a3.34 3.34 0 0 1 1.213-1.382c.521-.328 1.125-.492 1.815-.492.689 0 1.292.164 1.809.492.521.328.925.79 1.214 1.383.291.593.437 1.287.437 2.083 0 .788-.146 1.478-.437 2.068a3.3 3.3 0 0 1-1.214 1.377c-.517.328-1.12.492-1.809.492Zm0-1.054c.523 0 .954-.134 1.292-.403.339-.268.589-.621.751-1.058.163-.438.244-.912.244-1.422 0-.51-.081-.986-.244-1.427a2.394 2.394 0 0 0-.751-1.07c-.338-.27-.769-.407-1.292-.407-.524 0-.955.136-1.293.408a2.4 2.4 0 0 0-.75 1.069c-.163.44-.244.916-.244 1.427 0 .51.081.984.244 1.422.162.437.412.79.75 1.058.338.269.769.403 1.293.403Zm10.064-2.227v-4.514h1.173V49h-1.173v-1.293h-.08a2.503 2.503 0 0 1-.835.99c-.378.268-.855.402-1.432.402a2.55 2.55 0 0 1-1.273-.313 2.192 2.192 0 0 1-.875-.954c-.212-.428-.318-.967-.318-1.616v-4.852h1.173v4.772c0 .557.156 1.001.468 1.333.315.331.716.497 1.203.497.291 0 .588-.075.89-.224.305-.149.56-.378.765-.686.209-.308.314-.7.314-1.178Zm4.336-7.06v3.5h-1.094v-3.5h1.094Zm8.334 2.546L201.391 49h-1.193l-2.824-7.636h1.272l2.108 6.085h.08l2.108-6.085h1.273Zm4.477 7.795c-.736 0-1.371-.162-1.905-.487a3.276 3.276 0 0 1-1.228-1.372c-.285-.59-.427-1.276-.427-2.058 0-.783.142-1.472.427-2.069.289-.6.69-1.067 1.204-1.402.517-.338 1.12-.507 1.809-.507.398 0 .791.066 1.179.2.387.132.74.347 1.058.645.319.295.572.686.761 1.174.189.487.284 1.087.284 1.8v.497h-5.887v-1.015h4.693c0-.43-.086-.815-.258-1.153a1.948 1.948 0 0 0-.726-.8c-.312-.196-.679-.294-1.104-.294-.467 0-.871.116-1.213.348a2.286 2.286 0 0 0-.78.895 2.62 2.62 0 0 0-.274 1.183v.676c0 .577.1 1.066.299 1.467.202.398.482.701.84.91.358.205.774.308 1.248.308.308 0 .586-.043.835-.13a1.77 1.77 0 0 0 .651-.397c.182-.179.323-.4.423-.666l1.133.318c-.119.385-.32.723-.601 1.014-.282.289-.63.514-1.044.676-.415.16-.88.24-1.397.24Zm14.293-6.085-1.054.298a1.955 1.955 0 0 0-.293-.512 1.43 1.43 0 0 0-.517-.417c-.219-.11-.499-.165-.841-.165-.467 0-.856.108-1.168.324-.308.212-.462.482-.462.81 0 .292.106.522.318.691.212.169.543.31.994.423l1.134.278c.682.166 1.191.42 1.526.76.335.339.502.775.502 1.308 0 .438-.126.829-.378 1.173-.248.345-.596.617-1.044.816-.447.199-.968.298-1.561.298-.779 0-1.423-.169-1.934-.507-.51-.338-.833-.832-.969-1.482l1.113-.278c.106.411.307.72.602.925.298.205.688.308 1.168.308.547 0 .981-.116 1.303-.348.325-.235.487-.517.487-.845a.89.89 0 0 0-.278-.666c-.186-.183-.471-.319-.855-.408l-1.273-.298c-.7-.166-1.213-.423-1.541-.77-.325-.352-.488-.791-.488-1.318 0-.431.121-.812.363-1.144a2.477 2.477 0 0 1 1-.78 3.504 3.504 0 0 1 1.441-.284c.756 0 1.349.166 1.78.497.434.332.743.77.925 1.313Zm4.152 6.105c-.483 0-.923-.091-1.317-.273a2.264 2.264 0 0 1-.94-.8c-.232-.352-.348-.776-.348-1.274 0-.437.086-.792.259-1.063.172-.276.403-.491.691-.647.288-.156.606-.272.954-.348.352-.08.705-.142 1.059-.189.464-.06.841-.104 1.129-.134.292-.033.504-.088.636-.164.136-.076.204-.209.204-.398v-.04c0-.49-.134-.871-.403-1.143-.265-.272-.667-.408-1.208-.408-.56 0-.999.123-1.317.368-.318.245-.542.507-.671.786l-1.114-.398c.199-.464.464-.825.796-1.084a2.974 2.974 0 0 1 1.093-.547 4.547 4.547 0 0 1 1.174-.159c.245 0 .527.03.845.09.321.056.631.174.929.353.302.179.552.449.751.81.199.361.298.845.298 1.452V49h-1.173v-1.034h-.06a2.064 2.064 0 0 1-.397.532c-.186.189-.433.35-.741.482-.308.133-.684.199-1.129.199Zm.179-1.054c.464 0 .856-.091 1.174-.273a1.87 1.87 0 0 0 .726-.706c.165-.289.248-.592.248-.91v-1.074c-.05.06-.159.114-.328.164a5.554 5.554 0 0 1-.577.124 26.387 26.387 0 0 1-1.123.15c-.305.04-.59.104-.855.193a1.479 1.479 0 0 0-.637.393c-.159.172-.238.408-.238.706 0 .408.15.716.452.925.305.205.691.308 1.158.308Zm11.434-6.761L235.926 49h-1.193l-2.824-7.636h1.273l2.108 6.085h.079l2.108-6.085h1.273Zm4.477 7.795c-.736 0-1.371-.162-1.904-.487a3.263 3.263 0 0 1-1.228-1.372c-.285-.59-.428-1.276-.428-2.058 0-.783.143-1.472.428-2.069.288-.6.689-1.067 1.203-1.402.517-.338 1.12-.507 1.809-.507.398 0 .791.066 1.179.2.387.132.74.347 1.059.645.318.295.571.686.76 1.174.189.487.284 1.087.284 1.8v.497h-5.887v-1.015h4.693c0-.43-.086-.815-.258-1.153a1.948 1.948 0 0 0-.726-.8c-.311-.196-.679-.294-1.104-.294-.467 0-.871.116-1.213.348a2.286 2.286 0 0 0-.78.895 2.633 2.633 0 0 0-.274 1.183v.676c0 .577.1 1.066.299 1.467.202.398.482.701.84.91.358.205.774.308 1.248.308.308 0 .586-.043.835-.13a1.77 1.77 0 0 0 .651-.397c.183-.179.323-.4.423-.666l1.133.318a2.505 2.505 0 0 1-.601 1.014c-.282.289-.63.514-1.044.676-.415.16-.88.24-1.397.24Zm7.83 0c-.636 0-1.198-.16-1.685-.482-.488-.325-.869-.782-1.144-1.372-.275-.594-.412-1.295-.412-2.103 0-.802.137-1.498.412-2.088.275-.59.658-1.046 1.149-1.368.49-.321 1.057-.482 1.7-.482.497 0 .89.083 1.178.249.292.162.514.348.666.557.156.205.277.374.363.507h.1v-3.759h1.173V49h-1.134v-1.173h-.139a7.5 7.5 0 0 1-.368.527 2.182 2.182 0 0 1-.681.562c-.295.162-.687.243-1.178.243Zm.159-1.054c.471 0 .868-.122 1.193-.368.325-.248.572-.591.741-1.029.169-.44.254-.95.254-1.526 0-.57-.083-1.07-.249-1.497-.166-.43-.411-.765-.736-1.004-.325-.242-.726-.363-1.203-.363-.497 0-.911.128-1.243.383a2.295 2.295 0 0 0-.741 1.03 4.1 4.1 0 0 0-.243 1.45c0 .544.083 1.038.248 1.482.169.441.418.793.746 1.054.332.259.743.388 1.233.388Zm12.573 2.168V37.545h.816v12.728h-.816Zm2.745-8.91a1.563 1.563 0 0 0-.726-1.173c-.425-.278-.945-.417-1.561-.417-.451 0-.846.073-1.184.218a1.893 1.893 0 0 0-.785.602 1.44 1.44 0 0 0-.279.87c0 .272.065.505.194.701.133.192.302.353.507.482.206.126.421.23.647.313.225.08.432.145.621.194l1.034.279c.265.07.56.165.885.288.328.123.642.29.94.502.301.21.55.478.746.806.195.328.293.73.293 1.208 0 .55-.144 1.047-.433 1.491-.285.444-.702.797-1.252 1.06-.547.261-1.212.392-1.994.392-.729 0-1.361-.118-1.894-.353-.531-.235-.948-.563-1.253-.984a2.807 2.807 0 0 1-.512-1.467h1.273c.033.385.162.703.387.955a2.1 2.1 0 0 0 .865.556c.352.12.73.18 1.134.18.471 0 .893-.077 1.268-.23a2.18 2.18 0 0 0 .89-.646c.218-.278.328-.603.328-.974 0-.338-.095-.613-.284-.825a2.08 2.08 0 0 0-.745-.517 7.878 7.878 0 0 0-1-.348l-1.252-.358c-.796-.23-1.426-.556-1.89-.98-.464-.424-.696-.98-.696-1.665 0-.57.154-1.068.463-1.492a3.07 3.07 0 0 1 1.252-.994 4.234 4.234 0 0 1 1.765-.358c.657 0 1.24.118 1.75.353.511.232.915.55 1.213.955.302.404.461.863.478 1.377h-1.193Zm6.362 7.776a3.496 3.496 0 0 1-1.576-.348 2.933 2.933 0 0 1-1.124-.954 2.61 2.61 0 0 1-.462-1.383h1.193c.047.461.255.842.627 1.144.374.298.822.447 1.342.447.418 0 .789-.097 1.114-.293.328-.195.585-.464.77-.805a2.39 2.39 0 0 0 .284-1.169c0-.444-.098-.84-.294-1.188a2.15 2.15 0 0 0-.795-.83 2.248 2.248 0 0 0-1.159-.308 3.18 3.18 0 0 0-.959.144 2.65 2.65 0 0 0-.81.373l-1.154-.14.617-5.01h5.289v1.093h-4.255l-.358 3.003h.059a2.66 2.66 0 0 1 .786-.413 2.98 2.98 0 0 1 .984-.164 3.138 3.138 0 0 1 2.819 1.661c.282.513.423 1.1.423 1.76 0 .65-.146 1.23-.438 1.74a3.196 3.196 0 0 1-1.193 1.203c-.507.291-1.084.437-1.73.437Zm8.657 0c-.749 0-1.387-.204-1.914-.611-.527-.411-.93-1.006-1.208-1.785-.279-.782-.418-1.727-.418-2.834 0-1.1.139-2.04.418-2.819.281-.782.686-1.379 1.213-1.79.53-.414 1.166-.621 1.909-.621.742 0 1.377.207 1.904.621.53.411.935 1.008 1.213 1.79.282.78.423 1.719.423 2.82 0 1.106-.14 2.05-.418 2.833-.279.779-.681 1.374-1.208 1.785-.527.407-1.165.611-1.914.611Zm0-1.094c.742 0 1.319-.358 1.73-1.073.411-.716.616-1.737.616-3.063 0-.881-.094-1.632-.283-2.252-.186-.62-.454-1.092-.805-1.417a1.779 1.779 0 0 0-1.258-.487c-.736 0-1.311.363-1.725 1.089-.415.722-.622 1.745-.622 3.067 0 .882.093 1.63.279 2.247.185.617.452 1.086.8 1.407a1.81 1.81 0 0 0 1.268.482Zm8.75 1.094c-.749 0-1.387-.204-1.914-.611-.527-.411-.93-1.006-1.208-1.785-.279-.782-.418-1.727-.418-2.834 0-1.1.139-2.04.418-2.819.281-.782.686-1.379 1.213-1.79.53-.414 1.166-.621 1.909-.621.742 0 1.377.207 1.904.621.53.411.935 1.008 1.213 1.79.282.78.423 1.719.423 2.82 0 1.106-.14 2.05-.418 2.833-.279.779-.681 1.374-1.208 1.785-.527.407-1.165.611-1.914.611Zm0-1.094c.742 0 1.319-.358 1.73-1.073.411-.716.616-1.737.616-3.063 0-.881-.094-1.632-.283-2.252-.186-.62-.454-1.092-.805-1.417a1.779 1.779 0 0 0-1.258-.487c-.736 0-1.311.363-1.725 1.089-.415.722-.622 1.745-.622 3.067 0 .882.093 1.63.279 2.247.185.617.452 1.086.8 1.407a1.81 1.81 0 0 0 1.268.482Zm14.795-4.971-1.054.298a1.955 1.955 0 0 0-.293-.512 1.421 1.421 0 0 0-.517-.417c-.219-.11-.499-.165-.84-.165-.468 0-.857.108-1.169.324-.308.212-.462.482-.462.81 0 .292.106.522.318.691.212.169.544.31.994.423l1.134.278c.683.166 1.192.42 1.526.76.335.339.502.775.502 1.308 0 .438-.126.829-.377 1.173-.249.345-.597.617-1.044.816-.448.199-.968.298-1.562.298-.778 0-1.423-.169-1.934-.507-.51-.338-.833-.832-.969-1.482l1.114-.278c.106.411.306.72.601.925.299.205.688.308 1.169.308.546 0 .981-.116 1.302-.348.325-.235.487-.517.487-.845a.886.886 0 0 0-.278-.666c-.186-.183-.471-.319-.855-.408l-1.273-.298c-.699-.166-1.213-.423-1.541-.77-.325-.352-.487-.791-.487-1.318 0-.431.121-.812.363-1.144.245-.331.578-.592.999-.78a3.51 3.51 0 0 1 1.442-.284c.755 0 1.349.166 1.779.497.435.332.743.77.925 1.313Zm5.008 6.085c-.69 0-1.294-.164-1.815-.492a3.346 3.346 0 0 1-1.213-1.377c-.288-.59-.432-1.28-.432-2.068 0-.796.144-1.49.432-2.084a3.34 3.34 0 0 1 1.213-1.382c.521-.328 1.125-.492 1.815-.492.689 0 1.292.164 1.809.492.521.328.925.79 1.214 1.383.291.593.437 1.287.437 2.083 0 .788-.146 1.478-.437 2.068a3.3 3.3 0 0 1-1.214 1.377c-.517.328-1.12.492-1.809.492Zm0-1.054c.523 0 .954-.134 1.292-.403.339-.268.589-.621.751-1.058.163-.438.244-.912.244-1.422 0-.51-.081-.986-.244-1.427a2.394 2.394 0 0 0-.751-1.07c-.338-.27-.769-.407-1.292-.407-.524 0-.955.136-1.293.408a2.41 2.41 0 0 0-.751 1.069 4.1 4.1 0 0 0-.243 1.427c0 .51.081.984.243 1.422.163.437.413.79.751 1.058.338.269.769.403 1.293.403Zm12.589-6.741v.994h-4.116v-.994h4.116ZM319.812 49v-8.69c0-.438.102-.802.308-1.094.205-.292.472-.51.8-.656a2.53 2.53 0 0 1 1.039-.22c.289 0 .524.024.706.07.183.047.318.09.408.13l-.338 1.014a5.947 5.947 0 0 0-.249-.075 1.5 1.5 0 0 0-.407-.044c-.388 0-.668.097-.841.293-.169.195-.253.482-.253.86V49h-1.173Zm6.556.179c-.484 0-.923-.091-1.318-.273a2.262 2.262 0 0 1-.939-.8c-.232-.352-.348-.776-.348-1.274 0-.437.086-.792.258-1.063.173-.276.403-.491.691-.647.289-.156.607-.272.955-.348.351-.08.704-.142 1.059-.189.464-.06.84-.104 1.128-.134.292-.033.504-.088.637-.164.136-.076.204-.209.204-.398v-.04c0-.49-.135-.871-.403-1.143-.265-.272-.668-.408-1.208-.408-.56 0-.999.123-1.318.368-.318.245-.542.507-.671.786l-1.113-.398c.198-.464.464-.825.795-1.084a2.978 2.978 0 0 1 1.094-.547 4.54 4.54 0 0 1 1.173-.159c.245 0 .527.03.845.09.322.056.632.174.93.353.302.179.552.449.751.81.198.361.298.845.298 1.452V49h-1.173v-1.034h-.06a2.07 2.07 0 0 1-.398.532 2.27 2.27 0 0 1-.741.482c-.308.133-.684.199-1.128.199Zm.179-1.054c.464 0 .855-.091 1.173-.273a1.863 1.863 0 0 0 .975-1.616v-1.074c-.05.06-.159.114-.329.164a5.475 5.475 0 0 1-.576.124 26.457 26.457 0 0 1-1.124.15c-.305.04-.59.104-.855.193a1.47 1.47 0 0 0-.636.393c-.159.172-.239.408-.239.706 0 .408.151.716.452.925.305.205.692.308 1.159.308Zm5.462.875v-7.636h1.134v1.153h.079c.14-.378.392-.684.756-.92a2.227 2.227 0 0 1 1.233-.353c.086 0 .194.002.323.005.13.004.227.009.294.015v1.193a3.46 3.46 0 0 0-.274-.044 2.69 2.69 0 0 0-.442-.035c-.372 0-.703.078-.995.233a1.765 1.765 0 0 0-.686.637 1.72 1.72 0 0 0-.248.92V49h-1.174Zm6.761-10.182-.1 7.318h-1.153l-.1-7.318h1.353Zm-.677 10.262a.862.862 0 0 1-.631-.264.86.86 0 0 1-.263-.631.86.86 0 0 1 .263-.632.861.861 0 0 1 .631-.263c.246 0 .456.088.632.263a.863.863 0 0 1 .263.632.93.93 0 0 1-.447.776.855.855 0 0 1-.448.119Z"/><rect width="115" height="39" x="18" y="70" fill="#E6F2FF" rx="4"/><path fill="#050505" d="M30.58 86.21v-.937h6.545v.937h-2.744V94h-1.057v-7.79H30.58Zm9.045 3.853V94H38.62v-8.727h1.005v3.204h.086a1.85 1.85 0 0 1 .69-.805c.31-.202.721-.303 1.236-.303.446 0 .836.09 1.172.269.335.176.595.447.78.814.187.363.28.826.28 1.389V94h-1.005v-4.09c0-.52-.135-.923-.405-1.207-.267-.287-.638-.43-1.112-.43-.33 0-.625.07-.886.209a1.524 1.524 0 0 0-.614.609c-.148.267-.222.59-.222.972Zm8.01 4.09a2.66 2.66 0 0 1-1.129-.234 1.939 1.939 0 0 1-.805-.686c-.199-.301-.298-.665-.298-1.091 0-.375.074-.679.221-.912.148-.236.345-.42.593-.554a3.12 3.12 0 0 1 .818-.298c.3-.068.604-.122.908-.162.397-.051.72-.09.967-.115.25-.029.432-.075.545-.14.117-.066.175-.18.175-.342v-.034c0-.42-.115-.747-.345-.98-.227-.233-.573-.35-1.036-.35-.48 0-.856.106-1.129.316-.273.21-.464.435-.575.673l-.955-.34c.17-.398.398-.708.682-.93.287-.224.6-.38.938-.468.34-.091.676-.137 1.005-.137.21 0 .452.026.725.077.275.048.54.15.797.303.258.153.472.385.643.694.17.31.256.725.256 1.245V94H49.63v-.886h-.051a1.767 1.767 0 0 1-.341.456c-.16.162-.37.3-.635.413-.264.114-.587.17-.967.17Zm.154-.903c.398 0 .733-.078 1.006-.234a1.595 1.595 0 0 0 .835-1.385v-.92c-.043.05-.136.097-.281.14-.142.04-.307.075-.495.106a22.444 22.444 0 0 1-.963.128 3.91 3.91 0 0 0-.733.166 1.263 1.263 0 0 0-.545.337c-.136.148-.205.35-.205.605 0 .35.13.614.388.793.261.176.593.264.993.264Zm7.529-5.796v.853h-3.392v-.853h3.392Zm-2.404-1.568h1.006v6.239c0 .284.041.497.124.64a.64.64 0 0 0 .324.28c.133.046.274.069.421.069.111 0 .202-.006.273-.017l.17-.034.205.903a2.042 2.042 0 0 1-.285.077 2.102 2.102 0 0 1-.465.042 2.01 2.01 0 0 1-.835-.183 1.66 1.66 0 0 1-.673-.558c-.177-.25-.265-.566-.265-.946v-6.512Zm5.143-.613v.767c0 .233-.043.481-.128.745a3.082 3.082 0 0 1-.367.763 2.696 2.696 0 0 1-.579.64l-.545-.444a5.49 5.49 0 0 0 .464-.797c.133-.278.2-.575.2-.89v-.784h.955Zm5.039 3.648-.903.255a1.682 1.682 0 0 0-.252-.439 1.22 1.22 0 0 0-.443-.358c-.188-.094-.428-.14-.72-.14-.4 0-.735.092-1.002.277-.264.181-.396.413-.396.694 0 .25.09.448.273.593.181.144.466.265.852.362l.972.238c.585.142 1.02.36 1.308.652.287.29.43.664.43 1.121 0 .375-.108.71-.324 1.006a2.147 2.147 0 0 1-.895.699c-.383.17-.83.255-1.338.255-.667 0-1.22-.144-1.657-.434-.438-.29-.715-.713-.831-1.27l.954-.239c.091.353.263.617.516.793.256.176.59.264 1.001.264.47 0 .841-.1 1.117-.298.278-.202.417-.444.417-.725a.761.761 0 0 0-.238-.57c-.16-.157-.404-.273-.733-.35l-1.091-.256c-.6-.142-1.04-.362-1.321-.66-.279-.302-.418-.678-.418-1.13 0-.369.104-.696.311-.98.21-.284.496-.507.857-.669a3.008 3.008 0 0 1 1.236-.243c.647 0 1.156.142 1.525.427.372.283.637.658.793 1.124ZM74.206 88a3.079 3.079 0 0 0-.37-.771 2.383 2.383 0 0 0-.542-.588 2.272 2.272 0 0 0-.707-.371 2.82 2.82 0 0 0-.87-.128 2.59 2.59 0 0 0-1.41.4c-.423.268-.76.661-1.01 1.181s-.375 1.158-.375 1.913c0 .756.127 1.394.38 1.914.252.52.595.913 1.026 1.18.432.267.918.4 1.458.4.5 0 .94-.106 1.32-.319.384-.216.683-.52.896-.912.216-.395.324-.86.324-1.393l.324.068h-2.626v-.938h3.324v.938c0 .719-.153 1.344-.46 1.875a3.18 3.18 0 0 1-1.261 1.236c-.534.29-1.148.434-1.841.434-.773 0-1.452-.181-2.037-.545-.582-.364-1.037-.88-1.364-1.551-.324-.67-.486-1.466-.486-2.387 0-.69.093-1.31.278-1.862a4.126 4.126 0 0 1 .792-1.415 3.46 3.46 0 0 1 1.21-.894 3.74 3.74 0 0 1 1.539-.312c.46 0 .889.07 1.287.21a3.455 3.455 0 0 1 1.858 1.482c.21.347.355.732.434 1.155h-1.09Zm2.816 6v-6.546h.972v.99h.068c.12-.325.335-.588.648-.79a1.907 1.907 0 0 1 1.056-.302c.074 0 .166.002.277.004.111.003.195.008.252.013v1.023a2.976 2.976 0 0 0-.235-.038 2.284 2.284 0 0 0-.379-.03c-.318 0-.602.067-.852.2a1.47 1.47 0 0 0-.801 1.334V94h-1.006Zm7.01.136c-.63 0-1.175-.139-1.632-.417a2.803 2.803 0 0 1-1.053-1.176c-.244-.506-.366-1.094-.366-1.765 0-.67.122-1.261.366-1.772a2.89 2.89 0 0 1 1.032-1.202c.443-.29.96-.435 1.55-.435.342 0 .678.057 1.01.17.333.114.636.3.908.555.273.253.49.588.652 1.005.162.418.243.932.243 1.543v.426h-5.045v-.87h4.022c0-.368-.073-.698-.221-.988a1.67 1.67 0 0 0-.622-.686 1.742 1.742 0 0 0-.946-.251c-.4 0-.748.1-1.04.298a1.97 1.97 0 0 0-.67.767 2.253 2.253 0 0 0-.233 1.014v.58c0 .494.085.913.255 1.257.173.34.413.6.72.78a2.11 2.11 0 0 0 1.07.264 2.2 2.2 0 0 0 .716-.11c.216-.078.402-.191.558-.342.156-.153.277-.344.362-.57l.972.272c-.102.33-.274.62-.516.87-.241.246-.54.44-.895.579a3.318 3.318 0 0 1-1.197.204Zm6.166.017a2.66 2.66 0 0 1-1.13-.234 1.939 1.939 0 0 1-.805-.686c-.198-.301-.298-.665-.298-1.091 0-.375.074-.679.222-.912.148-.236.345-.42.592-.554a3.12 3.12 0 0 1 .818-.298 10.1 10.1 0 0 1 .908-.162c.398-.051.72-.09.967-.115.25-.029.432-.075.546-.14.116-.066.174-.18.174-.342v-.034c0-.42-.115-.747-.345-.98-.227-.233-.572-.35-1.035-.35-.48 0-.857.106-1.13.316-.272.21-.464.435-.575.673l-.954-.34c.17-.398.397-.708.681-.93.287-.224.6-.38.938-.468.34-.091.676-.137 1.006-.137a4 4 0 0 1 .724.077c.276.048.541.15.797.303.258.153.473.385.643.694.17.31.256.725.256 1.245V94h-1.005v-.886h-.052a1.767 1.767 0 0 1-.34.456c-.16.162-.371.3-.636.413-.264.114-.586.17-.967.17Zm.154-.903c.397 0 .733-.078 1.005-.234a1.595 1.595 0 0 0 .835-1.385v-.92c-.042.05-.136.097-.28.14-.143.04-.308.075-.495.106a22.444 22.444 0 0 1-.963.128c-.261.034-.506.09-.733.166a1.263 1.263 0 0 0-.546.337c-.136.148-.204.35-.204.605 0 .35.13.614.388.793.261.176.592.264.993.264Zm7.528-5.796v.853h-3.392v-.853h3.392Zm-2.403-1.568h1.006v6.239c0 .284.04.497.123.64a.64.64 0 0 0 .324.28c.134.046.274.069.422.069.11 0 .202-.006.273-.017l.17-.034.205.903a2.042 2.042 0 0 1-.286.077 2.102 2.102 0 0 1-.464.042c-.284 0-.563-.06-.836-.183a1.66 1.66 0 0 1-.673-.558c-.176-.25-.264-.566-.264-.946v-6.512Zm5.246-.613-.086 6.273h-.988l-.085-6.273h1.159Zm-.58 8.795a.738.738 0 0 1-.541-.226.738.738 0 0 1-.226-.54c0-.211.075-.392.226-.542a.739.739 0 0 1 .541-.226c.21 0 .391.075.541.226.151.15.226.33.226.541 0 .14-.035.267-.106.384a.807.807 0 0 1-.277.28.734.734 0 0 1-.384.103Z"/><path fill="url(#a)" d="M113.5 96.728c-3.608 0-7.5-2.263-7.5-7.228 0-4.966 3.892-7.228 7.5-7.228 2.004 0 3.853.659 5.224 1.862 1.487 1.319 2.276 3.18 2.276 5.366 0 2.185-.789 4.034-2.276 5.353-1.371 1.203-3.233 1.875-5.224 1.875Z"/><path fill="#422B0D" d="M110.966 86.66c-.542 0-1.035.458-1.035 1.218s.493 1.217 1.035 1.217c.543 0 1.034-.458 1.034-1.217 0-.759-.486-1.218-1.034-1.218Z"/><path fill="#896024" d="M110.92 87.168a.372.372 0 0 0-.494.173.372.372 0 0 0 .078.427c.183.088.405.01.494-.173a.372.372 0 0 0-.078-.427Z"/><path fill="#422B0D" d="M115.931 86.66c-.542 0-1.035.458-1.035 1.218s.493 1.217 1.035 1.217c.542 0 1.034-.458 1.034-1.217 0-.759-.492-1.218-1.034-1.218Z"/><path fill="#896024" d="M115.879 87.168a.372.372 0 0 0-.494.173.372.372 0 0 0 .078.427c.183.088.404.01.494-.173a.372.372 0 0 0-.078-.427Z"/><path fill="#422B0D" d="M113.423 93.213a4.098 4.098 0 0 1-3.078-1.355.235.235 0 0 1 .176-.388c.041 0 .083.011.119.032.623.358 1.665.803 2.783.803h.018c1.116 0 2.159-.445 2.781-.803a.242.242 0 0 1 .119-.032.235.235 0 0 1 .212.14.227.227 0 0 1-.036.248 4.098 4.098 0 0 1-3.08 1.355"/><path fill="#EB8F00" d="M119.693 85.203c.689 1.112 1.048 2.436 1.048 3.91 0 2.184-.788 4.034-2.275 5.353-1.371 1.202-3.233 1.875-5.225 1.875-2.335 0-4.784-.95-6.23-2.967 1.392 2.284 4.009 3.355 6.489 3.355 1.991 0 3.853-.673 5.224-1.875 1.487-1.32 2.276-3.168 2.276-5.354 0-1.647-.449-3.111-1.307-4.297Z"/><rect width="225" height="39" x="141" y="70" fill="#EDF9EC" rx="4"/><path fill="#050505" d="M154.057 94v-8.727h1.057v3.886h4.653v-3.886h1.057V94h-1.057v-3.903h-4.653V94h-1.057Zm11.405.136c-.591 0-1.109-.14-1.555-.421a2.868 2.868 0 0 1-1.04-1.18c-.247-.507-.371-1.097-.371-1.774 0-.681.124-1.277.371-1.785.25-.509.597-.904 1.04-1.185.446-.281.964-.422 1.555-.422s1.108.14 1.551.422a2.81 2.81 0 0 1 1.04 1.185c.25.508.375 1.103.375 1.785 0 .677-.125 1.267-.375 1.773a2.82 2.82 0 0 1-1.04 1.18c-.443.282-.96.422-1.551.422Zm0-.903c.449 0 .819-.115 1.108-.345.29-.23.505-.533.644-.908a3.48 3.48 0 0 0 .209-1.219c0-.437-.07-.845-.209-1.223a2.058 2.058 0 0 0-.644-.916c-.289-.233-.659-.35-1.108-.35-.449 0-.818.117-1.108.35a2.064 2.064 0 0 0-.643.916 3.515 3.515 0 0 0-.209 1.223c0 .438.07.844.209 1.22.139.374.354.677.643.907.29.23.659.345 1.108.345Zm5.762.767-1.995-6.546h1.057l1.415 5.012h.068l1.398-5.011h1.074l1.38 4.994h.069l1.414-4.995h1.057L176.167 94h-.989l-1.432-5.028h-.102L172.212 94h-.988Zm14.301.136c-.614 0-1.142-.144-1.585-.434a2.83 2.83 0 0 1-1.023-1.198c-.239-.508-.358-1.09-.358-1.743 0-.664.122-1.251.366-1.76a2.9 2.9 0 0 1 1.032-1.197c.443-.29.96-.435 1.551-.435.46 0 .875.085 1.244.256.369.17.672.41.908.716.236.307.382.665.439 1.074h-1.006a1.562 1.562 0 0 0-.511-.793c-.262-.233-.614-.35-1.057-.35a1.77 1.77 0 0 0-1.031.307 1.99 1.99 0 0 0-.686.857c-.162.367-.243.797-.243 1.291 0 .506.079.946.238 1.321.162.375.389.666.682.874.296.207.642.311 1.04.311.261 0 .498-.046.712-.136a1.47 1.47 0 0 0 .541-.392c.147-.17.253-.376.315-.614h1.006a2.336 2.336 0 0 1-.422 1.044 2.363 2.363 0 0 1-.882.733c-.364.179-.787.268-1.27.268Zm5.97.017c-.415 0-.791-.078-1.129-.234a1.941 1.941 0 0 1-.806-.686c-.198-.301-.298-.665-.298-1.091 0-.375.074-.679.222-.912a1.56 1.56 0 0 1 .592-.554 3.12 3.12 0 0 1 .818-.298 10.1 10.1 0 0 1 .908-.162c.398-.051.72-.09.967-.115.25-.029.432-.075.546-.14.116-.066.174-.18.174-.342v-.034c0-.42-.115-.747-.345-.98-.227-.233-.572-.35-1.035-.35-.48 0-.857.106-1.13.316-.272.21-.464.435-.575.673l-.954-.34c.17-.398.397-.708.681-.93.287-.224.6-.38.938-.468a3.89 3.89 0 0 1 1.006-.137 4 4 0 0 1 .724.077c.276.048.541.15.797.303.258.153.473.385.643.694.171.31.256.725.256 1.245V94h-1.006v-.886h-.051a1.768 1.768 0 0 1-.341.456c-.159.162-.37.3-.635.413-.264.114-.586.17-.967.17Zm.153-.903c.398 0 .733-.078 1.006-.234a1.59 1.59 0 0 0 .835-1.385v-.92c-.042.05-.136.097-.281.14a4.65 4.65 0 0 1-.494.106 22.717 22.717 0 0 1-.963.128c-.262.034-.506.09-.733.166a1.267 1.267 0 0 0-.546.337c-.136.148-.204.35-.204.605 0 .35.129.614.388.793.261.176.592.264.992.264Zm5.688-3.188V94h-1.005v-6.546h.971v1.023h.085c.154-.332.387-.6.699-.8.313-.205.716-.308 1.211-.308.443 0 .83.091 1.163.273.332.179.591.452.775.818.185.364.277.824.277 1.38V94h-1.005v-4.09c0-.515-.134-.916-.401-1.203-.267-.29-.633-.434-1.099-.434-.321 0-.608.07-.861.209-.25.139-.447.342-.592.609-.145.267-.218.59-.218.972Zm10.582-4.79V94h-1.056v-8.727h1.056ZM213.276 94v-6.546h.972v.99h.068c.119-.325.335-.588.647-.79a1.908 1.908 0 0 1 1.057-.302c.074 0 .166.002.277.004.111.003.195.008.252.013v1.023a3.026 3.026 0 0 0-.235-.038 2.295 2.295 0 0 0-.379-.03 1.78 1.78 0 0 0-.852.2 1.47 1.47 0 0 0-.801 1.334V94h-1.006Zm7.01.136c-.631 0-1.175-.139-1.632-.417a2.8 2.8 0 0 1-1.053-1.176c-.244-.506-.366-1.094-.366-1.765 0-.67.122-1.261.366-1.772a2.892 2.892 0 0 1 1.031-1.202c.444-.29.961-.435 1.552-.435.341 0 .677.057 1.01.17.332.114.634.3.907.555.273.253.49.588.652 1.005.162.418.243.932.243 1.543v.426h-5.045v-.87h4.022c0-.368-.073-.698-.221-.988a1.67 1.67 0 0 0-.622-.686 1.744 1.744 0 0 0-.946-.251c-.401 0-.748.1-1.04.298a1.96 1.96 0 0 0-.669.767 2.257 2.257 0 0 0-.235 1.014v.58c0 .494.086.913.256 1.257.173.34.413.6.72.78.307.176.664.264 1.07.264a2.2 2.2 0 0 0 .716-.11c.216-.078.402-.191.558-.342.156-.153.277-.344.362-.57l.972.272c-.102.33-.274.62-.516.87-.241.246-.54.44-.895.579a3.316 3.316 0 0 1-1.197.204Zm6.166.017c-.415 0-.791-.078-1.129-.234a1.941 1.941 0 0 1-.806-.686c-.198-.301-.298-.665-.298-1.091 0-.375.074-.679.222-.912a1.56 1.56 0 0 1 .592-.554 3.12 3.12 0 0 1 .818-.298 10.1 10.1 0 0 1 .908-.162c.398-.051.72-.09.967-.115.25-.029.432-.075.546-.14.116-.066.174-.18.174-.342v-.034c0-.42-.115-.747-.345-.98-.227-.233-.572-.35-1.035-.35-.48 0-.857.106-1.13.316-.272.21-.464.435-.575.673l-.954-.34c.17-.398.397-.708.681-.93.287-.224.6-.38.938-.468a3.89 3.89 0 0 1 1.006-.137 4 4 0 0 1 .724.077c.276.048.541.15.797.303.258.153.473.385.643.694.171.31.256.725.256 1.245V94h-1.006v-.886h-.051a1.768 1.768 0 0 1-.341.456c-.159.162-.37.3-.635.413-.264.114-.586.17-.967.17Zm.153-.903c.398 0 .733-.078 1.006-.234a1.59 1.59 0 0 0 .835-1.385v-.92c-.042.05-.136.097-.281.14a4.65 4.65 0 0 1-.494.106 22.717 22.717 0 0 1-.963.128c-.262.034-.506.09-.733.166a1.267 1.267 0 0 0-.546.337c-.136.148-.204.35-.204.605 0 .35.129.614.388.793.261.176.592.264.992.264Zm7.342.886c-.614 0-1.142-.144-1.585-.434a2.823 2.823 0 0 1-1.023-1.198c-.239-.508-.358-1.09-.358-1.743 0-.664.122-1.251.366-1.76a2.9 2.9 0 0 1 1.032-1.197c.443-.29.96-.435 1.551-.435.46 0 .875.085 1.244.256.369.17.672.41.908.716.235.307.382.665.439 1.074h-1.006a1.562 1.562 0 0 0-.511-.793c-.262-.233-.614-.35-1.057-.35a1.77 1.77 0 0 0-1.032.307 2.005 2.005 0 0 0-.686.857c-.162.367-.242.797-.242 1.291 0 .506.079.946.238 1.321.162.375.389.666.682.874.295.207.642.311 1.04.311.261 0 .498-.046.711-.136a1.48 1.48 0 0 0 .542-.392 1.52 1.52 0 0 0 .315-.614h1.006a2.336 2.336 0 0 1-.422 1.044 2.363 2.363 0 0 1-.882.733c-.364.179-.787.268-1.27.268Zm5.049-4.073V94h-1.005v-8.727h1.005v3.204h.086c.153-.338.383-.606.69-.805.31-.202.722-.303 1.236-.303.446 0 .836.09 1.172.269.335.176.595.447.78.814.187.363.281.826.281 1.389V94h-1.006v-4.09c0-.52-.135-.923-.405-1.207-.267-.287-.638-.43-1.112-.43-.33 0-.625.07-.886.209a1.524 1.524 0 0 0-.614.609c-.148.267-.222.59-.222.972Zm9.46 3.937v-6.546h.971v1.023h.085c.137-.35.357-.62.661-.814.304-.196.669-.294 1.095-.294.432 0 .791.098 1.078.294.29.194.516.465.678.814h.068a1.91 1.91 0 0 1 .754-.805c.335-.202.737-.303 1.206-.303.585 0 1.064.184 1.436.55.372.364.559.93.559 1.7V94h-1.006v-4.38c0-.484-.132-.829-.396-1.036a1.47 1.47 0 0 0-.934-.311c-.46 0-.816.139-1.069.417-.253.276-.38.625-.38 1.049V94h-1.022v-4.483c0-.372-.121-.672-.363-.9-.241-.23-.552-.344-.933-.344-.261 0-.505.07-.733.209a1.57 1.57 0 0 0-.545.58 1.704 1.704 0 0 0-.205.847V94h-1.005Zm10.843 2.454c-.171 0-.323-.014-.456-.042a1.189 1.189 0 0 1-.277-.077l.255-.886c.245.062.461.085.648.068a.776.776 0 0 0 .499-.251c.147-.148.282-.388.405-.72l.187-.512-2.42-6.58h1.09l1.807 5.217h.068l1.807-5.217h1.091l-2.778 7.5a2.83 2.83 0 0 1-.465.84c-.184.225-.399.39-.643.499a1.984 1.984 0 0 1-.818.161Zm12.049.137c-.486 0-.904-.063-1.253-.188a2.656 2.656 0 0 1-.874-.485 2.647 2.647 0 0 1-.549-.64l.801-.562c.091.12.206.256.345.409.139.156.329.291.571.405.244.116.564.174.959.174.528 0 .964-.127 1.308-.383.344-.256.516-.656.516-1.202v-1.33h-.086a5.54 5.54 0 0 1-.315.444 1.794 1.794 0 0 1-.58.464c-.25.134-.588.2-1.014.2a2.73 2.73 0 0 1-1.423-.374 2.626 2.626 0 0 1-.993-1.091c-.241-.478-.362-1.057-.362-1.739 0-.67.118-1.254.353-1.751.236-.5.564-.887.985-1.16.42-.275.906-.413 1.457-.413.426 0 .764.071 1.014.213.253.14.446.299.58.478a7 7 0 0 1 .315.434h.103v-1.04h.971v6.734c0 .562-.128 1.02-.383 1.372a2.185 2.185 0 0 1-1.023.78 3.86 3.86 0 0 1-1.423.25Zm-.034-3.597c.403 0 .744-.092 1.022-.277.279-.184.49-.45.635-.796.145-.347.218-.762.218-1.245 0-.472-.071-.888-.214-1.248a1.875 1.875 0 0 0-.63-.849c-.279-.204-.622-.306-1.031-.306-.427 0-.782.108-1.066.324a1.974 1.974 0 0 0-.635.869 3.365 3.365 0 0 0-.209 1.21c0 .455.071.857.214 1.206.144.347.357.62.639.818.284.196.636.294 1.057.294Zm7.363 1.142c-.591 0-1.109-.14-1.555-.421a2.868 2.868 0 0 1-1.04-1.18c-.247-.507-.371-1.097-.371-1.774 0-.681.124-1.277.371-1.785.25-.509.597-.904 1.04-1.185.446-.281.964-.422 1.555-.422s1.108.14 1.551.422a2.82 2.82 0 0 1 1.04 1.185c.25.508.375 1.103.375 1.785 0 .677-.125 1.267-.375 1.773-.247.506-.594.9-1.04 1.18-.443.282-.96.422-1.551.422Zm0-.903c.449 0 .818-.115 1.108-.345.29-.23.504-.533.644-.908a3.48 3.48 0 0 0 .208-1.219c0-.437-.069-.845-.208-1.223a2.066 2.066 0 0 0-.644-.916c-.29-.233-.659-.35-1.108-.35-.449 0-.818.117-1.108.35-.29.233-.504.538-.643.916a3.515 3.515 0 0 0-.209 1.223c0 .438.07.844.209 1.22.139.374.353.677.643.907.29.23.659.345 1.108.345Zm6.427.92a2.66 2.66 0 0 1-1.129-.234 1.939 1.939 0 0 1-.805-.686c-.199-.301-.299-.665-.299-1.091 0-.375.074-.679.222-.912.148-.236.345-.42.592-.554.248-.133.52-.233.819-.298.301-.068.603-.122.907-.162.398-.051.72-.09.968-.115.25-.029.431-.075.545-.14.116-.066.175-.18.175-.342v-.034c0-.42-.115-.747-.345-.98-.228-.233-.573-.35-1.036-.35-.48 0-.856.106-1.129.316-.273.21-.465.435-.576.673l-.954-.34c.17-.398.398-.708.682-.93.287-.224.599-.38.937-.468a3.89 3.89 0 0 1 1.006-.137c.21 0 .452.026.724.077.276.048.542.15.797.303.259.153.473.385.644.694.17.31.255.725.255 1.245V94h-1.005v-.886h-.051a1.791 1.791 0 0 1-.341.456 1.97 1.97 0 0 1-.635.413c-.264.114-.587.17-.968.17Zm.154-.903c.398 0 .733-.078 1.005-.234a1.6 1.6 0 0 0 .836-1.385v-.92c-.043.05-.137.097-.282.14-.142.04-.306.075-.494.106a22.717 22.717 0 0 1-.963.128c-.261.034-.506.09-.733.166a1.263 1.263 0 0 0-.545.337c-.137.148-.205.35-.205.605 0 .35.129.614.388.793.261.176.592.264.993.264Zm5.688-7.977V94h-1.006v-8.727h1.006Zm8.131 2.181v.853h-3.528v-.853h3.528ZM296.606 94v-7.449c0-.375.088-.687.264-.937.176-.25.405-.438.686-.563.281-.125.578-.187.891-.187a2.323 2.323 0 0 1 .954.17l-.289.87a5.596 5.596 0 0 0-.214-.064 1.286 1.286 0 0 0-.349-.039c-.332 0-.572.084-.72.252-.145.167-.217.413-.217.737V94h-1.006Zm5.619.153a2.66 2.66 0 0 1-1.129-.234 1.939 1.939 0 0 1-.805-.686c-.199-.301-.298-.665-.298-1.091 0-.375.073-.679.221-.912.148-.236.345-.42.592-.554.248-.133.52-.233.819-.298.301-.068.603-.122.907-.162.398-.051.72-.09.968-.115.25-.029.431-.075.545-.14.117-.066.175-.18.175-.342v-.034c0-.42-.115-.747-.345-.98-.228-.233-.573-.35-1.036-.35-.48 0-.856.106-1.129.316-.273.21-.465.435-.575.673l-.955-.34c.17-.398.398-.708.682-.93.287-.224.599-.38.937-.468a3.89 3.89 0 0 1 1.006-.137c.21 0 .452.026.724.077.276.048.542.15.797.303.259.153.473.385.644.694.17.31.255.725.255 1.245V94h-1.005v-.886h-.051a1.791 1.791 0 0 1-.341.456 1.97 1.97 0 0 1-.635.413c-.264.114-.587.17-.968.17Zm.154-.903c.398 0 .733-.078 1.006-.234a1.597 1.597 0 0 0 .835-1.385v-.92c-.043.05-.137.097-.281.14-.142.04-.307.075-.495.106a22.013 22.013 0 0 1-.963.128c-.261.034-.506.09-.733.166a1.263 1.263 0 0 0-.545.337c-.137.148-.205.35-.205.605 0 .35.129.614.388.793.261.176.592.264.993.264Zm9.318-4.33-.903.256a1.706 1.706 0 0 0-.251-.439 1.219 1.219 0 0 0-.444-.358c-.187-.094-.427-.14-.72-.14-.4 0-.734.092-1.001.277-.264.181-.396.413-.396.694 0 .25.09.448.272.593.182.144.466.265.853.362l.971.238c.585.142 1.021.36 1.308.652.287.29.431.664.431 1.121 0 .375-.108.71-.324 1.006a2.145 2.145 0 0 1-.895.699c-.384.17-.83.255-1.338.255-.668 0-1.22-.144-1.658-.434-.437-.29-.714-.713-.831-1.27l.955-.239c.091.353.263.617.515.793.256.176.59.264 1.002.264.469 0 .841-.1 1.116-.298.279-.202.418-.444.418-.725a.762.762 0 0 0-.239-.57c-.159-.157-.403-.273-.733-.35l-1.091-.256c-.599-.142-1.039-.362-1.321-.66-.278-.302-.417-.678-.417-1.13 0-.369.104-.696.311-.98a2.12 2.12 0 0 1 .856-.669 3.011 3.011 0 0 1 1.236-.243c.648 0 1.157.142 1.526.427.372.283.636.658.792 1.124Zm4.48-1.466v.853h-3.392v-.853h3.392Zm-2.403-1.568h1.005v6.239c0 .284.042.497.124.64a.64.64 0 0 0 .324.28c.133.046.274.069.422.069.111 0 .201-.006.273-.017l.17-.034.205.903a2.096 2.096 0 0 1-.286.077 2.1 2.1 0 0 1-.464.042c-.285 0-.563-.06-.836-.183a1.658 1.658 0 0 1-.673-.558c-.176-.25-.264-.566-.264-.946v-6.512Zm6.59 8.25c-.631 0-1.175-.139-1.632-.417a2.8 2.8 0 0 1-1.053-1.176c-.244-.506-.366-1.094-.366-1.765 0-.67.122-1.261.366-1.772a2.887 2.887 0 0 1 1.032-1.202c.443-.29.96-.435 1.551-.435.341 0 .677.057 1.01.17.332.114.635.3.907.555.273.253.49.588.652 1.005.162.418.243.932.243 1.543v.426h-5.045v-.87h4.022c0-.368-.073-.698-.221-.988a1.67 1.67 0 0 0-.622-.686 1.744 1.744 0 0 0-.946-.251c-.401 0-.747.1-1.04.298a1.96 1.96 0 0 0-.669.767 2.256 2.256 0 0 0-.234 1.014v.58c0 .494.085.913.255 1.257.174.34.414.6.72.78.307.176.664.264 1.07.264a2.2 2.2 0 0 0 .716-.11c.216-.078.402-.191.558-.342.156-.153.277-.344.362-.57l.972.272c-.102.33-.274.62-.516.87-.241.246-.539.44-.895.579a3.316 3.316 0 0 1-1.197.204Zm4.24-.136v-6.546h.972v.99h.068c.119-.325.335-.588.648-.79a1.903 1.903 0 0 1 1.056-.302c.074 0 .167.002.277.004.111.003.195.008.252.013v1.023a2.938 2.938 0 0 0-.235-.038 2.295 2.295 0 0 0-.379-.03 1.78 1.78 0 0 0-.852.2 1.47 1.47 0 0 0-.801 1.334V94h-1.006Zm5.777-2.454v-.052c.006-.542.063-.974.171-1.295a1.97 1.97 0 0 1 .46-.78c.199-.199.438-.382.716-.55a2.24 2.24 0 0 0 .452-.362 1.62 1.62 0 0 0 .315-.49c.08-.185.119-.39.119-.614 0-.278-.065-.52-.196-.724a1.31 1.31 0 0 0-.524-.473 1.589 1.589 0 0 0-.729-.166c-.232 0-.457.048-.673.145a1.302 1.302 0 0 0-.541.456c-.145.207-.229.478-.251.813h-1.074c.022-.482.147-.896.375-1.24.23-.343.532-.606.907-.788a2.862 2.862 0 0 1 1.257-.273c.5 0 .935.1 1.304.299.373.199.66.471.861.818.205.347.307.741.307 1.184 0 .313-.048.596-.145.849a2.1 2.1 0 0 1-.409.677 2.8 2.8 0 0 1-.639.528c-.25.157-.45.322-.601.495-.151.17-.26.373-.328.61a3.45 3.45 0 0 0-.111.881v.052h-1.023Zm.546 2.522a.737.737 0 0 1-.541-.226.737.737 0 0 1-.226-.54c0-.211.075-.392.226-.542a.738.738 0 0 1 .541-.226c.21 0 .39.075.541.226.151.15.226.33.226.541 0 .14-.036.267-.107.384a.79.79 0 0 1-.277.28.727.727 0 0 1-.383.103Z"/><path fill="url(#b)" d="M346.5 96.587c-3.608 0-7.5-2.263-7.5-7.229 0-4.965 3.892-7.228 7.5-7.228 2.004 0 3.853.66 5.224 1.862 1.487 1.319 2.276 3.181 2.276 5.366 0 2.186-.789 4.035-2.276 5.354-1.371 1.202-3.233 1.875-5.224 1.875Z"/><path fill="url(#c)" d="M346.5 96.587c-3.608 0-7.5-2.263-7.5-7.229 0-4.965 3.892-7.228 7.5-7.228 2.004 0 3.853.66 5.224 1.862 1.487 1.319 2.276 3.181 2.276 5.366 0 2.186-.789 4.035-2.276 5.354-1.371 1.202-3.233 1.875-5.224 1.875Z"/><path fill="#EB8F00" d="M352.693 85.061c.689 1.113 1.048 2.437 1.048 3.91 0 2.185-.788 4.034-2.275 5.353-1.371 1.203-3.233 1.875-5.225 1.875-2.335 0-4.784-.95-6.23-2.966 1.392 2.283 4.009 3.354 6.489 3.354 1.991 0 3.853-.672 5.224-1.875 1.487-1.319 2.276-3.168 2.276-5.353 0-1.648-.449-3.112-1.307-4.297Z"/><path fill="url(#d)" d="M339.114 90.937c.129-.337.701-.343 1.123-.138.819.397.722 1.266 1.132 1.439.41.173 1.704-.888 3.524-1.056.204-.02 1.41-.171 1.529.336.047.2-.294.239-.294.239-.74.274-1.493.553-2.155.987-.751.49-1.408 1.183-2.281 1.387-.34.079-.724.067-1.001-.144-.344-.258-.42-.733-.545-1.145a3.796 3.796 0 0 0-.693-1.293" opacity=".66"/><path fill="url(#e)" d="M339.098 90.936c-.235.286.266 1.045.355 1.432.214.933 0 1.163-.017 1.994-.014.913.259 1.68.954 2.17.655.465 1.375.518 2.383.22 1.009-.297 1.691-.44 1.742-.937a.474.474 0 0 0-.269-.495.468.468 0 0 0 .227-.232c.24-.574-.24-.695-.24-.695a1.24 1.24 0 0 0 .166-.259c.143-.286.12-.674-.294-.8-.19-.059-.241-.028-.241-.028.196-.201.431-.363.691-.472.696-.298 1.521-.48 1.727-.654.298-.259.316-.756-.211-.905-.758-.223-2.152.295-3 .834-.848.54-1.627.83-1.885.732-.259-.098-.419-.259-.518-.647-.182-.721-.323-1-.632-1.27-.256-.22-.756-.208-.938.012Z"/><path fill="url(#f)" d="M343.303 93.74s-.19-.13.569-.736c.518-.415.816-.49 1.436-.647 1.251-.306 1.173-.7 1.173-.7.067.58-.507.71-.928.841-.044.013-.085.03-.129.04-1.439.367-1.942 1.317-2.121 1.201Z"/><path fill="url(#g)" d="M344.483 95.178a.793.793 0 0 0 .084-.622.6.6 0 0 0-.228-.303c.016-.021.031-.04.045-.064a.636.636 0 0 0 .046-.601.616.616 0 0 0-.439-.28c.123.06.215.17.251.302a.908.908 0 0 1-.064.47.609.609 0 0 1-.484.37c-.313.063-.217.192-.217.192.027.103.397.008.677-.202a.346.346 0 0 1 .167.197c.03.13.012.269-.05.388a.71.71 0 0 1-.457.387c-.278.077-.202.179-.202.179s.013.22.585-.142c.067.129.156.417-.022.604-.605.637-2.388.883-2.388.883.905 0 2.149-.35 2.534-.669a.622.622 0 0 0 .239-.486.588.588 0 0 0-.177-.477.983.983 0 0 0 .1-.126Z"/><path fill="#422B0D" d="M348.216 90.446a.241.241 0 0 1-.112-.052 4.257 4.257 0 0 0-2.018-.887 4.24 4.24 0 0 0-2.198.202.228.228 0 0 1-.121.014.237.237 0 0 1-.189-.172.23.23 0 0 1 .075-.239 3.224 3.224 0 0 1 4.797.776.232.232 0 0 1 0 .25.238.238 0 0 1-.234.108Zm.504-5.198c.542 0 1.035.458 1.035 1.218s-.493 1.217-1.035 1.217c-.542 0-1.034-.458-1.034-1.217 0-.759.492-1.218 1.034-1.218Zm-4.478-1.178c-.541 0-1.034.457-1.034 1.216 0 .76.493 1.218 1.034 1.218.544 0 1.035-.458 1.035-1.218s-.491-1.217-1.035-1.217Zm-.829-1.47a.345.345 0 0 1-.021-.317.335.335 0 0 1 .259-.186 2.765 2.765 0 0 1 2.585 1.003c.01.013.019.027.028.043a.318.318 0 0 1-.068.42.356.356 0 0 1-.466-.01l.055-.088-.066.077a3.294 3.294 0 0 0-2.012-.765.346.346 0 0 1-.299-.171l.005-.006Zm6.889 2.312a.342.342 0 0 0 .173-.258.335.335 0 0 0-.129-.29 2.768 2.768 0 0 0-2.752-.408l-.046.022a.32.32 0 0 0-.148.4.356.356 0 0 0 .408.219v-.103l.018.1a3.29 3.29 0 0 1 2.125.32c.108.06.238.06.346 0l.005-.002Z"/><defs><linearGradient id="c" x1="346.5" x2="346.5" y1="96.587" y2="82.13" gradientUnits="userSpaceOnUse"><stop stop-color="#F4A223"/><stop offset=".08" stop-color="#F7C02B"/><stop offset=".54" stop-color="#FDE030" stop-opacity="0"/></linearGradient><linearGradient id="d" x1="342.798" x2="342.766" y1="94.984" y2="90.668" gradientUnits="userSpaceOnUse"><stop stop-color="#BF360C"/><stop offset="1" stop-color="#BF360C" stop-opacity=".2"/></linearGradient><linearGradient id="f" x1="343.355" x2="346.613" y1="93.462" y2="91.844" gradientUnits="userSpaceOnUse"><stop offset=".13" stop-color="#DA6727"/><stop offset="1" stop-color="#FFC400"/></linearGradient><linearGradient id="g" x1="343.187" x2="343.214" y1="96.673" y2="91.763" gradientUnits="userSpaceOnUse"><stop offset=".13" stop-color="#DA6727"/><stop offset="1" stop-color="#FFC400"/></linearGradient><radialGradient id="a" cx="0" cy="0" r="1" gradientTransform="translate(113.5 89.5) scale(7.36548)" gradientUnits="userSpaceOnUse"><stop offset=".5" stop-color="#FDE030"/><stop offset=".92" stop-color="#F7C02B"/><stop offset="1" stop-color="#F4A223"/></radialGradient><radialGradient id="b" cx="0" cy="0" r="1" gradientTransform="translate(346.5 89.358) scale(7.36548)" gradientUnits="userSpaceOnUse"><stop offset=".5" stop-color="#FDE030"/><stop offset=".92" stop-color="#F7C02B"/><stop offset="1" stop-color="#F4A223"/></radialGradient><radialGradient id="e" cx="0" cy="0" r="1" gradientTransform="matrix(7.65647 0 0 7.19708 343.636 91.998)" gradientUnits="userSpaceOnUse"><stop offset=".27" stop-color="#FFF176"/><stop offset="1" stop-color="#FFC400"/></radialGradient></defs></svg>