<svg xmlns="http://www.w3.org/2000/svg" width="551" height="354" fill="none"><rect width="550.211" height="354" fill="#fff" rx="12"/><path stroke="#FAFAFA" d="M62 263.5h462m-462-46h462m-462-47h462m-462-47h462m-462-46h462m-462 233h462"/><path stroke="#E6E6E6" stroke-linecap="round" stroke-width="4" d="m62 263 42-15.68c16.8-6.272 25.2-.149 42-15.68s25.2-45.808 42-61.973c16.8-16.166 25.2-11.387 42-18.854 16.8-7.466 25.2-1.717 42-18.48C288.8 115.571 297.2 67 314 67s25.2 168 42 168 25.2-18.667 42-18.667 25.2 65.334 42 65.334 25.2-5.6 42-9.334L524 263"/><path fill="#B742BD" fill-rule="evenodd" d="M314.35 65c-5.236 0-9.433 3.775-12.92 8.695-3.542 4.998-6.763 11.765-9.909 18.876-.901 2.035-1.795 4.099-2.692 6.168h-.001c-2.27 5.239-4.556 10.511-6.984 15.429-3.392 6.869-6.95 12.801-10.907 16.75-8.145 8.126-14.126 10.699-20.077 12.202-1.655.418-3.376.762-5.182 1.123-4.679.935-9.936 1.985-16.141 4.743-5.727 2.545-10.302 3.587-14.792 4.61-1.964.448-3.912.891-5.933 1.456-6.614 1.847-13.207 4.858-21.849 13.173-8.534 8.212-14.914 19.892-21.083 31.184l-.286.523c-6.34 11.606-12.489 22.739-20.602 30.239-8.119 7.506-14.076 9.69-20.015 10.816-1.672.317-3.415.555-5.249.805-4.659.635-9.905 1.35-16.078 3.654l-27.3 10.192-10.5 3.92-3.084 1.152-.829.309-.214.08-.055.02-.013.006-.004.001.699 1.874-.7-1.874a2.001 2.001 0 0 0 1.4 3.748l-.7-1.874.7 1.874v-.001l.004-.001.014-.005.054-.021.214-.08.829-.309 3.084-1.151 10.5-3.92 27.3-10.192c5.734-2.141 10.293-2.76 14.8-3.372 1.938-.263 3.866-.524 5.873-.905 6.661-1.263 13.304-3.783 21.985-11.808 8.687-8.031 15.139-19.802 21.398-31.259l.108-.197c6.304-11.54 12.435-22.763 20.523-30.545 8.158-7.85 14.165-10.532 20.152-12.204 1.717-.479 3.501-.887 5.374-1.314 4.627-1.057 9.802-2.239 15.9-4.949 5.775-2.567 10.369-3.483 14.907-4.387 1.906-.38 3.801-.758 5.77-1.256 6.649-1.679 13.268-4.613 21.923-13.249 4.443-4.433 8.235-10.858 11.668-17.81 2.476-5.014 4.824-10.43 7.11-15.703.888-2.048 1.766-4.074 2.639-6.046 3.153-7.126 6.232-13.55 9.515-18.183 3.339-4.71 6.491-7.007 9.656-7.007v-4Z" clip-rule="evenodd"/><path stroke="#F0F0F0" d="M61.5 30v280m.5.5h462M61.5 30v280"/><path fill="#050505" d="M55.393 328h-.924l2.671-7.273h.91L60.72 328h-.924l-2.173-6.122h-.057L55.393 328Zm.34-2.841h3.722v.781h-3.721v-.781Zm6.006 4.886v-7.5h.81v.867h.099c.061-.095.147-.216.255-.362a1.51 1.51 0 0 1 .476-.398c.209-.118.49-.178.846-.178.459 0 .864.115 1.214.345.35.23.624.555.82.976.197.422.295.919.295 1.492 0 .578-.098 1.078-.295 1.502a2.328 2.328 0 0 1-.816.98c-.349.23-.75.345-1.204.345-.35 0-.631-.058-.842-.174a1.572 1.572 0 0 1-.486-.402 5.393 5.393 0 0 1-.263-.376h-.071v2.883h-.838Zm.824-4.772c0 .412.06.775.18 1.09.121.312.298.557.53.735.232.175.516.263.852.263.35 0 .643-.093.877-.277.237-.187.415-.438.533-.753.12-.317.181-.67.181-1.058 0-.384-.06-.729-.178-1.037a1.603 1.603 0 0 0-.529-.735c-.234-.183-.529-.274-.884-.274-.34 0-.627.087-.86.26-.231.17-.407.409-.525.717a2.95 2.95 0 0 0-.177 1.069Zm5.27 2.727v-5.455h.81v.824h.056c.1-.27.28-.489.54-.657a1.59 1.59 0 0 1 .88-.252 7.127 7.127 0 0 1 .44.014v.853a2.428 2.428 0 0 0-.195-.032 1.875 1.875 0 0 0-.316-.025c-.265 0-.502.056-.71.167a1.226 1.226 0 0 0-.668 1.111V328h-.838Zm27.097-7.273h1.05l2.472 6.037h.085l2.472-6.037h1.051V328h-.824v-5.526h-.071L98.893 328h-.796l-2.273-5.526h-.07V328h-.825v-7.273Zm10.387 7.401c-.345 0-.659-.065-.941-.195a1.629 1.629 0 0 1-.671-.572c-.165-.251-.248-.554-.248-.909 0-.313.061-.566.184-.76.123-.197.288-.351.494-.462.206-.111.433-.194.682-.248.251-.057.503-.102.756-.135.332-.043.6-.075.806-.096.209-.024.36-.063.455-.117.097-.055.145-.15.145-.285v-.028c0-.35-.095-.623-.287-.817-.19-.194-.477-.291-.863-.291-.4 0-.714.088-.941.263a1.562 1.562 0 0 0-.48.561l-.795-.284c.142-.332.331-.59.568-.774.239-.187.5-.318.781-.391.284-.076.564-.114.838-.114.176 0 .377.022.604.064.23.041.451.125.664.252.216.128.394.321.536.579.142.258.213.604.213 1.037V328h-.838v-.739h-.042a1.483 1.483 0 0 1-.284.38 1.65 1.65 0 0 1-.529.345 2.056 2.056 0 0 1-.807.142Zm.128-.753c.332 0 .611-.065.838-.195a1.336 1.336 0 0 0 .696-1.154v-.767c-.035.042-.113.081-.234.117a3.989 3.989 0 0 1-.412.088 17.434 17.434 0 0 1-.802.107 3.157 3.157 0 0 0-.611.139 1.053 1.053 0 0 0-.455.28c-.113.123-.17.291-.17.504 0 .292.107.512.323.661.218.147.494.22.827.22Zm4.247 2.67a1.814 1.814 0 0 1-.611-.099l.213-.739c.203.052.383.071.54.057a.647.647 0 0 0 .415-.209c.123-.123.236-.323.337-.6l.157-.427-2.017-5.483h.909l1.505 4.347h.057l1.506-4.347h.909l-2.315 6.25a2.361 2.361 0 0 1-.387.7 1.453 1.453 0 0 1-.537.416 1.665 1.665 0 0 1-.681.134Zm31.428-9.318h.881v5.199c0 .464-.086.858-.256 1.183-.171.324-.411.57-.721.738-.31.168-.676.252-1.097.252-.398 0-.752-.072-1.062-.216a1.756 1.756 0 0 1-.732-.625 1.717 1.717 0 0 1-.266-.963h.866c0 .206.051.386.153.54.104.152.246.27.426.355.18.086.385.128.615.128.253 0 .468-.053.646-.16.178-.106.312-.262.405-.468.095-.209.142-.463.142-.764v-5.199Zm5.969 5.043v-3.225h.838V328h-.838v-.923h-.057a1.777 1.777 0 0 1-.596.706c-.27.192-.611.288-1.023.288-.341 0-.644-.075-.909-.224a1.562 1.562 0 0 1-.625-.682c-.151-.305-.227-.69-.227-1.154v-3.466h.838v3.41c0 .397.111.715.334.951.225.237.511.355.859.355.208 0 .42-.053.636-.159.218-.107.4-.27.547-.49.149-.221.223-.501.223-.842Zm3.211-1.051V328h-.838v-5.455h.81v.853h.071c.128-.277.322-.5.582-.668.261-.17.597-.256 1.009-.256.369 0 .692.076.969.228.277.149.493.376.647.682.154.303.231.686.231 1.15V328h-.839v-3.409c0-.429-.111-.762-.333-1.002-.223-.241-.528-.362-.917-.362-.267 0-.506.058-.717.174a1.245 1.245 0 0 0-.493.508 1.677 1.677 0 0 0-.182.81Zm34.558-3.992h.881v5.199c0 .464-.085.858-.256 1.183-.17.324-.411.57-.721.738-.31.168-.676.252-1.097.252-.398 0-.752-.072-1.062-.216a1.747 1.747 0 0 1-.731-.625 1.71 1.71 0 0 1-.267-.963h.867c0 .206.051.386.152.54.105.152.247.27.427.355.18.086.384.128.614.128.253 0 .469-.053.646-.16.178-.106.313-.262.405-.468.095-.209.142-.463.142-.764v-5.199Zm5.97 5.043v-3.225h.838V328h-.838v-.923h-.057a1.788 1.788 0 0 1-.597.706c-.27.192-.611.288-1.023.288-.34 0-.643-.075-.909-.224a1.562 1.562 0 0 1-.625-.682c-.151-.305-.227-.69-.227-1.154v-3.466h.838v3.41c0 .397.111.715.334.951.225.237.511.355.859.355.209 0 .421-.053.636-.159.218-.107.4-.27.547-.49.149-.221.224-.501.224-.842Zm3.211-5.043V328h-.838v-7.273h.838ZM222.348 328h-.923l2.67-7.273h.909l2.671 7.273h-.924l-2.173-6.122h-.057L222.348 328Zm.341-2.841h3.721v.781h-3.721v-.781Zm9.442.611v-3.225h.838V328h-.838v-.923h-.057a1.777 1.777 0 0 1-.596.706c-.27.192-.611.288-1.023.288-.341 0-.644-.075-.909-.224a1.562 1.562 0 0 1-.625-.682c-.151-.305-.227-.69-.227-1.154v-3.466h.838v3.41c0 .397.111.715.334.951.225.237.511.355.859.355.208 0 .42-.053.636-.159.218-.107.4-.27.547-.49.149-.221.223-.501.223-.842Zm4.575 4.389a3.11 3.11 0 0 1-1.044-.156 2.222 2.222 0 0 1-.728-.405 2.212 2.212 0 0 1-.458-.533l.668-.468c.075.099.171.213.287.341.116.13.275.242.476.337.204.097.47.145.799.145.44 0 .804-.106 1.09-.319.287-.213.43-.547.43-1.002v-1.108h-.071c-.062.1-.149.223-.263.37a1.494 1.494 0 0 1-.483.387c-.208.111-.49.167-.845.167a2.27 2.27 0 0 1-1.186-.313 2.184 2.184 0 0 1-.827-.909c-.202-.398-.302-.881-.302-1.449 0-.558.098-1.045.294-1.459.197-.417.47-.739.821-.966a2.16 2.16 0 0 1 1.214-.345c.355 0 .637.06.845.178.211.116.372.249.483.398.114.146.202.267.263.362h.085v-.867h.81v5.611c0 .469-.107.85-.32 1.144-.21.296-.494.512-.852.65-.355.139-.75.209-1.186.209Zm-.028-2.997c.336 0 .62-.077.852-.231.232-.154.408-.375.529-.664.121-.289.181-.634.181-1.037 0-.393-.059-.74-.177-1.04a1.563 1.563 0 0 0-.526-.707c-.232-.171-.518-.256-.859-.256-.355 0-.651.09-.888.27-.235.18-.411.422-.529.725a2.799 2.799 0 0 0-.174 1.008c0 .379.059.714.177 1.005.121.289.299.516.533.682.237.163.53.245.881.245Zm31.534-4.617a1.114 1.114 0 0 0-.518-.838c-.303-.198-.675-.298-1.115-.298a2.12 2.12 0 0 0-.845.156 1.36 1.36 0 0 0-.561.43 1.025 1.025 0 0 0-.199.621c0 .195.046.362.138.501.095.137.216.252.363.345.146.09.3.164.461.223.161.057.309.103.444.139l.739.199c.189.049.4.118.632.206.234.087.458.207.671.358.215.15.393.341.533.576.139.234.209.522.209.863 0 .393-.103.748-.309 1.065-.203.317-.502.569-.895.756-.39.187-.865.281-1.424.281-.521 0-.972-.084-1.353-.252a2.167 2.167 0 0 1-.895-.703 2.007 2.007 0 0 1-.365-1.048h.909c.023.275.116.502.277.682.163.177.369.31.618.398.251.085.52.127.809.127.336 0 .638-.054.906-.163.267-.111.479-.265.636-.462.156-.198.234-.43.234-.696a.852.852 0 0 0-.203-.589 1.46 1.46 0 0 0-.532-.369 5.525 5.525 0 0 0-.714-.249l-.895-.256c-.568-.163-1.018-.396-1.349-.699-.332-.303-.497-.7-.497-1.19 0-.407.11-.762.33-1.065.222-.306.521-.542.895-.71a3.01 3.01 0 0 1 1.26-.256c.469 0 .886.084 1.25.252.365.166.654.393.867.682.215.289.329.617.341.983h-.853Zm4.573 5.569c-.525 0-.979-.116-1.36-.348a2.345 2.345 0 0 1-.877-.98c-.203-.422-.305-.912-.305-1.471 0-.558.102-1.051.305-1.477.206-.428.493-.762.86-1.001.369-.242.8-.363 1.292-.363.284 0 .565.048.842.142.277.095.529.249.756.462.227.211.409.49.544.838.134.348.202.777.202 1.286v.355h-4.205v-.725h3.353c0-.307-.062-.582-.185-.823a1.392 1.392 0 0 0-.518-.572 1.453 1.453 0 0 0-.789-.21 1.5 1.5 0 0 0-.866.249 1.626 1.626 0 0 0-.558.639c-.13.263-.195.545-.195.845v.483c0 .412.071.761.213 1.048.144.284.344.5.6.65.256.146.553.22.891.22.221 0 .419-.031.597-.093.18-.063.335-.158.465-.284.13-.127.231-.286.302-.475l.81.227a1.808 1.808 0 0 1-.43.724c-.201.206-.45.367-.746.483a2.756 2.756 0 0 1-.998.171Zm3.534 1.931v-7.5h.809v.867h.1c.061-.095.147-.216.256-.362.111-.149.269-.282.475-.398.209-.118.49-.178.846-.178.459 0 .864.115 1.214.345.35.23.624.555.82.976.197.422.295.919.295 1.492 0 .578-.098 1.078-.295 1.502a2.323 2.323 0 0 1-.816.98c-.348.23-.75.345-1.204.345-.351 0-.631-.058-.842-.174a1.559 1.559 0 0 1-.486-.402 5.08 5.08 0 0 1-.263-.376h-.071v2.883h-.838Zm.824-4.772c0 .412.06.775.181 1.09.121.312.297.557.529.735.232.175.516.263.852.263.351 0 .643-.093.877-.277.237-.187.415-.438.533-.753.121-.317.181-.67.181-1.058 0-.384-.059-.729-.177-1.037a1.603 1.603 0 0 0-.53-.735c-.234-.183-.529-.274-.884-.274-.341 0-.627.087-.859.26-.232.17-.407.409-.526.717a2.957 2.957 0 0 0-.177 1.069Zm35.956-.909c0 .767-.138 1.43-.415 1.988-.277.559-.657.99-1.14 1.293-.483.303-1.035.454-1.655.454-.62 0-1.172-.151-1.655-.454-.483-.303-.863-.734-1.14-1.293-.277-.558-.415-1.221-.415-1.988 0-.767.138-1.43.415-1.989.277-.559.657-.99 1.14-1.293.483-.303 1.035-.454 1.655-.454.62 0 1.172.151 1.655.454.483.303.863.734 1.14 1.293.277.559.415 1.222.415 1.989Zm-.852 0c0-.63-.106-1.162-.316-1.595-.209-.433-.491-.761-.849-.983a2.197 2.197 0 0 0-1.193-.334c-.44 0-.839.111-1.197.334-.355.222-.638.55-.849.983-.208.433-.312.965-.312 1.595 0 .629.104 1.161.312 1.594.211.433.494.761.849.984.358.222.757.334 1.197.334.44 0 .838-.112 1.193-.334.358-.223.64-.551.849-.984.21-.433.316-.965.316-1.594Zm4.435 3.75c-.511 0-.952-.121-1.321-.363a2.362 2.362 0 0 1-.852-.997c-.199-.424-.298-.908-.298-1.453 0-.554.101-1.043.305-1.466.206-.427.492-.759.859-.998.37-.242.801-.363 1.293-.363.383 0 .729.071 1.037.214.308.142.56.34.756.596.197.256.319.554.366.895h-.838a1.301 1.301 0 0 0-.426-.661c-.218-.194-.512-.291-.881-.291-.327 0-.613.085-.859.256a1.661 1.661 0 0 0-.572.714c-.135.305-.202.664-.202 1.076 0 .421.066.788.199 1.101.134.312.324.555.568.728.246.172.535.259.866.259.218 0 .416-.038.593-.114a1.223 1.223 0 0 0 .714-.838h.838a1.927 1.927 0 0 1-.352.87 1.957 1.957 0 0 1-.735.611 2.368 2.368 0 0 1-1.058.224Zm5.742-5.569v.711h-2.826v-.711h2.826Zm-2.002-1.306h.838v5.199c0 .236.034.414.103.532a.54.54 0 0 0 .269.235c.112.037.229.056.352.056.092 0 .168-.004.227-.014l.142-.028.171.753a1.857 1.857 0 0 1-.625.099c-.237 0-.469-.051-.696-.153a1.377 1.377 0 0 1-.561-.465c-.147-.208-.22-.471-.22-.788v-5.426Zm33.292-.512V328h-.852l-3.963-5.71h-.071V328h-.881v-7.273h.852l3.978 5.725h.071v-5.725h.866Zm3.865 7.387c-.493 0-.925-.118-1.297-.352a2.382 2.382 0 0 1-.866-.984c-.206-.421-.309-.913-.309-1.477 0-.568.103-1.064.309-1.488.208-.424.497-.753.866-.987a2.384 2.384 0 0 1 1.297-.352c.492 0 .923.118 1.292.352.372.234.661.563.867.987.208.424.312.92.312 1.488 0 .564-.104 1.056-.312 1.477a2.35 2.35 0 0 1-.867.984c-.369.234-.8.352-1.292.352Zm0-.753c.374 0 .681-.096.923-.288.241-.192.42-.444.536-.756.116-.313.174-.651.174-1.016 0-.364-.058-.704-.174-1.019a1.727 1.727 0 0 0-.536-.764c-.242-.194-.549-.291-.923-.291s-.682.097-.924.291c-.241.195-.42.449-.536.764a2.927 2.927 0 0 0-.174 1.019c0 .365.058.703.174 1.016.116.312.295.564.536.756.242.192.55.288.924.288Zm8.015-4.816L363.577 328h-.852l-2.017-5.455h.909l1.506 4.347h.057l1.505-4.347h.909ZM392.328 328h-2.244v-7.273h2.344c.705 0 1.309.146 1.811.437a2.86 2.86 0 0 1 1.154 1.247c.267.539.401 1.186.401 1.938 0 .758-.135 1.41-.405 1.957a2.88 2.88 0 0 1-1.179 1.257c-.516.291-1.143.437-1.882.437Zm-1.364-.781h1.307c.602 0 1.1-.116 1.495-.348a2.15 2.15 0 0 0 .885-.991c.194-.429.291-.939.291-1.531 0-.587-.096-1.092-.288-1.516a2.122 2.122 0 0 0-.859-.98c-.381-.23-.856-.344-1.424-.344h-1.407v5.71Zm8.481.895c-.526 0-.979-.116-1.36-.348a2.34 2.34 0 0 1-.878-.98c-.203-.422-.305-.912-.305-1.471 0-.558.102-1.051.305-1.477.206-.428.493-.762.86-1.001.369-.242.8-.363 1.292-.363.284 0 .565.048.842.142.277.095.529.249.756.462.228.211.409.49.544.838.135.348.202.777.202 1.286v.355h-4.204v-.725h3.352c0-.307-.062-.582-.185-.823a1.385 1.385 0 0 0-.518-.572 1.453 1.453 0 0 0-.789-.21c-.333 0-.622.083-.866.249a1.634 1.634 0 0 0-.558.639c-.13.263-.195.545-.195.845v.483c0 .412.071.761.213 1.048.145.284.345.5.6.65.256.146.553.22.892.22.22 0 .419-.031.596-.093.18-.063.335-.158.465-.284.131-.127.231-.286.302-.475l.81.227a1.796 1.796 0 0 1-.43.724c-.201.206-.45.367-.746.483a2.75 2.75 0 0 1-.997.171Zm5.749 0c-.511 0-.952-.121-1.321-.363a2.356 2.356 0 0 1-.852-.997c-.199-.424-.299-.908-.299-1.453 0-.554.102-1.043.306-1.466.206-.427.492-.759.859-.998.369-.242.8-.363 1.293-.363.383 0 .729.071 1.037.214.307.142.56.34.756.596.197.256.318.554.366.895h-.838a1.301 1.301 0 0 0-.426-.661c-.218-.194-.512-.291-.881-.291-.327 0-.613.085-.859.256a1.661 1.661 0 0 0-.572.714 2.642 2.642 0 0 0-.203 1.076c0 .421.067.788.199 1.101.135.312.325.555.568.728.247.172.535.259.867.259.218 0 .415-.038.593-.114.177-.076.328-.185.451-.327a1.25 1.25 0 0 0 .263-.511h.838a1.95 1.95 0 0 1-.352.87 1.957 1.957 0 0 1-.735.611 2.371 2.371 0 0 1-1.058.224Zm30.514-7.387h.88v5.199c0 .464-.085.858-.255 1.183-.171.324-.411.57-.721.738-.31.168-.676.252-1.097.252-.398 0-.752-.072-1.062-.216a1.756 1.756 0 0 1-.732-.625 1.717 1.717 0 0 1-.266-.963h.866c0 .206.051.386.153.54.104.152.246.27.426.355.18.086.385.128.615.128.253 0 .468-.053.646-.16.177-.106.312-.262.405-.468.094-.209.142-.463.142-.764v-5.199Zm4.137 7.401c-.346 0-.66-.065-.941-.195a1.616 1.616 0 0 1-.671-.572c-.166-.251-.249-.554-.249-.909 0-.313.062-.566.185-.76.123-.197.287-.351.493-.462.206-.111.434-.194.682-.248.251-.057.503-.102.756-.135.332-.043.601-.075.807-.096.208-.024.359-.063.454-.117.097-.055.146-.15.146-.285v-.028c0-.35-.096-.623-.288-.817-.189-.194-.477-.291-.863-.291-.4 0-.714.088-.941.263-.227.175-.387.362-.479.561l-.796-.284c.142-.332.332-.59.568-.774.24-.187.5-.318.782-.391a3.23 3.23 0 0 1 .838-.114c.175 0 .376.022.603.064.23.041.451.125.665.252.215.128.394.321.536.579.142.258.213.604.213 1.037V328h-.838v-.739h-.043a1.46 1.46 0 0 1-.284.38 1.65 1.65 0 0 1-.529.345 2.05 2.05 0 0 1-.806.142Zm.128-.753c.331 0 .61-.065.838-.195a1.34 1.34 0 0 0 .696-1.154v-.767c-.036.042-.114.081-.235.117a3.932 3.932 0 0 1-.412.088 16.838 16.838 0 0 1-.802.107 3.157 3.157 0 0 0-.611.139 1.05 1.05 0 0 0-.454.28c-.114.123-.171.291-.171.504 0 .292.108.512.323.661.218.147.494.22.828.22Zm4.74-2.656V328h-.839v-5.455h.81v.853h.071c.128-.277.322-.5.583-.668.26-.17.596-.256 1.008-.256.369 0 .693.076.97.228.277.149.492.376.646.682.154.303.231.686.231 1.15V328h-.838v-3.409c0-.429-.112-.762-.334-1.002-.223-.241-.528-.362-.916-.362-.268 0-.507.058-.718.174a1.245 1.245 0 0 0-.493.508c-.121.223-.181.493-.181.81ZM474.131 328v-7.273h4.36v.782h-3.48v2.457h3.154v.781h-3.154V328h-.88Zm7.642.114c-.526 0-.979-.116-1.36-.348a2.331 2.331 0 0 1-.877-.98c-.204-.422-.306-.912-.306-1.471 0-.558.102-1.051.306-1.477.205-.428.492-.762.859-1.001.369-.242.8-.363 1.293-.363.284 0 .564.048.841.142a2.1 2.1 0 0 1 .757.462c.227.211.408.49.543.838.135.348.202.777.202 1.286v.355h-4.204v-.725h3.352c0-.307-.062-.582-.185-.823a1.378 1.378 0 0 0-.518-.572 1.45 1.45 0 0 0-.788-.21c-.334 0-.623.083-.867.249a1.642 1.642 0 0 0-.558.639c-.13.263-.195.545-.195.845v.483c0 .412.071.761.213 1.048.145.284.345.5.6.65.256.146.553.22.892.22.22 0 .419-.031.596-.093.18-.063.335-.158.466-.284.13-.127.23-.286.301-.475l.81.227a1.785 1.785 0 0 1-.43.724 2.088 2.088 0 0 1-.745.483 2.76 2.76 0 0 1-.998.171Zm3.647-.114v-7.273h.838v2.685h.071c.061-.095.147-.216.256-.362.111-.149.269-.282.475-.398.209-.118.49-.178.846-.178.459 0 .864.115 1.214.345.35.23.624.555.82.976.197.422.295.919.295 1.492 0 .578-.098 1.078-.295 1.502a2.323 2.323 0 0 1-.816.98c-.348.23-.75.345-1.204.345-.351 0-.631-.058-.842-.174a1.559 1.559 0 0 1-.486-.402 5.08 5.08 0 0 1-.263-.376h-.1V328h-.809Zm.824-2.727c0 .412.06.775.181 1.09.12.312.297.557.529.735.232.175.516.263.852.263.35 0 .643-.093.877-.277.237-.187.415-.438.533-.753.121-.317.181-.67.181-1.058 0-.384-.059-.729-.178-1.037a1.601 1.601 0 0 0-.529-.735c-.234-.183-.529-.274-.884-.274-.341 0-.627.087-.859.26-.232.17-.407.409-.526.717a2.957 2.957 0 0 0-.177 1.069Zm22.222-4.546h1.051l2.471 6.037h.086l2.471-6.037h1.051V328h-.824v-5.526h-.071L512.429 328h-.796l-2.272-5.526h-.071V328h-.824v-7.273Zm10.388 7.401c-.346 0-.66-.065-.941-.195a1.625 1.625 0 0 1-.672-.572c-.165-.251-.248-.554-.248-.909 0-.313.061-.566.184-.76.124-.197.288-.351.494-.462.206-.111.433-.194.682-.248.251-.057.503-.102.756-.135.332-.043.6-.075.806-.096.209-.024.36-.063.455-.117.097-.055.146-.15.146-.285v-.028c0-.35-.096-.623-.288-.817-.189-.194-.477-.291-.863-.291-.4 0-.714.088-.941.263-.227.175-.387.362-.479.561l-.796-.284c.142-.332.331-.59.568-.774.239-.187.5-.318.781-.391.285-.076.564-.114.839-.114.175 0 .376.022.603.064.23.041.451.125.664.252.216.128.394.321.537.579.142.258.213.604.213 1.037V328h-.838v-.739h-.043a1.483 1.483 0 0 1-.284.38 1.65 1.65 0 0 1-.529.345 2.05 2.05 0 0 1-.806.142Zm.127-.753c.332 0 .611-.065.839-.195a1.34 1.34 0 0 0 .696-1.154v-.767c-.036.042-.114.081-.235.117a3.989 3.989 0 0 1-.412.088 17.434 17.434 0 0 1-.802.107 3.157 3.157 0 0 0-.611.139 1.053 1.053 0 0 0-.455.28c-.113.123-.17.291-.17.504 0 .292.108.512.323.661.218.147.494.22.827.22Zm3.902.625v-5.455h.81v.824h.057c.099-.27.279-.489.54-.657.26-.168.553-.252.88-.252a7.106 7.106 0 0 1 .441.014v.853a2.503 2.503 0 0 0-.196-.032 1.874 1.874 0 0 0-.316-.025c-.265 0-.502.056-.71.167a1.26 1.26 0 0 0-.49.454 1.23 1.23 0 0 0-.178.657V328h-.838ZM28.114 314v-.639l2.4-2.628c.283-.308.515-.575.697-.803a2.96 2.96 0 0 0 .405-.646c.09-.204.134-.417.134-.639a1.18 1.18 0 0 0-.184-.664 1.193 1.193 0 0 0-.497-.433 1.609 1.609 0 0 0-.71-.153c-.28 0-.524.058-.732.174a1.2 1.2 0 0 0-.48.479 1.505 1.505 0 0 0-.166.725h-.838c0-.426.098-.8.294-1.122a2.05 2.05 0 0 1 .803-.753c.34-.18.723-.27 1.147-.27.426 0 .804.09 1.133.27.329.18.587.422.774.728.187.305.28.645.28 1.019a2.2 2.2 0 0 1-.145.785c-.095.253-.26.536-.497.848-.235.311-.56.689-.977 1.137l-1.633 1.747v.057h3.38V314h-4.588Zm8.328.099c-.417 0-.792-.082-1.126-.248a2.092 2.092 0 0 1-.803-.682 1.858 1.858 0 0 1-.33-.987h.852c.034.329.183.601.448.817.267.213.587.319.959.319a1.482 1.482 0 0 0 1.346-.785c.134-.246.202-.524.202-.834 0-.317-.07-.6-.21-.849a1.541 1.541 0 0 0-.568-.593 1.606 1.606 0 0 0-.827-.22 2.285 2.285 0 0 0-.686.103 1.91 1.91 0 0 0-.578.266l-.824-.099.44-3.58h3.778v.782h-3.04l-.255 2.144h.043a2.14 2.14 0 0 1 1.264-.412 2.235 2.235 0 0 1 2.014 1.187c.2.367.301.786.301 1.257 0 .464-.104.878-.312 1.243-.206.362-.49.648-.853.859a2.437 2.437 0 0 1-1.235.312Zm6.183 0c-.535 0-.99-.145-1.367-.436-.377-.294-.664-.719-.863-1.275-.199-.559-.298-1.234-.298-2.024 0-.786.099-1.458.298-2.014.201-.559.49-.985.866-1.278.38-.296.834-.444 1.364-.444.53 0 .984.148 1.36.444.379.293.668.719.867 1.278.2.556.301 1.228.301 2.014 0 .79-.099 1.465-.298 2.024-.199.556-.486.981-.863 1.275-.376.291-.832.436-1.367.436Zm0-.781c.53 0 .942-.256 1.236-.767.293-.511.44-1.24.44-2.187 0-.63-.067-1.166-.202-1.609-.133-.443-.325-.78-.576-1.012a1.27 1.27 0 0 0-.898-.348c-.526 0-.936.259-1.232.778-.296.516-.444 1.246-.444 2.191 0 .629.066 1.164.199 1.605.132.44.323.775.571 1.005.251.229.553.344.906.344Zm6.25.781c-.535 0-.99-.145-1.367-.436-.377-.294-.664-.719-.863-1.275-.199-.559-.298-1.234-.298-2.024 0-.786.099-1.458.298-2.014.201-.559.49-.985.866-1.278.38-.296.834-.444 1.364-.444.53 0 .984.148 1.36.444.379.293.668.719.867 1.278.2.556.301 1.228.301 2.014 0 .79-.099 1.465-.298 2.024-.199.556-.486.981-.863 1.275-.376.291-.832.436-1.367.436Zm0-.781c.53 0 .942-.256 1.236-.767.293-.511.44-1.24.44-2.187 0-.63-.067-1.166-.202-1.609-.133-.443-.325-.78-.576-1.012a1.27 1.27 0 0 0-.898-.348c-.526 0-.936.259-1.232.778-.296.516-.444 1.246-.444 2.191 0 .629.066 1.164.199 1.605.132.44.323.775.571 1.005.251.229.553.344.906.344Zm-11.878-44.409v-9.091h.583v9.091h-.583Zm1.96-6.364a1.116 1.116 0 0 0-.518-.838c-.303-.198-.675-.298-1.115-.298a2.12 2.12 0 0 0-.845.156 1.36 1.36 0 0 0-.561.43 1.028 1.028 0 0 0-.2.621.88.88 0 0 0 .14.501c.094.137.215.252.362.345.146.09.3.164.461.223.161.057.31.103.444.139l.739.199c.19.049.4.118.632.206.234.087.458.207.671.358.215.15.393.341.533.576.14.234.21.522.21.863 0 .393-.104.748-.31 1.065-.203.317-.502.569-.895.756-.39.187-.865.281-1.424.281-.52 0-.971-.084-1.353-.252a2.16 2.16 0 0 1-.894-.703 2.007 2.007 0 0 1-.366-1.048h.909c.024.275.116.502.277.682.163.177.37.31.618.398.25.085.52.127.81.127.336 0 .637-.054.905-.163.268-.111.48-.265.636-.462a1.09 1.09 0 0 0 .234-.696.856.856 0 0 0-.202-.589 1.47 1.47 0 0 0-.533-.369 5.548 5.548 0 0 0-.714-.249l-.895-.256c-.568-.163-1.018-.396-1.35-.699-.33-.303-.496-.7-.496-1.19 0-.407.11-.762.33-1.065.222-.306.52-.542.895-.71a3.013 3.013 0 0 1 1.26-.256c.47 0 .886.084 1.25.252.365.166.654.393.867.682.215.289.329.617.34.983h-.851Zm4.545 5.554c-.416 0-.792-.082-1.126-.248a2.092 2.092 0 0 1-.802-.682 1.857 1.857 0 0 1-.33-.987h.852c.033.329.182.601.447.817.268.213.587.319.96.319a1.482 1.482 0 0 0 1.346-.785c.134-.246.201-.524.201-.834 0-.317-.07-.6-.21-.849a1.541 1.541 0 0 0-.567-.593 1.605 1.605 0 0 0-.828-.22 2.286 2.286 0 0 0-.685.103 1.911 1.911 0 0 0-.579.266l-.824-.099.44-3.58h3.779v.782h-3.04l-.255 2.144h.042a1.9 1.9 0 0 1 .561-.294c.225-.078.46-.118.703-.118a2.235 2.235 0 0 1 2.014 1.187c.201.367.302.786.302 1.257 0 .464-.105.878-.313 1.243-.206.362-.49.648-.852.859a2.437 2.437 0 0 1-1.236.312Zm4.607-2.088-.014-1.037h.17l2.386-2.429h1.037l-2.542 2.571h-.071l-.966.895ZM47.328 268v-7.273h.838V268h-.838Zm3.465 0-2.13-2.699.596-.582 2.6 3.281h-1.066Zm-16.407-47 3.253-6.435v-.056h-3.75v-.782h4.66v.824L35.308 221h-.923Zm4.861.057a.617.617 0 0 1-.451-.188.616.616 0 0 1-.188-.451c0-.176.063-.326.188-.451a.614.614 0 0 1 .451-.189c.175 0 .325.063.451.189a.613.613 0 0 1 .188.451.6.6 0 0 1-.089.319.617.617 0 0 1-.55.32Zm4.255.042c-.416 0-.792-.082-1.126-.248a2.092 2.092 0 0 1-.802-.682 1.857 1.857 0 0 1-.33-.987h.852c.033.329.182.601.447.817.268.213.587.319.96.319a1.482 1.482 0 0 0 1.346-.785c.134-.246.201-.524.201-.834 0-.317-.07-.6-.21-.849a1.541 1.541 0 0 0-.567-.593 1.605 1.605 0 0 0-.828-.22 2.286 2.286 0 0 0-.685.103 1.911 1.911 0 0 0-.579.266l-.824-.099.44-3.58h3.779v.782h-3.04l-.255 2.144h.042a1.9 1.9 0 0 1 .561-.294c.225-.078.46-.118.703-.118a2.235 2.235 0 0 1 2.014 1.187c.201.367.302.786.302 1.257 0 .464-.105.878-.313 1.243-.206.362-.49.648-.852.859a2.437 2.437 0 0 1-1.236.312Zm4.607-2.088-.014-1.037h.17l2.386-2.429h1.037l-2.542 2.571h-.071l-.966.895ZM47.328 221v-7.273h.838V221h-.838Zm3.465 0-2.13-2.699.596-.582 2.6 3.281h-1.066Zm-11.821-54.273V174h-.88v-6.349h-.044l-1.775 1.179v-.895l1.818-1.208h.88Zm4.463 7.372c-.535 0-.99-.145-1.367-.436-.376-.294-.664-.719-.863-1.275-.198-.559-.298-1.234-.298-2.024 0-.786.1-1.458.298-2.014.202-.559.49-.985.867-1.278.379-.296.833-.444 1.363-.444s.984.148 1.36.444c.38.293.668.719.867 1.278.201.556.302 1.228.302 2.014 0 .79-.1 1.465-.298 2.024-.2.556-.487.981-.863 1.275-.377.291-.832.436-1.367.436Zm0-.781c.53 0 .943-.256 1.236-.767.294-.511.44-1.24.44-2.187 0-.63-.067-1.166-.202-1.609-.132-.443-.324-.78-.575-1.012a1.27 1.27 0 0 0-.899-.348c-.525 0-.936.259-1.232.778-.296.516-.444 1.246-.444 2.191 0 .629.067 1.164.2 1.605.132.44.322.775.571 1.005.251.229.553.344.905.344Zm4.674-1.307-.014-1.037h.17l2.386-2.429h1.037l-2.542 2.571h-.071l-.966.895ZM47.328 174v-7.273h.838V174h-.838Zm3.465 0-2.13-2.699.596-.582 2.6 3.281h-1.066Zm-20.317-53.273V128h-.881v-6.349h-.043l-1.775 1.179v-.895l1.818-1.208h.88ZM32.567 128v-.639l2.4-2.628c.283-.308.515-.575.697-.803a2.96 2.96 0 0 0 .405-.646c.09-.204.135-.417.135-.639a1.18 1.18 0 0 0-.682-1.097 1.609 1.609 0 0 0-.71-.153c-.28 0-.524.058-.732.174a1.199 1.199 0 0 0-.48.479 1.504 1.504 0 0 0-.166.725h-.838c0-.426.098-.8.294-1.122.197-.322.465-.573.803-.753.34-.18.723-.27 1.147-.27.426 0 .804.09 1.133.27.329.18.587.422.774.728.187.305.28.645.28 1.019a2.2 2.2 0 0 1-.145.785c-.095.253-.26.536-.497.848-.235.311-.56.689-.977 1.137l-1.633 1.747v.057h3.38V128h-4.588Zm6.68.057a.617.617 0 0 1-.451-.188.616.616 0 0 1-.188-.451c0-.176.063-.326.188-.451a.614.614 0 0 1 .451-.189c.175 0 .325.063.451.189a.613.613 0 0 1 .188.451.6.6 0 0 1-.089.319.617.617 0 0 1-.55.32Zm4.255.042c-.416 0-.792-.082-1.126-.248a2.092 2.092 0 0 1-.802-.682 1.857 1.857 0 0 1-.33-.987h.852c.033.329.182.601.447.817.268.213.587.319.96.319a1.482 1.482 0 0 0 1.346-.785c.134-.246.201-.524.201-.834 0-.317-.07-.6-.21-.849a1.541 1.541 0 0 0-.567-.593 1.605 1.605 0 0 0-.828-.22 2.286 2.286 0 0 0-.685.103 1.911 1.911 0 0 0-.579.266l-.824-.099.44-3.58h3.779v.782h-3.04l-.255 2.144h.042a1.9 1.9 0 0 1 .561-.294c.225-.078.46-.118.703-.118a2.235 2.235 0 0 1 2.014 1.187c.201.367.302.786.302 1.257 0 .464-.105.878-.313 1.243-.206.362-.49.648-.852.859a2.437 2.437 0 0 1-1.236.312Zm4.607-2.088-.014-1.037h.17l2.386-2.429h1.037l-2.542 2.571h-.071l-.966.895ZM47.328 128v-7.273h.838V128h-.838Zm3.465 0-2.13-2.699.596-.582 2.6 3.281h-1.066ZM39.138 73.727V81h-.88v-6.35h-.044l-1.775 1.18v-.895l1.818-1.208h.88Zm4.364 7.372c-.416 0-.792-.082-1.126-.248a2.09 2.09 0 0 1-.802-.682 1.857 1.857 0 0 1-.33-.987h.852c.033.329.182.601.447.817.268.213.587.32.96.32.297 0 .563-.07.795-.21a1.48 1.48 0 0 0 .55-.576c.135-.246.202-.524.202-.834 0-.317-.07-.6-.21-.849a1.538 1.538 0 0 0-.567-.593 1.606 1.606 0 0 0-.828-.22 2.276 2.276 0 0 0-.685.103 1.907 1.907 0 0 0-.579.266l-.824-.1.44-3.579h3.779v.781h-3.04l-.255 2.145h.042a2.134 2.134 0 0 1 1.264-.411c.445 0 .842.106 1.19.32.35.21.625.499.824.866.201.367.302.785.302 1.257 0 .464-.105.878-.313 1.243-.206.362-.49.648-.852.859a2.433 2.433 0 0 1-1.236.312Zm4.607-2.088-.014-1.037h.17l2.386-2.428h1.037l-2.542 2.57h-.071l-.966.895ZM47.328 81v-7.273h.838V81h-.838Zm3.465 0-2.13-2.699.596-.582L51.86 81h-1.066ZM32.068 26.727V34h-.881v-6.35h-.043l-1.775 1.18v-.895l1.818-1.208h.88ZM34.386 34l3.253-6.435v-.056h-3.75v-.782h4.66v.824L35.308 34h-.923Zm4.861.057a.615.615 0 0 1-.451-.188.615.615 0 0 1-.188-.451c0-.176.063-.326.188-.451a.615.615 0 0 1 .451-.189c.175 0 .325.063.451.189a.616.616 0 0 1 .188.45.663.663 0 0 1-.32.554.61.61 0 0 1-.319.086Zm4.255.042c-.416 0-.792-.082-1.126-.248a2.09 2.09 0 0 1-.802-.682 1.857 1.857 0 0 1-.33-.987h.852c.033.329.182.601.447.817.268.213.587.32.96.32.297 0 .563-.07.795-.21a1.48 1.48 0 0 0 .55-.576c.135-.246.202-.524.202-.834 0-.317-.07-.6-.21-.849a1.538 1.538 0 0 0-.567-.593 1.606 1.606 0 0 0-.828-.22 2.276 2.276 0 0 0-.685.103 1.907 1.907 0 0 0-.579.266l-.824-.1.44-3.579h3.779v.782h-3.04l-.255 2.144h.042a1.91 1.91 0 0 1 .561-.294c.225-.079.46-.118.703-.118.445 0 .842.107 1.19.32.35.21.625.5.824.867.201.366.302.785.302 1.257 0 .464-.105.878-.313 1.243-.206.362-.49.648-.852.859a2.433 2.433 0 0 1-1.236.312Zm4.607-2.088-.014-1.037h.17l2.386-2.428h1.037l-2.542 2.57h-.071l-.966.895ZM47.328 34v-7.273h.838V34h-.838Zm3.465 0-2.13-2.699.596-.582L51.86 34h-1.066Z"/></svg>