<svg width="55" height="52" viewBox="0 0 55 52" fill="none" xmlns="http://www.w3.org/2000/svg">
<path d="M47.458 33.7118L39.8031 37.699C39.4696 36.749 38.8313 35.922 37.9779 35.3342C37.1245 34.7464 36.0987 34.4273 35.0446 34.4215H29.1362C28.1738 34.42 27.2244 34.2097 26.3605 33.8066L25.7512 33.5219C24.0216 32.7076 22.0857 32.3718 20.1648 32.553C18.2439 32.7342 16.4154 33.4251 14.8882 34.5466C14.8742 34.5568 14.8607 34.5675 14.8477 34.5786L13.3766 35.8439C12.78 36.3543 12.068 36.7278 11.2955 36.9355C11.2286 36.8829 11.1512 36.8438 11.0679 36.8205C10.9846 36.7973 10.8973 36.7904 10.8111 36.8002L5.12888 37.4805C4.96784 37.4999 4.82059 37.5767 4.71698 37.6954C4.61338 37.8141 4.56119 37.9658 4.57099 38.1197L5.30617 49.9018C5.31579 50.0564 5.38722 50.2017 5.50586 50.3079C5.6245 50.4142 5.78137 50.4733 5.9444 50.4733C5.97233 50.4733 6.00024 50.4716 6.02793 50.4681L14.5633 49.3992C14.6518 49.3881 14.737 49.3595 14.8132 49.3152C14.8894 49.271 14.955 49.212 15.0058 49.1422C15.0565 49.0724 15.0913 48.9932 15.1079 48.9099C15.1245 48.8265 15.1225 48.7407 15.1021 48.6581L15.0757 48.5513L19.4895 45.8544C20.0748 45.5403 20.7652 45.4536 21.4163 45.6123L30.3385 47.2015C32.7509 47.6183 35.2406 47.2787 37.432 46.2338L52.8721 35.9949C53.0043 35.9072 53.0967 35.7753 53.1308 35.6256C53.165 35.476 53.1383 35.3196 53.0563 35.1878C52.5106 34.2962 51.6196 33.6427 50.5735 33.3669C49.5274 33.0911 48.4093 33.2149 47.458 33.7118ZM6.54117 49.178L5.88239 38.6148L10.4353 38.0697L13.685 48.2834L6.54117 49.178ZM37.3006 44.8468C36.9246 45.0996 36.5194 45.3108 36.093 45.4764C34.342 46.1436 32.4282 46.3276 30.5719 46.0072L21.7118 44.4303C20.7401 44.1984 19.7117 44.333 18.8422 44.8058C18.8321 44.8112 18.8222 44.8169 18.8125 44.8229L14.7161 47.3258L11.7708 38.0691C12.684 37.8038 13.5251 37.3517 14.2349 36.7448L15.6861 35.4961C17.024 34.5191 18.6237 33.9183 20.3032 33.7619C21.9827 33.6056 23.6746 33.9 25.1868 34.6117L25.796 34.8966C26.8356 35.3814 27.9781 35.6344 29.1362 35.6362H35.0446C36.8897 35.6362 38.4282 36.9331 38.7403 38.6361L34.4271 38.4475C32.877 38.3798 31.3236 38.4486 29.7869 38.653C29.6304 38.6722 29.4866 38.7447 29.3821 38.8569C29.2776 38.9692 29.2195 39.1137 29.2186 39.2635C29.2196 39.3499 29.24 39.435 29.2784 39.5133C29.3168 39.5916 29.3723 39.6611 29.4412 39.7174C29.5102 39.7737 29.591 39.8153 29.6782 39.8396C29.7655 39.8639 29.8571 39.8702 29.9471 39.8581C31.4113 39.6627 32.8913 39.5967 34.3682 39.6608L39.408 39.8813C39.4236 39.8819 39.4392 39.8821 39.4551 39.8813C39.5319 39.8796 39.6078 39.8645 39.6788 39.8367C39.7963 39.7909 39.8968 39.713 39.9676 39.6129C40.0383 39.5127 40.0762 39.3948 40.0762 39.2742C40.0762 39.1628 40.0709 39.0532 40.0632 38.9439L48.0728 34.776C48.6434 34.478 49.3037 34.3727 49.9455 34.4775C50.5873 34.5823 51.1727 34.891 51.6058 35.353L37.3006 44.8468Z" fill="#2F7B2F"/>
<path d="M9.88657 28.9307H9.88444C9.80049 28.9306 9.71733 28.9462 9.63972 28.9766C9.56211 29.007 9.49156 29.0516 9.4321 29.1079C9.31202 29.2216 9.24441 29.376 9.24414 29.5371C9.24387 29.6982 9.31097 29.8527 9.43067 29.9668C9.55037 30.0809 9.71287 30.1451 9.88242 30.1454L10.5067 30.1473H10.5087C10.6783 30.1476 10.841 30.0838 10.9611 29.9701C11.0811 29.8564 11.1487 29.702 11.149 29.5409C11.1493 29.3799 11.0822 29.2253 10.9625 29.1112C10.8428 28.9971 10.6803 28.9329 10.5107 28.9327L9.88657 28.9307Z" fill="#2F7B2F"/>
<path d="M12.1979 30.1525L16.5633 30.172H16.5663C16.7359 30.1724 16.8986 30.1087 17.0188 29.9951C17.139 29.8815 17.2067 29.7272 17.2071 29.5661C17.2075 29.405 17.1405 29.2504 17.0209 29.1362C16.9013 29.0221 16.7389 28.9577 16.5693 28.9573L12.2039 28.9378H12.2008C12.0313 28.9374 11.8685 29.0011 11.7484 29.1147C11.6282 29.2283 11.5605 29.3826 11.5601 29.5437C11.5597 29.7048 11.6266 29.8594 11.7462 29.9736C11.8659 30.0877 12.0283 30.1521 12.1979 30.1525Z" fill="#2F7B2F"/>
<path d="M14.6262 27.2598H14.6283C14.7979 27.26 14.9606 27.1963 15.0807 27.0826C15.2008 26.9688 15.2684 26.8145 15.2686 26.6534C15.2689 26.4923 15.2018 26.3378 15.0821 26.2237C14.9624 26.1096 14.7999 26.0454 14.6304 26.0451L14.0063 26.0431H14.0041C13.8345 26.0428 13.6718 26.1066 13.5517 26.2203C13.4316 26.334 13.364 26.4884 13.3638 26.6495C13.3635 26.8105 13.4306 26.9651 13.5503 27.0792C13.67 27.1933 13.8325 27.2575 14.002 27.2577L14.6262 27.2598Z" fill="#2F7B2F"/>
<path d="M12.3117 27.2526C12.4812 27.2531 12.644 27.1895 12.7643 27.076C12.8845 26.9624 12.9523 26.8081 12.9528 26.647C12.9533 26.486 12.8864 26.3313 12.7669 26.2171C12.6474 26.1028 12.485 26.0384 12.3154 26.0379L8.86825 26.0185H8.86474C8.78078 26.0183 8.69761 26.0338 8.61995 26.0641C8.5423 26.0944 8.47169 26.1389 8.41216 26.1952C8.35263 26.2514 8.30534 26.3182 8.27299 26.3918C8.24064 26.4654 8.22387 26.5443 8.22364 26.6241C8.2234 26.7039 8.2397 26.7829 8.27161 26.8566C8.30351 26.9304 8.3504 26.9975 8.4096 27.054C8.46879 27.1106 8.53913 27.1555 8.61661 27.1863C8.69408 27.217 8.77716 27.2329 8.86111 27.2331L12.3083 27.2526H12.3117Z" fill="#2F7B2F"/>
<path d="M46.0149 42.5175L44.6217 43.4509C44.5522 43.4965 44.493 43.5548 44.4474 43.6223C44.4018 43.6898 44.3708 43.7652 44.356 43.8442C44.3413 43.9232 44.3431 44.0042 44.3615 44.0824C44.3799 44.1607 44.4144 44.2348 44.4631 44.3003C44.5117 44.3659 44.5736 44.4216 44.645 44.4643C44.7165 44.507 44.7961 44.5359 44.8794 44.5492C44.9627 44.5625 45.0479 44.56 45.1301 44.5419C45.2123 44.5237 45.29 44.4903 45.3586 44.4435L46.7518 43.5101C46.8887 43.4167 46.9812 43.2756 47.0091 43.1177C47.0371 42.9598 46.9983 42.7978 46.9011 42.6669C46.804 42.536 46.6563 42.4469 46.4904 42.4189C46.3244 42.391 46.1535 42.4264 46.0149 42.5175Z" fill="#2F7B2F"/>
<path d="M40.4418 46.251L39.0487 47.1842C38.9801 47.2302 38.9217 47.2886 38.8768 47.356C38.8319 47.4234 38.8015 47.4985 38.7872 47.5771C38.7729 47.6557 38.775 47.7362 38.7935 47.814C38.8119 47.8918 38.8463 47.9654 38.8947 48.0306C38.9431 48.0958 39.0045 48.1513 39.0754 48.1939C39.1464 48.2365 39.2255 48.2655 39.3082 48.279C39.391 48.2926 39.4757 48.2906 39.5576 48.2731C39.6395 48.2555 39.717 48.2229 39.7856 48.1769L41.1787 47.2436C41.2481 47.1979 41.3073 47.1396 41.3529 47.0721C41.3985 47.0046 41.4296 46.9292 41.4443 46.8502C41.4591 46.7713 41.4572 46.6903 41.4389 46.612C41.4205 46.5337 41.386 46.4597 41.3373 46.3941C41.2887 46.3286 41.2268 46.2728 41.1553 46.2301C41.0839 46.1874 41.0042 46.1586 40.921 46.1453C40.8377 46.132 40.7525 46.1344 40.6703 46.1526C40.588 46.1707 40.5104 46.2042 40.4418 46.251Z" fill="#2F7B2F"/>
<path d="M48.8013 40.6509L47.4081 41.5842C47.2695 41.6771 47.1754 41.8184 47.1466 41.9771C47.1177 42.1358 47.1563 42.2989 47.2541 42.4306C47.3518 42.5622 47.5005 42.6516 47.6676 42.679C47.8347 42.7065 48.0064 42.6697 48.145 42.5769L49.5382 41.6435C49.6767 41.5507 49.7708 41.4094 49.7997 41.2507C49.8286 41.0919 49.7899 40.9288 49.6922 40.7972C49.5945 40.6655 49.4457 40.5762 49.2786 40.5487C49.1116 40.5213 48.9399 40.558 48.8013 40.6509Z" fill="#2F7B2F"/>
<path d="M43.2284 44.3843L41.8352 45.3176C41.766 45.3634 41.707 45.4216 41.6616 45.4891C41.6162 45.5566 41.5853 45.6319 41.5707 45.7108C41.5561 45.7896 41.558 45.8705 41.5764 45.9486C41.5948 46.0268 41.6293 46.1007 41.6779 46.1661C41.7264 46.2316 41.7881 46.2872 41.8594 46.3299C41.9307 46.3726 42.0102 46.4015 42.0933 46.4149C42.1764 46.4283 42.2615 46.426 42.3436 46.408C42.4258 46.3901 42.5034 46.3569 42.572 46.3103L43.9652 45.3769C44.0344 45.3312 44.0933 45.2729 44.1387 45.2055C44.1841 45.138 44.215 45.0627 44.2296 44.9838C44.2442 44.9049 44.2423 44.8241 44.2239 44.746C44.2055 44.6678 44.1711 44.5939 44.1225 44.5285C44.0739 44.463 44.0122 44.4074 43.9409 44.3647C43.8696 44.322 43.7901 44.2931 43.707 44.2797C43.6239 44.2663 43.5389 44.2686 43.4567 44.2866C43.3746 44.3045 43.297 44.3377 43.2284 44.3843Z" fill="#2F7B2F"/>
<path d="M51.5877 38.7842L50.1948 39.7176C50.125 39.7631 50.0653 39.8213 50.0194 39.8888C49.9734 39.9564 49.942 40.0319 49.9271 40.1111C49.9121 40.1902 49.9138 40.2714 49.9322 40.35C49.9505 40.4285 49.985 40.5028 50.0338 40.5685C50.0826 40.6342 50.1447 40.6901 50.2164 40.7329C50.2881 40.7756 50.368 40.8044 50.4515 40.8176C50.535 40.8308 50.6205 40.8281 50.7029 40.8096C50.7853 40.7912 50.863 40.7574 50.9316 40.7102L52.3248 39.7769C52.394 39.7312 52.453 39.6729 52.4983 39.6054C52.5437 39.5379 52.5746 39.4626 52.5892 39.3838C52.6039 39.3049 52.6019 39.2241 52.5835 39.1459C52.5652 39.0678 52.5307 38.9939 52.4821 38.9284C52.4335 38.863 52.3718 38.8073 52.3005 38.7646C52.2292 38.7219 52.1497 38.693 52.0666 38.6796C51.9835 38.6662 51.8985 38.6686 51.8163 38.6865C51.7342 38.7045 51.6566 38.7377 51.588 38.7842H51.5877Z" fill="#2F7B2F"/>
<path d="M36.5866 8.20645C36.4273 8.15163 36.2515 8.15917 36.098 8.22741C35.9445 8.29564 35.8258 8.41899 35.768 8.57034L35.3474 9.67213C35.3183 9.74719 35.3052 9.82697 35.3087 9.90688C35.3122 9.98679 35.3322 10.0653 35.3677 10.1378C35.4032 10.2103 35.4535 10.2754 35.5155 10.3295C35.5776 10.3835 35.6503 10.4253 35.7294 10.4526C35.8086 10.4799 35.8926 10.492 35.9767 10.4884C36.0608 10.4847 36.1433 10.4653 36.2195 10.4312C36.2957 10.3972 36.364 10.3492 36.4206 10.29C36.4772 10.2308 36.521 10.1615 36.5493 10.0862L36.97 8.98453C36.9986 8.90953 37.0114 8.82991 37.0076 8.75021C37.0039 8.67051 36.9836 8.5923 36.948 8.52004C36.9124 8.44778 36.8622 8.3829 36.8001 8.32909C36.7381 8.27528 36.6656 8.23361 36.5866 8.20645Z" fill="#2F7B2F"/>
<path d="M37.5984 7.33778L39.2377 3.04349C39.2668 2.96843 39.2799 2.88865 39.2764 2.80874C39.2729 2.72883 39.2529 2.65036 39.2173 2.57784C39.1818 2.50532 39.1316 2.44018 39.0695 2.38615C39.0075 2.33212 38.9348 2.29027 38.8556 2.26301C38.7765 2.23574 38.6924 2.22359 38.6083 2.22726C38.5242 2.23093 38.4417 2.25035 38.3656 2.28439C38.2894 2.31843 38.221 2.36644 38.1644 2.42564C38.1078 2.48485 38.0641 2.55409 38.0357 2.6294L36.3967 6.92349C36.3681 6.99846 36.3553 7.07806 36.359 7.15774C36.3628 7.23742 36.383 7.31561 36.4186 7.38786C36.4542 7.4601 36.5043 7.52499 36.5663 7.57881C36.6283 7.63263 36.7008 7.67432 36.7797 7.70152C36.8586 7.72872 36.9424 7.74088 37.0263 7.73731C37.1102 7.73375 37.1925 7.71452 37.2685 7.68074C37.3446 7.64695 37.4129 7.59927 37.4695 7.54041C37.5262 7.48154 37.5701 7.41266 37.5987 7.33768L37.5984 7.33778Z" fill="#2F7B2F"/>
<path d="M41.6441 4.3345L40.029 8.56553C39.9712 8.71695 39.9791 8.88399 40.0509 9.0299C40.1227 9.17581 40.2526 9.28864 40.412 9.34356C40.5714 9.39849 40.7472 9.39101 40.9008 9.32278C41.0544 9.25455 41.1732 9.13115 41.231 8.97972L42.8461 4.7487C42.9039 4.59728 42.896 4.43024 42.8242 4.28433C42.7524 4.13842 42.6225 4.02559 42.4631 3.97067C42.3037 3.91574 42.1279 3.92322 41.9743 3.99145C41.8207 4.05968 41.7019 4.18308 41.6441 4.3345Z" fill="#2F7B2F"/>
<path d="M42.6747 3.4166C42.7536 3.44387 42.8374 3.45609 42.9213 3.45256C43.0052 3.44902 43.0875 3.42981 43.1636 3.39601C43.2397 3.36221 43.308 3.31449 43.3646 3.25558C43.4212 3.19667 43.4651 3.12773 43.4936 3.05271L43.8319 2.16673C43.8871 2.01591 43.8776 1.8505 43.8054 1.70631C43.7332 1.56212 43.6041 1.45076 43.4461 1.39631C43.288 1.34187 43.1138 1.34874 42.9611 1.41543C42.8084 1.48211 42.6894 1.60326 42.6301 1.75263L42.2918 2.63851C42.2631 2.71349 42.2503 2.79309 42.2541 2.87277C42.2578 2.95245 42.278 3.03065 42.3136 3.1029C42.3491 3.17516 42.3993 3.24005 42.4613 3.29387C42.5233 3.3477 42.5958 3.3894 42.6747 3.4166Z" fill="#2F7B2F"/>
<path d="M43.2622 13.034C43.3411 13.0612 43.4249 13.0733 43.5088 13.0698C43.5927 13.0662 43.675 13.047 43.751 13.0132C43.8271 12.9794 43.8954 12.9317 43.9521 12.8728C44.0087 12.814 44.0526 12.7451 44.0812 12.6701L44.5018 11.5684C44.5596 11.417 44.5517 11.2499 44.4799 11.104C44.4081 10.9581 44.2782 10.8453 44.1188 10.7904C43.9594 10.7354 43.7836 10.7429 43.63 10.8112C43.4764 10.8794 43.3576 11.0028 43.2998 11.1542L42.8792 12.2559C42.8505 12.3309 42.8377 12.4105 42.8415 12.4902C42.8452 12.5699 42.8655 12.6481 42.901 12.7203C42.9366 12.7926 42.9868 12.8575 43.0488 12.9113C43.1107 12.9651 43.1833 13.0068 43.2622 13.034Z" fill="#2F7B2F"/>
<path d="M45.1304 9.92163L46.7698 5.62784C46.7985 5.55287 46.8113 5.47326 46.8076 5.39356C46.8039 5.31386 46.7837 5.23564 46.7482 5.16335C46.7127 5.09107 46.6625 5.02614 46.6006 4.97227C46.5386 4.91841 46.4661 4.87665 46.3872 4.8494C46.3083 4.82216 46.2245 4.80994 46.1406 4.81346C46.0567 4.81697 45.9744 4.83615 45.8983 4.8699C45.8222 4.90365 45.7538 4.9513 45.6971 5.01015C45.6404 5.06899 45.5965 5.13786 45.5678 5.21284L43.9285 9.50743C43.8998 9.58241 43.887 9.66201 43.8908 9.74168C43.8945 9.82136 43.9148 9.89955 43.9503 9.9718C43.9859 10.044 44.0361 10.1089 44.098 10.1628C44.16 10.2166 44.2325 10.2583 44.3114 10.2855C44.3904 10.3127 44.4742 10.3248 44.558 10.3213C44.6419 10.3177 44.7242 10.2985 44.8002 10.2647C44.8763 10.2309 44.9446 10.1832 45.0012 10.1244C45.0579 10.0655 45.1018 9.9966 45.1304 9.92163Z" fill="#2F7B2F"/>
<path d="M5.15691 14.6349C5.28853 14.6349 5.41694 14.5963 5.52461 14.5244C5.63228 14.4525 5.71395 14.3507 5.75848 14.2331L6.02187 13.5376L11.0762 15.7005C12.5075 16.3925 14.0813 16.7777 15.6864 16.8289L16.8635 16.8648C16.554 17.1711 16.3252 17.5426 16.1958 17.949C16.0665 18.3554 16.0402 18.7851 16.1191 19.203C16.152 19.3737 16.2237 19.5356 16.3292 19.6773C16.4346 19.819 16.5714 19.9372 16.7298 20.0236C16.8883 20.1099 17.0647 20.1624 17.2467 20.1774C17.4287 20.1924 17.612 20.1695 17.7837 20.1103C17.7971 20.1057 17.8105 20.1002 17.8236 20.0952L19.7295 19.2986L19.0796 21.0011C18.9593 21.3162 18.9055 21.6508 18.9215 21.9858C18.9374 22.3207 19.0226 22.6493 19.1724 22.9529C19.3221 23.2564 19.5333 23.529 19.794 23.7549C20.0547 23.9809 20.3597 24.1558 20.6916 24.2697L44.2227 32.342C44.8919 32.5716 45.6297 32.5395 46.274 32.2527C46.9183 31.9659 47.4164 31.4479 47.659 30.8124L51.7118 20.1957C51.8321 19.8805 51.8858 19.5458 51.8698 19.2108C51.8539 18.8759 51.7685 18.5472 51.6187 18.2436C51.4689 17.94 51.2576 17.6675 50.9968 17.4416C50.736 17.2156 50.4309 17.0408 50.0989 16.927L27.4963 9.17345L23.0447 4.8327C22.6842 4.4403 22.2119 4.15522 21.6848 4.01174C21.1578 3.86826 20.5983 3.8725 20.0736 4.02394C15.344 5.39892 10.9194 5.36866 9.14682 5.28373L9.32241 4.82014C9.3527 4.74009 9.36495 4.65489 9.35837 4.57005C9.35179 4.48521 9.32652 4.40264 9.2842 4.32767C9.24188 4.2527 9.18345 4.18702 9.11271 4.13487C9.04196 4.08272 8.96047 4.04527 8.87352 4.02495L3.37884 2.74066C3.2926 2.72051 3.20288 2.71765 3.11542 2.73226C3.02795 2.74687 2.94464 2.77863 2.87081 2.82553C2.79699 2.87242 2.73425 2.93341 2.68661 3.00461C2.63897 3.07581 2.60746 3.15567 2.59411 3.23908L1.07271 12.7283C1.05055 12.8667 1.07935 13.008 1.15425 13.1285C1.22915 13.249 1.34555 13.3412 1.48377 13.3896L4.93593 14.5975C5.00668 14.6222 5.0815 14.6349 5.15691 14.6349ZM17.3718 18.957C17.3263 18.6864 17.3612 18.409 17.4727 18.1562C17.5842 17.9034 17.7679 17.6853 18.0029 17.5263L18.8368 16.9641C19.3114 17.0201 19.781 17.1095 20.2416 17.2316L20.493 17.2984L20.3323 17.7195L17.3718 18.957ZM26.1342 9.99748L49.6653 18.0697C49.8391 18.1294 49.9989 18.221 50.1355 18.3394C50.272 18.4577 50.3827 18.6005 50.4611 18.7595C50.5396 18.9185 50.5842 19.0907 50.5926 19.2661C50.6009 19.4415 50.5728 19.6168 50.5098 19.7819L46.4567 30.3982C46.3292 30.7307 46.0682 31.0017 45.7308 31.1519C45.3935 31.302 45.0073 31.3191 44.6567 31.1994L21.1258 23.1271C20.9519 23.0675 20.7922 22.9759 20.6556 22.8575C20.519 22.7392 20.4084 22.5964 20.33 22.4374C20.2515 22.2783 20.2069 22.1062 20.1985 21.9308C20.1902 21.7553 20.2183 21.5801 20.2813 21.415L21.7277 17.6261L22.539 17.8415L22.3881 18.2261C22.3209 18.4134 22.3346 18.6184 22.4261 18.7962C22.5177 18.974 22.6796 19.1101 22.8765 19.1747L22.8851 19.1775C24.0869 19.6037 24.51 20.145 23.845 22.2104C23.7838 22.3888 23.7965 22.5827 23.8805 22.7526C23.9645 22.9224 24.1135 23.0555 24.2972 23.1246L41.6197 29.2465C41.7009 29.2753 41.7869 29.2899 41.8735 29.2899C42.0264 29.2879 42.1754 29.2441 42.3025 29.1635C42.4297 29.083 42.5297 28.9692 42.5904 28.8359C43.3362 27.2366 43.9216 26.6124 45.4157 27.14C45.4194 27.1414 45.4235 27.1428 45.4275 27.1442C45.6202 27.2144 45.8341 27.2101 46.0234 27.132C46.2127 27.0539 46.3622 26.9084 46.4397 26.7267L48.1051 22.485C48.1393 22.3975 48.1549 22.3044 48.151 22.2111C48.147 22.1178 48.1237 22.0262 48.0822 21.9415C47.9906 21.7561 47.8265 21.6118 47.6249 21.5392C47.6216 21.5379 47.6183 21.5367 47.6149 21.5356C45.9903 20.9614 46.0347 20.3045 46.5576 18.7094C46.6128 18.5191 46.5895 18.3159 46.4925 18.1412C46.3955 17.9666 46.2321 17.8336 46.0355 17.7695L28.8646 11.7011C28.6722 11.6288 28.4581 11.6287 28.2656 11.7006C28.073 11.7725 27.9164 11.9112 27.8274 12.0886C27.1555 13.5491 26.6466 14.0698 25.3783 13.7334L23.4446 13.1283L24.3342 10.798C24.4617 10.4656 24.7227 10.1946 25.06 10.0445C25.3973 9.89443 25.7837 9.87771 26.1342 9.99748ZM20.4474 5.18545C20.7383 5.10175 21.0485 5.10024 21.3402 5.18112C21.632 5.262 21.8927 5.42177 22.0905 5.64094C22.0989 5.65015 22.1077 5.65926 22.1167 5.66797L25.2592 8.73222C24.781 8.80041 24.331 8.98988 23.9567 9.28069C23.5824 9.57149 23.2975 9.95284 23.1322 10.3846L22.8249 11.1896C21.7368 11.3283 20.6337 11.3233 19.5471 11.1747L19.2984 10.8318C19.2514 10.7648 19.1908 10.7073 19.1202 10.6627C19.0496 10.6181 18.9703 10.5872 18.887 10.572C18.8037 10.5568 18.7181 10.5575 18.6351 10.574C18.5521 10.5905 18.4734 10.6226 18.4035 10.6683C18.3337 10.714 18.2741 10.7725 18.2283 10.8403C18.1825 10.9081 18.1513 10.9839 18.1366 11.0632C18.1219 11.1426 18.124 11.2239 18.1428 11.3025C18.1615 11.3811 18.1965 11.4553 18.2457 11.521L18.6506 12.0789C19.1575 12.7743 19.8889 13.2942 20.7342 13.5598L26.897 15.4868C27.0445 15.5377 27.1793 15.6171 27.2931 15.7198C27.4069 15.8225 27.4972 15.9464 27.5583 16.0837C27.6194 16.221 27.65 16.3689 27.6483 16.518C27.6465 16.6671 27.6124 16.8142 27.5481 16.9502C27.4328 17.1918 27.2289 17.3852 26.9745 17.4943C26.7201 17.6035 26.4325 17.621 26.1655 17.5436L26.1506 17.5394L20.5855 16.0616C19.7425 15.8379 18.8743 15.7112 17.9995 15.6843L15.7273 15.6148C14.3055 15.5696 12.9116 15.2274 11.6446 14.6127C11.635 14.608 11.6252 14.6036 11.6155 14.5994L6.45573 12.3912L8.69495 6.47692C10.2449 6.58179 15.0989 6.7405 20.4474 5.18545ZM22.339 12.4622L22.2295 12.7488L21.4436 12.503C21.7765 12.4984 22.0775 12.4828 22.339 12.4622ZM2.41532 12.4212L3.75282 4.07921L7.87911 5.04323L4.77334 13.2462L2.41532 12.4212Z" fill="#2F7B2F"/>
<path d="M33.6823 24.5591C34.1626 24.7243 34.6696 24.8089 35.1804 24.809C35.9339 24.8072 36.6748 24.6251 37.3347 24.2796C37.9946 23.934 38.5522 23.4361 38.956 22.8317C39.3599 22.2274 39.5971 21.5362 39.6455 20.8218C39.694 20.1075 39.5523 19.3931 39.2335 18.7445C38.9882 18.243 38.6406 17.7927 38.2108 17.4198C37.781 17.0469 37.2775 16.7588 36.7296 16.5722C35.8972 16.2926 34.9965 16.2529 34.1405 16.4581C33.2845 16.6633 32.5114 17.1042 31.9183 17.7255C31.3252 18.3467 30.9385 19.1206 30.8069 19.9499C30.6753 20.7792 30.8045 21.627 31.1784 22.3868C31.4237 22.8883 31.7713 23.3385 32.2012 23.7114C32.631 24.0843 33.1344 24.3724 33.6823 24.5591ZM32.2282 19.545C32.4515 18.9583 32.8592 18.451 33.3962 18.0918C33.9331 17.7326 34.5733 17.5389 35.23 17.5369C35.8277 17.5375 36.4128 17.6999 36.9168 18.005C37.4208 18.3101 37.8228 18.7454 38.0757 19.2598C38.3424 19.8021 38.4347 20.4071 38.341 20.999C38.2473 21.5908 37.9719 22.1433 37.5492 22.5871C37.1264 23.031 36.5753 23.3464 35.9647 23.494C35.354 23.6415 34.7112 23.6146 34.1166 23.4166C33.727 23.2838 33.3689 23.0788 33.0633 22.8136C32.7577 22.5483 32.5105 22.2281 32.3362 21.8714C32.157 21.5097 32.0552 21.1178 32.0366 20.7185C32.0181 20.3191 32.0832 19.9203 32.2282 19.545Z" fill="white"/>
<path d="M19.5568 7.61586C19.6126 7.61601 19.6681 7.60921 19.722 7.59561C19.9458 7.53893 20.1719 7.47901 20.3933 7.41777C20.5561 7.37271 20.6934 7.26806 20.7749 7.12685C20.8565 6.98564 20.8757 6.81943 20.8282 6.66479C20.7808 6.51015 20.6706 6.37974 20.522 6.30225C20.3734 6.22476 20.1984 6.20655 20.0356 6.25161C19.8237 6.31031 19.6073 6.3676 19.3926 6.42206C19.2425 6.45984 19.1119 6.54825 19.0254 6.67078C18.9389 6.79331 18.9023 6.94158 18.9224 7.08789C18.9425 7.23419 19.018 7.36853 19.1348 7.4658C19.2516 7.56308 19.4017 7.61663 19.557 7.61647L19.5568 7.61586Z" fill="#2F7B2F"/>
<path d="M11.6679 8.65369H11.6815C13.6949 8.61505 15.701 8.41107 17.6773 8.04403C17.8437 8.01292 17.9902 7.9203 18.0847 7.78655C18.1792 7.6528 18.2138 7.48887 18.1811 7.33083C18.1483 7.17279 18.0508 7.03359 17.91 6.94384C17.7693 6.85409 17.5967 6.82115 17.4303 6.85226C15.5265 7.20571 13.5941 7.40214 11.6547 7.43934C11.4851 7.44101 11.3232 7.50659 11.2046 7.62166C11.0859 7.73673 11.0203 7.89187 11.022 8.05294C11.0238 8.21401 11.0928 8.36783 11.2139 8.48055C11.3351 8.59326 11.4984 8.65566 11.6679 8.65399V8.65369Z" fill="#2F7B2F"/>
<path d="M37.3944 20.0116L37.2338 20.4126L35.2814 19.7069L34.6657 21.2442C34.5958 21.4188 34.5708 21.5457 34.5907 21.6252C34.6143 21.706 34.6957 21.7715 34.8349 21.8218C34.9477 21.8626 35.0703 21.8793 35.2024 21.8718C35.3384 21.8657 35.4679 21.8381 35.5909 21.789C35.7176 21.7413 35.83 21.6757 35.9281 21.5921C36.0277 21.5048 36.0997 21.4055 36.1444 21.2941C36.1801 21.205 36.1812 21.1267 36.1479 21.0594C36.1183 20.9935 36.0471 20.9401 35.9343 20.8993C35.8327 20.8626 35.7342 20.8398 35.6387 20.8308L35.734 20.4316C35.8054 20.4362 35.8783 20.4476 35.9527 20.4661C36.0324 20.4821 36.1099 20.5037 36.1852 20.5309C36.3845 20.603 36.5262 20.7116 36.6102 20.8567C36.6994 20.9995 36.7002 21.1804 36.6124 21.3995C36.544 21.5703 36.4365 21.7206 36.2898 21.8503C36.1483 21.9778 35.9846 22.0801 35.7986 22.1574C35.6141 22.231 35.4231 22.2725 35.2256 22.2819C35.028 22.2912 34.8408 22.264 34.664 22.2C34.5249 22.1497 34.4161 22.0934 34.3377 22.0311C34.2608 21.965 34.2034 21.8933 34.1655 21.8158C34.1428 21.7651 34.1253 21.712 34.113 21.6566C34.1022 21.5974 34.1031 21.5255 34.1155 21.4407C34.1332 21.3536 34.1688 21.2431 34.2223 21.1095L34.8469 19.5499L34.2995 19.3521L34.4602 18.951L37.3944 20.0116ZM35.3022 17.6549C35.4113 17.6944 35.4994 17.7432 35.5665 17.8015C35.6373 17.8611 35.6891 17.9308 35.7217 18.0106C35.7612 18.1056 35.7733 18.2205 35.7581 18.3553C35.7481 18.4877 35.6993 18.6635 35.6115 18.8826L35.4241 19.3505L34.9897 19.1934L35.1681 18.7478C35.2202 18.6179 35.2539 18.5068 35.2693 18.4146C35.2899 18.32 35.2809 18.2402 35.2424 18.1753C35.2053 18.1066 35.1303 18.0519 35.0174 18.0111C34.946 17.9853 34.87 17.9706 34.7896 17.967C34.7145 17.9611 34.6487 17.9586 34.5924 17.9595L34.5783 17.5591C34.7105 17.5516 34.8338 17.5558 34.948 17.5716C35.0675 17.585 35.1856 17.6128 35.3022 17.6549Z" fill="white"/>
</svg>
