<svg width="52" height="52" viewBox="0 0 52 52" fill="none" xmlns="http://www.w3.org/2000/svg">
<path d="M47.0539 10.6539L48.2794 11.8794L51.7461 8.41271C51.9085 8.25019 51.9998 8.02979 51.9998 7.79998C51.9998 7.57017 51.9085 7.34977 51.7461 7.18725L48.2794 3.72058L47.0539 4.94605L49.0412 6.93331H39V8.66665H49.0412L47.0539 10.6539Z" fill="#F1A501"/>
<path d="M41.8537 18.8127L43.0792 17.5873L41.0919 15.6H51.1331V13.8667H41.0919L43.0792 11.8794L41.8537 10.6539L38.387 14.1206C38.2246 14.2831 38.1333 14.5035 38.1333 14.7333C38.1333 14.9631 38.2246 15.1835 38.387 15.3461L41.8537 18.8127Z" fill="#F1A501"/>
<path d="M50.986 25.2807C50.3716 24.6643 49.547 24.303 48.6774 24.2693C47.8078 24.2355 46.9576 24.5318 46.2973 25.0987C45.9942 24.5817 45.5612 24.153 45.0413 23.855C44.5214 23.5571 43.9326 23.4002 43.3333 23.4C42.9457 23.3945 42.5606 23.4622 42.198 23.5993C41.7963 23.7412 41.4256 23.9589 41.106 24.2407C40.801 23.7228 40.3666 23.2932 39.8455 22.9938C39.3243 22.6945 38.7343 22.5358 38.1333 22.5333C37.5234 22.5351 36.925 22.6997 36.4 23.01V8.66667C36.4 7.74725 36.0348 6.86549 35.3846 6.21536C34.7345 5.56524 33.8528 5.2 32.9333 5.2C32.3234 5.20177 31.725 5.36632 31.2 5.67667V2.6C31.1979 1.91107 30.9234 1.25094 30.4362 0.763795C29.9491 0.276646 29.2889 0.00205755 28.6 0H7.8C7.11107 0.00205755 6.45094 0.276646 5.9638 0.763795C5.47665 1.25094 5.20206 1.91107 5.2 2.6V19.9333H4.33333C3.18406 19.9333 2.08186 20.3899 1.2692 21.2025C0.456546 22.0152 0 23.1174 0 24.2667V27.8113L1.73333 45.9767V51.1333C1.73333 51.3632 1.82464 51.5836 1.98717 51.7462C2.14971 51.9087 2.37015 52 2.6 52H21.6667C21.8965 52 22.117 51.9087 22.2795 51.7462C22.442 51.5836 22.5333 51.3632 22.5333 51.1333V46.2107L25.7573 41.6H27.6207L28.6 44.3473V51.1333C28.6 51.3632 28.6913 51.5836 28.8538 51.7462C29.0164 51.9087 29.2368 52 29.4667 52H46.8C47.0299 52 47.2503 51.9087 47.4128 51.7462C47.5754 51.5836 47.6667 51.3632 47.6667 51.1333V44.3473L51.6447 33.202C51.8788 32.5484 51.999 31.8596 52 31.1653V27.7333C52.0004 27.278 51.911 26.827 51.737 26.4061C51.563 25.9853 51.3078 25.6028 50.986 25.2807ZM20.8 50.2667H3.46667V46.8H20.8V50.2667ZM21.216 45.0667H3.38867L1.73333 27.7333V24.2667C1.73539 23.5777 2.00998 22.9176 2.49713 22.4305C2.98428 21.9433 3.6444 21.6687 4.33333 21.6667H10.4C11.0896 21.6667 11.7509 21.9406 12.2385 22.4282C12.7261 22.9158 13 23.5771 13 24.2667C13 24.9562 12.7261 25.6175 12.2385 26.1051C11.7509 26.5927 11.0896 26.8667 10.4 26.8667H6.06667C5.83681 26.8667 5.61637 26.958 5.45384 27.1205C5.29131 27.283 5.2 27.5035 5.2 27.7333V39C5.20206 39.6889 5.47665 40.3491 5.9638 40.8362C6.45094 41.3234 7.11107 41.5979 7.8 41.6H23.6427L21.216 45.0667ZM7.8 39.8667C7.57015 39.8667 7.34971 39.7754 7.18717 39.6128C7.02464 39.4503 6.93333 39.2299 6.93333 39V36.4H22.5333V34.6667H6.93333V28.6H10.4C11.5493 28.6 12.6515 28.1435 13.4641 27.3308C14.2768 26.5181 14.7333 25.4159 14.7333 24.2667C14.7333 23.1174 14.2768 22.0152 13.4641 21.2025C12.6515 20.3899 11.5493 19.9333 10.4 19.9333H6.93333V2.6C6.93333 2.37015 7.02464 2.14971 7.18717 1.98717C7.34971 1.82464 7.57015 1.73333 7.8 1.73333H28.6C28.8299 1.73333 29.0503 1.82464 29.2128 1.98717C29.3754 2.14971 29.4667 2.37015 29.4667 2.6V20.4187C28.9404 20.1028 28.3385 19.9351 27.7247 19.9333C26.8083 19.9356 25.93 20.3007 25.282 20.9487C24.634 21.5967 24.269 22.4749 24.2667 23.3913V31.1653C24.2684 31.8623 24.3886 32.5539 24.622 33.2107L26.9967 39.8667H7.8ZM32.9333 50.2667H30.3333V45.0667H32.9333V50.2667ZM37.2667 50.2667H34.6667V45.0667H37.2667V50.2667ZM41.6 50.2667H39V45.0667H41.6V50.2667ZM45.9333 50.2667H43.3333V45.0667H45.9333V50.2667ZM50.2667 31.1653C50.2656 31.6614 50.1806 32.1537 50.0153 32.6213L46.1933 43.3333H30.0733L26.2513 32.63C26.0867 32.1591 26.0018 31.6641 26 31.1653V23.3913C26.0012 22.9316 26.1849 22.4912 26.5107 22.167C26.8366 21.8427 27.278 21.6612 27.7377 21.6623C28.1974 21.6635 28.6378 21.8472 28.962 22.1731C29.2863 22.499 29.4678 22.9403 29.4667 23.4V30.3333H31.2V8.66667C31.2034 8.20801 31.3871 7.7691 31.7114 7.44477C32.0358 7.12045 32.4747 6.93674 32.9333 6.93333C33.3926 6.93471 33.8327 7.11776 34.1575 7.44253C34.4822 7.7673 34.6653 8.20738 34.6667 8.66667V30.3333H36.4V26C36.4034 25.5413 36.5871 25.1024 36.9114 24.7781C37.2358 24.4538 37.6747 24.2701 38.1333 24.2667C38.5926 24.268 39.0327 24.4511 39.3575 24.7759C39.6822 25.1006 39.8653 25.5407 39.8667 26V30.3333H41.6V26.8667C41.6002 26.6393 41.6454 26.4142 41.7332 26.2044C41.821 25.9947 41.9495 25.8044 42.1113 25.6447C42.2946 25.4513 42.5243 25.3081 42.7787 25.2287C42.9566 25.1647 43.1443 25.1325 43.3333 25.1333C43.7926 25.1347 44.2327 25.3178 44.5575 25.6425C44.8822 25.9673 45.0653 26.4074 45.0667 26.8667V31.2H46.8V27.7333C46.8014 27.274 46.9844 26.834 47.3092 26.5092C47.634 26.1844 48.074 26.0014 48.5333 26C48.992 26.0034 49.4309 26.1871 49.7552 26.5114C50.0796 26.8358 50.2633 27.2747 50.2667 27.7333V31.1653Z" fill="#F1A501"/>
<path d="M18.1999 3.46667C16.4858 3.46667 14.8102 3.97497 13.3849 4.92727C11.9597 5.87958 10.8489 7.23313 10.1929 8.81675C9.53696 10.4004 9.36533 12.143 9.69973 13.8241C10.0341 15.5053 10.8596 17.0495 12.0716 18.2616C13.2837 19.4737 14.8279 20.2991 16.5091 20.6335C18.1903 20.9679 19.9328 20.7963 21.5165 20.1403C23.1001 19.4843 24.4536 18.3735 25.4059 16.9483C26.3582 15.5231 26.8665 13.8474 26.8665 12.1333C26.8629 9.83593 25.9486 7.63365 24.3241 6.00913C22.6996 4.38461 20.4973 3.47034 18.1999 3.46667ZM18.1999 19.0667C16.8286 19.0667 15.4881 18.66 14.3479 17.8982C13.2077 17.1364 12.3191 16.0535 11.7943 14.7866C11.2695 13.5197 11.1322 12.1257 11.3998 10.7807C11.6673 9.43578 12.3276 8.20038 13.2973 7.23073C14.2669 6.26109 15.5023 5.60075 16.8472 5.33323C18.1922 5.06571 19.5862 5.20301 20.8531 5.72778C22.12 6.25254 23.2029 7.14121 23.9647 8.28139C24.7266 9.42157 25.1332 10.7621 25.1332 12.1333C25.1307 13.9714 24.3994 15.7335 23.0997 17.0332C21.8 18.3329 20.0379 19.0642 18.1999 19.0667Z" fill="#F1A501"/>
</svg>
