<svg width="52" height="52" viewBox="0 0 52 52" fill="none" xmlns="http://www.w3.org/2000/svg">
<path d="M0 0V18.9091H4.72727V23.6364H9.45455V18.9091H18.9091V0H0ZM18.9091 18.9091V23.6364H23.6364V28.3636H14.1818V33.0909H0V52H18.9091V33.0909H33.0909V28.3636H28.3636V23.6364H37.8182V18.9091H42.5455V23.6364H47.2727V18.9091H52V0H33.0909V18.9091H18.9091ZM47.2727 23.6364V28.3636H52V23.6364H47.2727ZM47.2727 28.3636H42.5455V33.0909H47.2727V28.3636ZM47.2727 33.0909V37.8182H52V33.0909H47.2727ZM47.2727 37.8182H42.5455V33.0909H37.8182V37.8182H26V52H30.7273V42.5455H40.1818V47.2727H44.9091V42.5455H47.2727V37.8182ZM40.1818 47.2727H35.4545V52H40.1818V47.2727ZM42.5455 28.3636V23.6364H37.8182V28.3636H42.5455ZM14.1818 28.3636V23.6364H9.45455V28.3636H14.1818ZM4.72727 23.6364H0V28.3636H4.72727V23.6364ZM23.6364 0V9.45455H21.2727V14.1818H23.6364V16.5455H28.3636V9.45455H30.7273V4.72727H28.3636V0H23.6364ZM4.72727 4.72727H14.1818V14.1818H4.72727V4.72727ZM37.8182 4.72727H47.2727V14.1818H37.8182V4.72727ZM7.09091 7.09091V11.8182H11.8182V7.09091H7.09091ZM40.1818 7.09091V11.8182H44.9091V7.09091H40.1818ZM4.72727 37.8182H14.1818V47.2727H4.72727V37.8182ZM7.09091 40.1818V44.9091H11.8182V40.1818H7.09091ZM47.2727 47.2727V52H52V47.2727H47.2727Z" fill="#00509A"/>
</svg>
